<?xml version="1.0" encoding="UTF-8" standalone="no"?>
<!-- Created with Inkscape (http://www.inkscape.org/) -->

<svg
   xmlns:dc="http://purl.org/dc/elements/1.1/"
   xmlns:cc="http://creativecommons.org/ns#"
   xmlns:rdf="http://www.w3.org/1999/02/22-rdf-syntax-ns#"
   xmlns:svg="http://www.w3.org/2000/svg"
   xmlns="http://www.w3.org/2000/svg"
   xmlns:inkscape="http://www.inkscape.org/namespaces/inkscape"
   version="1.1"
   width="585"
   height="270"
   id="svg2"
   xml:space="preserve"><metadata
     id="metadata8"><rdf:RDF><cc:Work
         rdf:about=""><dc:format>image/svg+xml</dc:format><dc:type
           rdf:resource="http://purl.org/dc/dcmitype/StillImage" /></cc:Work></rdf:RDF></metadata><defs
     id="defs6"><clipPath
       id="clipPath86"><path
         d="M 0,0 156,0 156,216 0,216 0,0 z"
         inkscape:connector-curvature="0"
         id="path88" /></clipPath><clipPath
       id="clipPath106"><path
         d="m 32.47,40.39 106.9,0 0,143.14 -106.9,0 0,-143.14 z"
         inkscape:connector-curvature="0"
         id="path108" /></clipPath><clipPath
       id="clipPath124"><path
         d="m 188.47,40.39 106.9,0 0,143.14 -106.9,0 0,-143.14 z"
         inkscape:connector-curvature="0"
         id="path126" /></clipPath><clipPath
       id="clipPath216"><path
         d="m 156,0 156,0 0,216 -156,0 0,-216 z"
         inkscape:connector-curvature="0"
         id="path218" /></clipPath><clipPath
       id="clipPath236"><path
         d="m 188.47,40.39 106.9,0 0,143.14 -106.9,0 0,-143.14 z"
         inkscape:connector-curvature="0"
         id="path238" /></clipPath><clipPath
       id="clipPath254"><path
         d="m 344.47,40.39 106.9,0 0,143.14 -106.9,0 0,-143.14 z"
         inkscape:connector-curvature="0"
         id="path256" /></clipPath><clipPath
       id="clipPath324"><path
         d="m 312,0 156,0 0,216 -156,0 0,-216 z"
         inkscape:connector-curvature="0"
         id="path326" /></clipPath><clipPath
       id="clipPath344"><path
         d="m 344.47,40.39 106.9,0 0,143.14 -106.9,0 0,-143.14 z"
         inkscape:connector-curvature="0"
         id="path346" /></clipPath></defs><g
     transform="matrix(1.25,0,0,-1.25,0,270)"
     id="g10"><g
       id="g12" /><g
       id="g14"><path
         d="m 36.43,40.39 98.98,0"
         inkscape:connector-curvature="0"
         id="path16"
         style="fill:none;stroke:#000000;stroke-width:0.75;stroke-linecap:round;stroke-linejoin:round;stroke-miterlimit:10;stroke-opacity:1;stroke-dasharray:none" /><path
         d="m 36.43,40.39 0,-3.96"
         inkscape:connector-curvature="0"
         id="path18"
         style="fill:none;stroke:#000000;stroke-width:0.75;stroke-linecap:round;stroke-linejoin:round;stroke-miterlimit:10;stroke-opacity:1;stroke-dasharray:none" /><path
         d="m 52.93,40.39 0,-3.96"
         inkscape:connector-curvature="0"
         id="path20"
         style="fill:none;stroke:#000000;stroke-width:0.75;stroke-linecap:round;stroke-linejoin:round;stroke-miterlimit:10;stroke-opacity:1;stroke-dasharray:none" /><path
         d="m 69.42,40.39 0,-3.96"
         inkscape:connector-curvature="0"
         id="path22"
         style="fill:none;stroke:#000000;stroke-width:0.75;stroke-linecap:round;stroke-linejoin:round;stroke-miterlimit:10;stroke-opacity:1;stroke-dasharray:none" /><path
         d="m 85.92,40.39 0,-3.96"
         inkscape:connector-curvature="0"
         id="path24"
         style="fill:none;stroke:#000000;stroke-width:0.75;stroke-linecap:round;stroke-linejoin:round;stroke-miterlimit:10;stroke-opacity:1;stroke-dasharray:none" /><path
         d="m 102.42,40.39 0,-3.96"
         inkscape:connector-curvature="0"
         id="path26"
         style="fill:none;stroke:#000000;stroke-width:0.75;stroke-linecap:round;stroke-linejoin:round;stroke-miterlimit:10;stroke-opacity:1;stroke-dasharray:none" /><path
         d="m 118.91,40.39 0,-3.96"
         inkscape:connector-curvature="0"
         id="path28"
         style="fill:none;stroke:#000000;stroke-width:0.75;stroke-linecap:round;stroke-linejoin:round;stroke-miterlimit:10;stroke-opacity:1;stroke-dasharray:none" /><path
         d="m 135.41,40.39 0,-3.96"
         inkscape:connector-curvature="0"
         id="path30"
         style="fill:none;stroke:#000000;stroke-width:0.75;stroke-linecap:round;stroke-linejoin:round;stroke-miterlimit:10;stroke-opacity:1;stroke-dasharray:none" /><text
         transform="matrix(1,0,0,-1,34.49,26.14)"
         id="text32"><tspan
           x="0"
           y="0"
           id="tspan34"
           style="font-size:7px;font-variant:normal;font-weight:normal;writing-mode:lr-tb;fill:#000000;fill-opacity:1;fill-rule:nonzero;stroke:none;font-family:Helvetica;-inkscape-font-specification:Helvetica">0</tspan></text>
<text
         transform="matrix(1,0,0,-1,47.09,26.14)"
         id="text36"><tspan
           x="0 3.892 7.7839999"
           y="0"
           id="tspan38"
           style="font-size:7px;font-variant:normal;font-weight:normal;writing-mode:lr-tb;fill:#000000;fill-opacity:1;fill-rule:nonzero;stroke:none;font-family:Helvetica;-inkscape-font-specification:Helvetica">100</tspan></text>
<text
         transform="matrix(1,0,0,-1,80.08,26.14)"
         id="text40"><tspan
           x="0 3.892 7.7839999"
           y="0"
           id="tspan42"
           style="font-size:7px;font-variant:normal;font-weight:normal;writing-mode:lr-tb;fill:#000000;fill-opacity:1;fill-rule:nonzero;stroke:none;font-family:Helvetica;-inkscape-font-specification:Helvetica">300</tspan></text>
<text
         transform="matrix(1,0,0,-1,113.07,26.14)"
         id="text44"><tspan
           x="0 3.892 7.7839999"
           y="0"
           id="tspan46"
           style="font-size:7px;font-variant:normal;font-weight:normal;writing-mode:lr-tb;fill:#000000;fill-opacity:1;fill-rule:nonzero;stroke:none;font-family:Helvetica;-inkscape-font-specification:Helvetica">500</tspan></text>
<path
         d="m 32.47,45.69 0,116.35"
         inkscape:connector-curvature="0"
         id="path48"
         style="fill:none;stroke:#000000;stroke-width:0.75;stroke-linecap:round;stroke-linejoin:round;stroke-miterlimit:10;stroke-opacity:1;stroke-dasharray:none" /><path
         d="m 32.47,45.69 -3.96,0"
         inkscape:connector-curvature="0"
         id="path50"
         style="fill:none;stroke:#000000;stroke-width:0.75;stroke-linecap:round;stroke-linejoin:round;stroke-miterlimit:10;stroke-opacity:1;stroke-dasharray:none" /><path
         d="m 32.47,74.78 -3.96,0"
         inkscape:connector-curvature="0"
         id="path52"
         style="fill:none;stroke:#000000;stroke-width:0.75;stroke-linecap:round;stroke-linejoin:round;stroke-miterlimit:10;stroke-opacity:1;stroke-dasharray:none" /><path
         d="m 32.47,103.86 -3.96,0"
         inkscape:connector-curvature="0"
         id="path54"
         style="fill:none;stroke:#000000;stroke-width:0.75;stroke-linecap:round;stroke-linejoin:round;stroke-miterlimit:10;stroke-opacity:1;stroke-dasharray:none" /><path
         d="m 32.47,132.95 -3.96,0"
         inkscape:connector-curvature="0"
         id="path56"
         style="fill:none;stroke:#000000;stroke-width:0.75;stroke-linecap:round;stroke-linejoin:round;stroke-miterlimit:10;stroke-opacity:1;stroke-dasharray:none" /><path
         d="m 32.47,162.04 -3.96,0"
         inkscape:connector-curvature="0"
         id="path58"
         style="fill:none;stroke:#000000;stroke-width:0.75;stroke-linecap:round;stroke-linejoin:round;stroke-miterlimit:10;stroke-opacity:1;stroke-dasharray:none" /><text
         transform="matrix(0,1,1,0,22.97,36.93)"
         id="text60"><tspan
           x="0 3.892 5.8379998 9.7299995 13.622"
           y="0"
           id="tspan62"
           style="font-size:7px;font-variant:normal;font-weight:normal;writing-mode:lr-tb;fill:#000000;fill-opacity:1;fill-rule:nonzero;stroke:none;font-family:Helvetica;-inkscape-font-specification:Helvetica">0.000</tspan></text>
<text
         transform="matrix(0,1,1,0,22.97,66.02)"
         id="text64"><tspan
           x="0 3.892 5.8379998 9.7299995 13.622"
           y="0"
           id="tspan66"
           style="font-size:7px;font-variant:normal;font-weight:normal;writing-mode:lr-tb;fill:#000000;fill-opacity:1;fill-rule:nonzero;stroke:none;font-family:Helvetica;-inkscape-font-specification:Helvetica">0.005</tspan></text>
<text
         transform="matrix(0,1,1,0,22.97,95.1)"
         id="text68"><tspan
           x="0 3.892 5.8379998 9.7299995 13.622"
           y="0"
           id="tspan70"
           style="font-size:7px;font-variant:normal;font-weight:normal;writing-mode:lr-tb;fill:#000000;fill-opacity:1;fill-rule:nonzero;stroke:none;font-family:Helvetica;-inkscape-font-specification:Helvetica">0.010</tspan></text>
<text
         transform="matrix(0,1,1,0,22.97,124.19)"
         id="text72"><tspan
           x="0 3.892 5.8379998 9.7299995 13.622"
           y="0"
           id="tspan74"
           style="font-size:7px;font-variant:normal;font-weight:normal;writing-mode:lr-tb;fill:#000000;fill-opacity:1;fill-rule:nonzero;stroke:none;font-family:Helvetica;-inkscape-font-specification:Helvetica">0.015</tspan></text>
<text
         transform="matrix(0,1,1,0,22.97,153.28)"
         id="text76"><tspan
           x="0 3.892 5.8379998 9.7299995 13.622"
           y="0"
           id="tspan78"
           style="font-size:7px;font-variant:normal;font-weight:normal;writing-mode:lr-tb;fill:#000000;fill-opacity:1;fill-rule:nonzero;stroke:none;font-family:Helvetica;-inkscape-font-specification:Helvetica">0.020</tspan></text>
<path
         d="m 32.47,40.39 106.9,0 0,143.14 -106.9,0 0,-143.14"
         inkscape:connector-curvature="0"
         id="path80"
         style="fill:none;stroke:#000000;stroke-width:0.75;stroke-linecap:round;stroke-linejoin:round;stroke-miterlimit:10;stroke-opacity:1;stroke-dasharray:none" /></g><g
       id="g82"><g
         clip-path="url(#clipPath86)"
         id="g84"><text
           transform="matrix(1,0,0,-1,44.88,196.89)"
           id="text90"><tspan
             x="0 4.368 9.3360004 13.784 16.007999 20.896 23.120001 27.568001 30.232 33.344002 35.568001 40.296001 45.183998 47.848 50.071999 54.959999 59.848 62.071999 64.295998 68.744003 70.968002 75.416"
             y="0"
             id="tspan92"
             style="font-size:8px;font-variant:normal;font-weight:bold;writing-mode:lr-tb;fill:#000000;fill-opacity:1;fill-rule:nonzero;stroke:none;font-family:Helvetica;-inkscape-font-specification:Helvetica-Bold">age distribution, 2 cM</tspan></text>
<text
           transform="matrix(1,0,0,-1,60.86,10.3)"
           id="text94"><tspan
             x="0 3.892 7.7839999 11.676 15.568 17.829 21.721001 23.667 25.221001 29.113001 33.005001 36.505001 38.451 42.342999 46.235001"
             y="0"
             id="tspan96"
             style="font-size:7px;font-variant:normal;font-weight:normal;writing-mode:lr-tb;fill:#000000;fill-opacity:1;fill-rule:nonzero;stroke:none;font-family:Helvetica;-inkscape-font-specification:Helvetica">generations ago</tspan></text>
<text
           transform="matrix(0,1,1,0,7.13,100.87)"
           id="text98"><tspan
             x="0 3.892 7.7839999 11.676 15.176 16.73 18.676001"
             y="0"
             id="tspan100"
             style="font-size:7px;font-variant:normal;font-weight:normal;writing-mode:lr-tb;fill:#000000;fill-opacity:1;fill-rule:nonzero;stroke:none;font-family:Helvetica;-inkscape-font-specification:Helvetica">density</tspan></text>
</g></g><g
       id="g102"><g
         clip-path="url(#clipPath106)"
         id="g104"><path
           d="m 40.56,40.39 0,143.14"
           inkscape:connector-curvature="0"
           id="path110"
           style="fill:none;stroke:#000000;stroke-width:0.75;stroke-linecap:round;stroke-linejoin:round;stroke-miterlimit:10;stroke-opacity:1;stroke-dasharray:2.25, 3.75;stroke-dashoffset:0" /><path
           d="m 36.76,46.01 0.33,0.67 0.33,0.95 0.33,1.22 0.33,1.44 0.33,1.63 0.33,1.78 0.33,1.92 0.33,2.03 0.33,2.1 0.33,2.18 0.33,2.21 0.33,2.25 0.33,2.26 0.33,2.25 0.33,2.24 0.33,2.22 0.33,2.19 0.33,2.14 0.33,2.1 0.33,2.03 0.33,1.98 0.33,1.91 0.33,1.84 0.33,1.76 0.33,1.69 0.33,1.61 0.33,1.53 0.33,1.45 0.33,1.37 0.33,1.28 0.33,1.2 0.33,1.12 0.33,1.03 0.33,0.96 0.33,0.87 0.33,0.8 0.33,0.72 0.33,0.64 0.33,0.57 0.33,0.5 0.33,0.43 0.33,0.36 0.33,0.29 0.33,0.23 0.33,0.16 0.33,0.11 0.33,0.05 0.33,-0.01 0.33,-0.05 0.33,-0.11 0.33,-0.16 0.33,-0.21 0.33,-0.24 0.33,-0.3 0.33,-0.33 0.33,-0.36 0.33,-0.41 0.33,-0.44 0.33,-0.47 0.33,-0.5 0.33,-0.52 0.33,-0.56 0.33,-0.58 0.33,-0.6 0.33,-0.62 0.33,-0.64 0.33,-0.66 0.33,-0.68 0.33,-0.69 0.33,-0.7 0.33,-0.72 0.33,-0.73 0.33,-0.73 0.33,-0.75 0.33,-0.75 0.33,-0.76 0.33,-0.77 0.33,-0.77 0.33,-0.77 0.33,-0.78 0.33,-0.77 0.32,-0.78 0.33,-0.78 0.33,-0.77 0.33,-0.78 0.33,-0.77 0.33,-0.77 0.33,-0.77 0.33,-0.76 0.33,-0.76 0.33,-0.75 0.33,-0.75 0.33,-0.74 0.33,-0.73 0.33,-0.73 0.33,-0.72 0.33,-0.72 0.33,-0.7 0.33,-0.7 0.33,-0.69 0.33,-0.69 0.33,-0.67 0.33,-0.66 0.33,-0.66 0.33,-0.65 0.33,-0.64 0.33,-0.62 0.33,-0.62 0.33,-0.61 0.33,-0.6 0.33,-0.6 0.33,-0.58 0.33,-0.57 0.33,-0.56 0.33,-0.55 0.33,-0.55 0.33,-0.53 0.33,-0.52 0.33,-0.52 0.33,-0.5 0.33,-0.49 0.33,-0.49 0.33,-0.48 0.33,-0.46 0.33,-0.46 0.33,-0.45 0.33,-0.44 0.33,-0.43 0.33,-0.42 0.33,-0.41 0.33,-0.41 0.33,-0.39 0.33,-0.39 0.33,-0.38 0.33,-0.37 0.33,-0.36 0.33,-0.35 0.33,-0.35 0.33,-0.34 0.33,-0.33 0.33,-0.32 0.33,-0.32 0.33,-0.31 0.33,-0.3 0.33,-0.29 0.33,-0.29 0.33,-0.28 0.33,-0.27 0.33,-0.27 0.33,-0.26 0.33,-0.25 0.33,-0.25 0.33,-0.24 0.33,-0.24 0.33,-0.23 0.33,-0.22 0.33,-0.22 0.33,-0.22 0.33,-0.2 0.33,-0.21 0.33,-0.19 0.33,-0.2 0.33,-0.18 0.33,-0.19 0.33,-0.17 0.33,-0.18 0.33,-0.17 0.33,-0.16 0.33,-0.16 0.33,-0.15 0.33,-0.16 0.33,-0.14 0.33,-0.15 0.33,-0.14 0.33,-0.13 0.33,-0.13 0.33,-0.13 0.33,-0.13 0.33,-0.12 0.33,-0.12 0.33,-0.11 0.33,-0.11 0.33,-0.11 0.33,-0.11 0.33,-0.1 0.33,-0.1 0.33,-0.1 0.33,-0.09 0.33,-0.09 0.33,-0.09 0.33,-0.09 0.33,-0.08 0.33,-0.09 0.33,-0.07 0.33,-0.08 0.33,-0.08 0.33,-0.07 0.33,-0.07 0.33,-0.07 0.33,-0.07 0.33,-0.06 0.33,-0.06 0.33,-0.06 0.33,-0.06 0.33,-0.06 0.33,-0.06 0.33,-0.05 0.33,-0.05 0.33,-0.05 0.33,-0.05 0.33,-0.05 0.33,-0.05 0.33,-0.04 0.33,-0.05 0.33,-0.04 0.33,-0.04 0.32,-0.04 0.33,-0.04 0.33,-0.04 0.33,-0.03 0.33,-0.04 0.33,-0.03 0.33,-0.04 0.33,-0.03 0.33,-0.03 0.33,-0.03 0.33,-0.03 0.33,-0.03 0.33,-0.03 0.33,-0.02 0.33,-0.03 0.33,-0.02 0.33,-0.03 0.33,-0.02 0.33,-0.03 0.33,-0.02 0.33,-0.02 0.33,-0.02 0.33,-0.02 0.33,-0.02 0.33,-0.02 0.33,-0.02 0.33,-0.02 0.33,-0.01 0.33,-0.02 0.33,-0.02 0.33,-0.01 0.33,-0.02 0.33,-0.01 0.33,-0.02 0.33,-0.01 0.33,-0.01 0.33,-0.02 0.33,-0.01 0.33,-0.01 0.33,-0.01 0.33,-0.01 0.33,-0.01 0.33,-0.02 0.33,-0.01 0.33,-0.01 0.33,-0.01 0.33,0 0.33,-0.01 0.33,-0.01 0.33,-0.01 0.33,-0.01 0.33,-0.01 0.33,0 0.33,-0.01 0.33,-0.01 0.33,-0.01 0.33,0 0.33,-0.01 0.33,-0.01 0.33,0 0.33,-0.01 0.33,0 0.33,-0.01 0.33,0 0.33,-0.01 0.33,-0.01 0.33,0 0.33,0 0.33,-0.01 0.33,0 0.33,-0.01 0.33,0 0.33,-0.01 0.33,0 0.33,0 0.33,-0.01 0.33,0 0.33,0 0.33,-0.01 0.33,0 0.33,0 0.33,-0.01 0.33,0"
           inkscape:connector-curvature="0"
           id="path112"
           style="fill:none;stroke:#e495a5;stroke-width:0.75;stroke-linecap:round;stroke-linejoin:round;stroke-miterlimit:10;stroke-opacity:1;stroke-dasharray:none" /><path
           d="m 36.76,45.69 0.33,0.01 0.33,0.02 0.33,0.02 0.33,0.02 0.33,0.03 0.33,0.03 0.33,0.03 0.33,0.04 0.33,0.03 0.33,0.04 0.33,0.03 0.33,0.04 0.33,0.04 0.33,0.04 0.33,0.04 0.33,0.04 0.33,0.03 0.33,0.04 0.33,0.04 0.33,0.03 0.33,0.04 0.33,0.03 0.33,0.04 0.33,0.03 0.33,0.03 0.33,0.03 0.33,0.03 0.33,0.02 0.33,0.03 0.33,0.02 0.33,0.03 0.33,0.02 0.33,0.02 0.33,0.02 0.33,0.02 0.33,0.01 0.33,0.02 0.33,0.01 0.33,0.02 0.33,0.01 0.33,0.01 0.33,0.01 0.33,0.01 0.33,0.01 0.33,0 0.33,0.01 0.33,0.01 0.33,0 0.33,0 0.33,0.01 0.33,0 0.33,0 0.33,0 0.33,0 0.33,0 0.33,0 0.33,0 0.33,0 0.33,-0.01 0.33,0 0.33,0 0.33,-0.01 0.33,0 0.33,0 0.33,0 0.33,-0.01 0.33,0 0.33,0 0.33,0 0.33,-0.01 0.33,0 0.33,0 0.33,0 0.33,0 0.33,0 0.33,0.01 0.33,0 0.33,0 0.33,0.01 0.33,0.01 0.33,0.01 0.32,0.02 0.33,0.02 0.33,0.02 0.33,0.03 0.33,0.03 0.33,0.04 0.33,0.05 0.33,0.07 0.33,0.08 0.33,0.11 0.33,0.14 0.33,0.18 0.33,0.27 0.33,0.41 0.33,0.68 0.33,1.35 0.33,3.91 0.33,123.94 0.33,-2.49 0.33,-2.46 0.33,-2.43 0.33,-2.41 0.33,-2.39 0.33,-2.37 0.33,-2.33 0.33,-2.31 0.33,-2.28 0.33,-2.26 0.33,-2.22 0.33,-2.2 0.33,-2.17 0.33,-2.14 0.33,-2.1 0.33,-2.08 0.33,-2.05 0.33,-2.01 0.33,-1.99 0.33,-1.95 0.33,-1.93 0.33,-1.89 0.33,-1.86 0.33,-1.83 0.33,-1.8 0.33,-1.77 0.33,-1.74 0.33,-1.71 0.33,-1.68 0.33,-1.65 0.33,-1.61 0.33,-1.59 0.33,-1.56 0.33,-1.53 0.33,-1.5 0.33,-1.47 0.33,-1.44 0.33,-1.42 0.33,-1.38 0.33,-1.36 0.33,-1.34 0.33,-1.3 0.33,-1.28 0.33,-1.25 0.33,-1.22 0.33,-1.2 0.33,-1.18 0.33,-1.15 0.33,-1.12 0.33,-1.1 0.33,-1.08 0.33,-1.05 0.33,-1.03 0.33,-1.01 0.33,-0.99 0.33,-0.96 0.33,-0.94 0.33,-0.92 0.33,-0.9 0.33,-0.88 0.33,-0.86 0.33,-0.84 0.33,-0.82 0.33,-0.8 0.33,-0.78 0.33,-0.76 0.33,-0.75 0.33,-0.72 0.33,-0.71 0.33,-0.7 0.33,-0.67 0.33,-0.66 0.33,-0.65 0.33,-0.63 0.33,-0.61 0.33,-0.6 0.33,-0.58 0.33,-0.57 0.33,-0.56 0.33,-0.54 0.33,-0.52 0.33,-0.52 0.33,-0.5 0.33,-0.49 0.33,-0.47 0.33,-0.47 0.33,-0.45 0.33,-0.44 0.33,-0.43 0.33,-0.42 0.33,-0.41 0.33,-0.4 0.33,-0.38 0.33,-0.38 0.33,-0.37 0.33,-0.35 0.33,-0.35 0.33,-0.34 0.33,-0.33 0.33,-0.32 0.33,-0.31 0.33,-0.31 0.33,-0.3 0.33,-0.28 0.33,-0.29 0.33,-0.27 0.33,-0.26 0.33,-0.26 0.33,-0.25 0.33,-0.25 0.33,-0.24 0.33,-0.23 0.33,-0.23 0.33,-0.22 0.33,-0.21 0.33,-0.21 0.33,-0.2 0.32,-0.19 0.33,-0.2 0.33,-0.18 0.33,-0.18 0.33,-0.18 0.33,-0.17 0.33,-0.16 0.33,-0.16 0.33,-0.16 0.33,-0.15 0.33,-0.15 0.33,-0.15 0.33,-0.14 0.33,-0.13 0.33,-0.13 0.33,-0.13 0.33,-0.13 0.33,-0.12 0.33,-0.12 0.33,-0.11 0.33,-0.11 0.33,-0.11 0.33,-0.11 0.33,-0.1 0.33,-0.1 0.33,-0.09 0.33,-0.1 0.33,-0.09 0.33,-0.09 0.33,-0.08 0.33,-0.08 0.33,-0.09 0.33,-0.07 0.33,-0.08 0.33,-0.07 0.33,-0.08 0.33,-0.07 0.33,-0.06 0.33,-0.07 0.33,-0.06 0.33,-0.07 0.33,-0.06 0.33,-0.05 0.33,-0.06 0.33,-0.06 0.33,-0.05 0.33,-0.05 0.33,-0.05 0.33,-0.05 0.33,-0.05 0.33,-0.04 0.33,-0.05 0.33,-0.04 0.33,-0.04 0.33,-0.04 0.33,-0.04 0.33,-0.04 0.33,-0.04 0.33,-0.03 0.33,-0.04 0.33,-0.03 0.33,-0.04 0.33,-0.03 0.33,-0.03 0.33,-0.03 0.33,-0.03 0.33,-0.03 0.33,-0.03 0.33,-0.02 0.33,-0.03 0.33,-0.02 0.33,-0.03 0.33,-0.02 0.33,-0.02 0.33,-0.03 0.33,-0.02 0.33,-0.02 0.33,-0.02 0.33,-0.02 0.33,-0.02 0.33,-0.02 0.33,-0.01 0.33,-0.02"
           inkscape:connector-curvature="0"
           id="path114"
           style="fill:none;stroke:#abb065;stroke-width:0.75;stroke-linecap:round;stroke-linejoin:round;stroke-miterlimit:10;stroke-opacity:1;stroke-dasharray:none" /><path
           d="m 36.76,45.69 0.33,0.01 0.33,0.02 0.33,0.01 0.33,0.03 0.33,0.02 0.33,0.03 0.33,0.03 0.33,0.03 0.33,0.03 0.33,0.03 0.33,0.04 0.33,0.03 0.33,0.04 0.33,0.03 0.33,0.04 0.33,0.04 0.33,0.04 0.33,0.03 0.33,0.04 0.33,0.04 0.33,0.04 0.33,0.04 0.33,0.03 0.33,0.04 0.33,0.04 0.33,0.04 0.33,0.05 0.33,0.04 0.33,0.04 0.33,0.05 0.33,0.05 0.33,0.05 0.33,0.05 0.33,0.06 0.33,0.07 0.33,0.07 0.33,0.09 0.33,0.1 0.33,0.11 0.33,0.14 0.33,0.16 0.33,0.22 0.33,0.28 0.33,0.39 0.33,0.58 0.33,0.94 0.33,1.83 0.33,5.07 0.33,82.51 0.33,-0.11 0.33,-0.18 0.33,-0.25 0.33,-0.31 0.33,-0.37 0.33,-0.43 0.33,-0.49 0.33,-0.54 0.33,-0.59 0.33,-0.64 0.33,-0.68 0.33,-0.72 0.33,-0.77 0.33,-0.8 0.33,-0.83 0.33,-0.87 0.33,-0.89 0.33,-0.92 0.33,-0.95 0.33,-0.97 0.33,-0.99 0.33,-1.01 0.33,-1.03 0.33,-1.04 0.33,-1.06 0.33,-1.07 0.33,-1.08 0.33,-1.09 0.33,-1.09 0.33,-1.1 0.33,-1.11 0.33,-1.11 0.32,-1.11 0.33,-1.12 0.33,-1.11 0.33,-1.11 0.33,-1.11 0.33,-1.11 0.33,-1.1 0.33,-1.1 0.33,-1.09 0.33,-1.09 0.33,-1.08 0.33,-1.07 0.33,-1.07 0.33,-1.05 0.33,-1.05 0.33,-1.04 0.33,-1.02 0.33,-1.02 0.33,-1 0.33,-1 0.33,-0.98 0.33,-0.97 0.33,-0.96 0.33,-0.94 0.33,-0.93 0.33,-0.92 0.33,-0.91 0.33,-0.89 0.33,-0.88 0.33,-0.87 0.33,-0.85 0.33,-0.84 0.33,-0.83 0.33,-0.81 0.33,-0.8 0.33,-0.79 0.33,-0.77 0.33,-0.76 0.33,-0.74 0.33,-0.73 0.33,-0.72 0.33,-0.7 0.33,-0.7 0.33,-0.67 0.33,-0.67 0.33,-0.65 0.33,-0.64 0.33,-0.62 0.33,-0.62 0.33,-0.6 0.33,-0.59 0.33,-0.57 0.33,-0.57 0.33,-0.55 0.33,-0.54 0.33,-0.53 0.33,-0.51 0.33,-0.51 0.33,-0.49 0.33,-0.49 0.33,-0.47 0.33,-0.46 0.33,-0.45 0.33,-0.45 0.33,-0.43 0.33,-0.42 0.33,-0.41 0.33,-0.4 0.33,-0.39 0.33,-0.39 0.33,-0.37 0.33,-0.37 0.33,-0.35 0.33,-0.35 0.33,-0.34 0.33,-0.33 0.33,-0.32 0.33,-0.32 0.33,-0.3 0.33,-0.3 0.33,-0.29 0.33,-0.29 0.33,-0.27 0.33,-0.27 0.33,-0.27 0.33,-0.25 0.33,-0.25 0.33,-0.25 0.33,-0.23 0.33,-0.23 0.33,-0.23 0.33,-0.22 0.33,-0.21 0.33,-0.21 0.33,-0.2 0.33,-0.2 0.33,-0.19 0.33,-0.19 0.33,-0.18 0.33,-0.17 0.33,-0.17 0.33,-0.17 0.33,-0.16 0.33,-0.16 0.33,-0.16 0.33,-0.15 0.33,-0.14 0.33,-0.14 0.33,-0.14 0.33,-0.13 0.33,-0.13 0.33,-0.13 0.33,-0.12 0.33,-0.12 0.33,-0.12 0.33,-0.11 0.33,-0.11 0.33,-0.11 0.33,-0.1 0.33,-0.1 0.33,-0.1 0.33,-0.09 0.33,-0.09 0.33,-0.09 0.33,-0.09 0.33,-0.09 0.33,-0.08 0.33,-0.08 0.33,-0.07 0.33,-0.08 0.33,-0.07 0.33,-0.07 0.33,-0.07 0.33,-0.07 0.33,-0.06 0.32,-0.07 0.33,-0.06 0.33,-0.06 0.33,-0.05 0.33,-0.06 0.33,-0.05 0.33,-0.06 0.33,-0.05 0.33,-0.05 0.33,-0.04 0.33,-0.05 0.33,-0.05 0.33,-0.04 0.33,-0.04 0.33,-0.04 0.33,-0.04 0.33,-0.04 0.33,-0.04 0.33,-0.04 0.33,-0.03 0.33,-0.04 0.33,-0.03 0.33,-0.03 0.33,-0.03 0.33,-0.03 0.33,-0.03 0.33,-0.03 0.33,-0.03 0.33,-0.02 0.33,-0.03 0.33,-0.03 0.33,-0.02 0.33,-0.02 0.33,-0.03 0.33,-0.02 0.33,-0.02 0.33,-0.02 0.33,-0.02 0.33,-0.02 0.33,-0.02 0.33,-0.02 0.33,-0.02 0.33,-0.01 0.33,-0.02 0.33,-0.02 0.33,-0.01 0.33,-0.02 0.33,-0.01 0.33,-0.01 0.33,-0.02 0.33,-0.01 0.33,-0.01 0.33,-0.02 0.33,-0.01 0.33,-0.01 0.33,-0.01 0.33,-0.01 0.33,-0.01 0.33,-0.01 0.33,-0.01 0.33,-0.01 0.33,-0.01 0.33,-0.01 0.33,-0.01 0.33,-0.01 0.33,-0.01 0.33,-0.01 0.33,0 0.33,-0.01 0.33,-0.01 0.33,-0.01 0.33,0 0.33,-0.01 0.33,0 0.33,-0.01 0.33,-0.01 0.33,0 0.33,-0.01 0.33,0 0.33,-0.01 0.33,0 0.33,-0.01 0.33,0"
           inkscape:connector-curvature="0"
           id="path116"
           style="fill:none;stroke:#39beb1;stroke-width:0.75;stroke-linecap:round;stroke-linejoin:round;stroke-miterlimit:10;stroke-opacity:1;stroke-dasharray:none" /><path
           d="m 36.76,45.7 0.33,0.07 0.33,0.36 0.33,1.51 0.33,5.79 0.33,2.76 0.33,3.05 0.33,3.28 0.33,3.48 0.33,3.64 0.33,3.76 0.33,3.86 0.33,3.93 0.33,3.96 0.33,-5.59 0.33,-3.6 0.33,-3.41 0.33,-3.19 0.33,-2.93 0.33,-2.67 0.33,-2.4 0.33,-2.14 0.33,-1.89 0.33,-1.67 0.33,-1.46 0.33,-1.26 0.33,-1.1 0.33,-0.94 0.33,-0.81 0.33,-0.71 0.33,0.11 0.33,0.11 0.33,0.11 0.33,0.1 0.33,0.11 0.33,0.1 0.33,0.11 0.33,0.1 0.33,0.11 0.33,0.11 0.33,0.11 0.33,0.12 0.33,0.13 0.33,0.14 0.33,0.15 0.33,0.17 0.33,0.19 0.33,0.22 0.33,0.26 0.33,0.31 0.33,0.37 0.33,0.46 0.33,0.6 0.33,0.78 0.33,1.08 0.33,1.58 0.33,2.51 0.33,4.59 0.33,10.94 0.33,58.98 0.33,-0.51 0.33,-0.56 0.33,-0.59 0.33,-0.64 0.33,-0.67 0.33,-0.7 0.33,-0.74 0.33,-0.76 0.33,-0.8 0.33,-0.82 0.33,-0.85 0.33,-0.87 0.33,-0.89 0.33,-0.91 0.33,-0.92 0.33,-0.94 0.33,-0.96 0.33,-0.97 0.33,-0.98 0.33,-0.99 0.33,-1 0.33,-1.01 0.32,-1.01 0.33,-1.02 0.33,-1.02 0.33,-1.03 0.33,-1.02 0.33,-1.03 0.33,-1.03 0.33,-1.02 0.33,-1.03 0.33,-1.02 0.33,-1.02 0.33,-1.01 0.33,-1.02 0.33,-1 0.33,-1 0.33,-0.99 0.33,-0.99 0.33,-0.98 0.33,-0.97 0.33,-0.96 0.33,-0.95 0.33,-0.95 0.33,-0.93 0.33,-0.93 0.33,-0.91 0.33,-0.91 0.33,-0.89 0.33,-0.89 0.33,-0.87 0.33,-0.86 0.33,-0.85 0.33,-0.84 0.33,-0.83 0.33,-0.81 0.33,-0.8 0.33,-0.8 0.33,-0.78 0.33,-0.76 0.33,-0.76 0.33,-0.74 0.33,-0.74 0.33,-0.71 0.33,-0.71 0.33,-0.7 0.33,-0.68 0.33,-0.67 0.33,-0.66 0.33,-0.65 0.33,-0.64 0.33,-0.62 0.33,-0.62 0.33,-0.6 0.33,-0.59 0.33,-0.58 0.33,-0.57 0.33,-0.55 0.33,-0.55 0.33,-0.54 0.33,-0.52 0.33,-0.51 0.33,-0.51 0.33,-0.49 0.33,-0.48 0.33,-0.48 0.33,-0.46 0.33,-0.45 0.33,-0.45 0.33,-0.43 0.33,-0.43 0.33,-0.41 0.33,-0.41 0.33,-0.39 0.33,-0.39 0.33,-0.38 0.33,-0.37 0.33,-0.37 0.33,-0.35 0.33,-0.35 0.33,-0.34 0.33,-0.33 0.33,-0.32 0.33,-0.32 0.33,-0.31 0.33,-0.3 0.33,-0.29 0.33,-0.29 0.33,-0.28 0.33,-0.27 0.33,-0.27 0.33,-0.26 0.33,-0.26 0.33,-0.24 0.33,-0.25 0.33,-0.23 0.33,-0.23 0.33,-0.23 0.33,-0.22 0.33,-0.21 0.33,-0.21 0.33,-0.2 0.33,-0.2 0.33,-0.19 0.33,-0.19 0.33,-0.19 0.33,-0.17 0.33,-0.18 0.33,-0.17 0.33,-0.16 0.33,-0.16 0.33,-0.16 0.33,-0.15 0.33,-0.15 0.33,-0.15 0.33,-0.14 0.33,-0.14 0.33,-0.13 0.33,-0.13 0.33,-0.13 0.33,-0.12 0.33,-0.12 0.33,-0.12 0.33,-0.11 0.33,-0.11 0.33,-0.11 0.33,-0.11 0.33,-0.1 0.33,-0.1 0.33,-0.1 0.33,-0.09 0.33,-0.09 0.33,-0.09 0.33,-0.09 0.33,-0.08 0.33,-0.08 0.33,-0.08 0.32,-0.08 0.33,-0.08 0.33,-0.07 0.33,-0.07 0.33,-0.07 0.33,-0.07 0.33,-0.06 0.33,-0.07 0.33,-0.06 0.33,-0.06 0.33,-0.06 0.33,-0.05 0.33,-0.06 0.33,-0.05 0.33,-0.05 0.33,-0.05 0.33,-0.05 0.33,-0.05 0.33,-0.05 0.33,-0.04 0.33,-0.05 0.33,-0.04 0.33,-0.04 0.33,-0.04 0.33,-0.04 0.33,-0.04 0.33,-0.03 0.33,-0.04 0.33,-0.04 0.33,-0.03 0.33,-0.03 0.33,-0.03 0.33,-0.03 0.33,-0.03 0.33,-0.03 0.33,-0.03 0.33,-0.03 0.33,-0.03 0.33,-0.02 0.33,-0.03 0.33,-0.02 0.33,-0.02 0.33,-0.03 0.33,-0.02 0.33,-0.02 0.33,-0.02 0.33,-0.02 0.33,-0.02 0.33,-0.02 0.33,-0.02 0.33,-0.02 0.33,-0.02 0.33,-0.01 0.33,-0.02 0.33,-0.02 0.33,-0.01 0.33,-0.02 0.33,-0.01 0.33,-0.02 0.33,-0.01 0.33,-0.01 0.33,-0.02 0.33,-0.01 0.33,-0.01 0.33,-0.01 0.33,-0.01 0.33,-0.01 0.33,-0.01 0.33,-0.02 0.33,-0.01 0.33,-0.01 0.33,0 0.33,-0.01 0.33,-0.01 0.33,-0.01 0.33,-0.01 0.33,-0.01 0.33,-0.01 0.33,0 0.33,-0.01 0.33,-0.01 0.33,-0.01 0.33,0"
           inkscape:connector-curvature="0"
           id="path118"
           style="fill:none;stroke:#aca4e2;stroke-width:0.75;stroke-linecap:round;stroke-linejoin:round;stroke-miterlimit:10;stroke-opacity:1;stroke-dasharray:none" /></g></g><g
       id="g120"><g
         clip-path="url(#clipPath124)"
         id="g122" /></g><g
       id="g128"><path
         d="m 192.43,40.39 98.98,0"
         inkscape:connector-curvature="0"
         id="path130"
         style="fill:none;stroke:#000000;stroke-width:0.75;stroke-linecap:round;stroke-linejoin:round;stroke-miterlimit:10;stroke-opacity:1;stroke-dasharray:none" /><path
         d="m 192.43,40.39 0,-3.96"
         inkscape:connector-curvature="0"
         id="path132"
         style="fill:none;stroke:#000000;stroke-width:0.75;stroke-linecap:round;stroke-linejoin:round;stroke-miterlimit:10;stroke-opacity:1;stroke-dasharray:none" /><path
         d="m 208.93,40.39 0,-3.96"
         inkscape:connector-curvature="0"
         id="path134"
         style="fill:none;stroke:#000000;stroke-width:0.75;stroke-linecap:round;stroke-linejoin:round;stroke-miterlimit:10;stroke-opacity:1;stroke-dasharray:none" /><path
         d="m 225.42,40.39 0,-3.96"
         inkscape:connector-curvature="0"
         id="path136"
         style="fill:none;stroke:#000000;stroke-width:0.75;stroke-linecap:round;stroke-linejoin:round;stroke-miterlimit:10;stroke-opacity:1;stroke-dasharray:none" /><path
         d="m 241.92,40.39 0,-3.96"
         inkscape:connector-curvature="0"
         id="path138"
         style="fill:none;stroke:#000000;stroke-width:0.75;stroke-linecap:round;stroke-linejoin:round;stroke-miterlimit:10;stroke-opacity:1;stroke-dasharray:none" /><path
         d="m 258.42,40.39 0,-3.96"
         inkscape:connector-curvature="0"
         id="path140"
         style="fill:none;stroke:#000000;stroke-width:0.75;stroke-linecap:round;stroke-linejoin:round;stroke-miterlimit:10;stroke-opacity:1;stroke-dasharray:none" /><path
         d="m 274.91,40.39 0,-3.96"
         inkscape:connector-curvature="0"
         id="path142"
         style="fill:none;stroke:#000000;stroke-width:0.75;stroke-linecap:round;stroke-linejoin:round;stroke-miterlimit:10;stroke-opacity:1;stroke-dasharray:none" /><path
         d="m 291.41,40.39 0,-3.96"
         inkscape:connector-curvature="0"
         id="path144"
         style="fill:none;stroke:#000000;stroke-width:0.75;stroke-linecap:round;stroke-linejoin:round;stroke-miterlimit:10;stroke-opacity:1;stroke-dasharray:none" /><text
         transform="matrix(1,0,0,-1,190.49,26.14)"
         id="text146"><tspan
           x="0"
           y="0"
           id="tspan148"
           style="font-size:7px;font-variant:normal;font-weight:normal;writing-mode:lr-tb;fill:#000000;fill-opacity:1;fill-rule:nonzero;stroke:none;font-family:Helvetica;-inkscape-font-specification:Helvetica">0</tspan></text>
<text
         transform="matrix(1,0,0,-1,205.04,26.14)"
         id="text150"><tspan
           x="0 3.892"
           y="0"
           id="tspan152"
           style="font-size:7px;font-variant:normal;font-weight:normal;writing-mode:lr-tb;fill:#000000;fill-opacity:1;fill-rule:nonzero;stroke:none;font-family:Helvetica;-inkscape-font-specification:Helvetica">50</tspan></text>
<text
         transform="matrix(1,0,0,-1,219.59,26.14)"
         id="text154"><tspan
           x="0 3.892 7.7839999"
           y="0"
           id="tspan156"
           style="font-size:7px;font-variant:normal;font-weight:normal;writing-mode:lr-tb;fill:#000000;fill-opacity:1;fill-rule:nonzero;stroke:none;font-family:Helvetica;-inkscape-font-specification:Helvetica">100</tspan></text>
<text
         transform="matrix(1,0,0,-1,252.58,26.14)"
         id="text158"><tspan
           x="0 3.892 7.7839999"
           y="0"
           id="tspan160"
           style="font-size:7px;font-variant:normal;font-weight:normal;writing-mode:lr-tb;fill:#000000;fill-opacity:1;fill-rule:nonzero;stroke:none;font-family:Helvetica;-inkscape-font-specification:Helvetica">200</tspan></text>
<text
         transform="matrix(1,0,0,-1,285.57,26.14)"
         id="text162"><tspan
           x="0 3.892 7.7839999"
           y="0"
           id="tspan164"
           style="font-size:7px;font-variant:normal;font-weight:normal;writing-mode:lr-tb;fill:#000000;fill-opacity:1;fill-rule:nonzero;stroke:none;font-family:Helvetica;-inkscape-font-specification:Helvetica">300</tspan></text>
<path
         d="m 188.47,45.69 0,127.14"
         inkscape:connector-curvature="0"
         id="path166"
         style="fill:none;stroke:#000000;stroke-width:0.75;stroke-linecap:round;stroke-linejoin:round;stroke-miterlimit:10;stroke-opacity:1;stroke-dasharray:none" /><path
         d="m 188.47,45.69 -3.96,0"
         inkscape:connector-curvature="0"
         id="path168"
         style="fill:none;stroke:#000000;stroke-width:0.75;stroke-linecap:round;stroke-linejoin:round;stroke-miterlimit:10;stroke-opacity:1;stroke-dasharray:none" /><path
         d="m 188.47,66.88 -3.96,0"
         inkscape:connector-curvature="0"
         id="path170"
         style="fill:none;stroke:#000000;stroke-width:0.75;stroke-linecap:round;stroke-linejoin:round;stroke-miterlimit:10;stroke-opacity:1;stroke-dasharray:none" /><path
         d="m 188.47,88.07 -3.96,0"
         inkscape:connector-curvature="0"
         id="path172"
         style="fill:none;stroke:#000000;stroke-width:0.75;stroke-linecap:round;stroke-linejoin:round;stroke-miterlimit:10;stroke-opacity:1;stroke-dasharray:none" /><path
         d="m 188.47,109.26 -3.96,0"
         inkscape:connector-curvature="0"
         id="path174"
         style="fill:none;stroke:#000000;stroke-width:0.75;stroke-linecap:round;stroke-linejoin:round;stroke-miterlimit:10;stroke-opacity:1;stroke-dasharray:none" /><path
         d="m 188.47,130.45 -3.96,0"
         inkscape:connector-curvature="0"
         id="path176"
         style="fill:none;stroke:#000000;stroke-width:0.75;stroke-linecap:round;stroke-linejoin:round;stroke-miterlimit:10;stroke-opacity:1;stroke-dasharray:none" /><path
         d="m 188.47,151.64 -3.96,0"
         inkscape:connector-curvature="0"
         id="path178"
         style="fill:none;stroke:#000000;stroke-width:0.75;stroke-linecap:round;stroke-linejoin:round;stroke-miterlimit:10;stroke-opacity:1;stroke-dasharray:none" /><path
         d="m 188.47,172.83 -3.96,0"
         inkscape:connector-curvature="0"
         id="path180"
         style="fill:none;stroke:#000000;stroke-width:0.75;stroke-linecap:round;stroke-linejoin:round;stroke-miterlimit:10;stroke-opacity:1;stroke-dasharray:none" /><text
         transform="matrix(0,1,1,0,178.97,38.88)"
         id="text182"><tspan
           x="0 3.892 5.8379998 9.7299995"
           y="0"
           id="tspan184"
           style="font-size:7px;font-variant:normal;font-weight:normal;writing-mode:lr-tb;fill:#000000;fill-opacity:1;fill-rule:nonzero;stroke:none;font-family:Helvetica;-inkscape-font-specification:Helvetica">0.00</tspan></text>
<text
         transform="matrix(0,1,1,0,178.97,60.07)"
         id="text186"><tspan
           x="0 3.892 5.8379998 9.7299995"
           y="0"
           id="tspan188"
           style="font-size:7px;font-variant:normal;font-weight:normal;writing-mode:lr-tb;fill:#000000;fill-opacity:1;fill-rule:nonzero;stroke:none;font-family:Helvetica;-inkscape-font-specification:Helvetica">0.01</tspan></text>
<text
         transform="matrix(0,1,1,0,178.97,81.26)"
         id="text190"><tspan
           x="0 3.892 5.8379998 9.7299995"
           y="0"
           id="tspan192"
           style="font-size:7px;font-variant:normal;font-weight:normal;writing-mode:lr-tb;fill:#000000;fill-opacity:1;fill-rule:nonzero;stroke:none;font-family:Helvetica;-inkscape-font-specification:Helvetica">0.02</tspan></text>
<text
         transform="matrix(0,1,1,0,178.97,102.45)"
         id="text194"><tspan
           x="0 3.892 5.8379998 9.7299995"
           y="0"
           id="tspan196"
           style="font-size:7px;font-variant:normal;font-weight:normal;writing-mode:lr-tb;fill:#000000;fill-opacity:1;fill-rule:nonzero;stroke:none;font-family:Helvetica;-inkscape-font-specification:Helvetica">0.03</tspan></text>
<text
         transform="matrix(0,1,1,0,178.97,123.64)"
         id="text198"><tspan
           x="0 3.892 5.8379998 9.7299995"
           y="0"
           id="tspan200"
           style="font-size:7px;font-variant:normal;font-weight:normal;writing-mode:lr-tb;fill:#000000;fill-opacity:1;fill-rule:nonzero;stroke:none;font-family:Helvetica;-inkscape-font-specification:Helvetica">0.04</tspan></text>
<text
         transform="matrix(0,1,1,0,178.97,144.83)"
         id="text202"><tspan
           x="0 3.892 5.8379998 9.7299995"
           y="0"
           id="tspan204"
           style="font-size:7px;font-variant:normal;font-weight:normal;writing-mode:lr-tb;fill:#000000;fill-opacity:1;fill-rule:nonzero;stroke:none;font-family:Helvetica;-inkscape-font-specification:Helvetica">0.05</tspan></text>
<text
         transform="matrix(0,1,1,0,178.97,166.02)"
         id="text206"><tspan
           x="0 3.892 5.8379998 9.7299995"
           y="0"
           id="tspan208"
           style="font-size:7px;font-variant:normal;font-weight:normal;writing-mode:lr-tb;fill:#000000;fill-opacity:1;fill-rule:nonzero;stroke:none;font-family:Helvetica;-inkscape-font-specification:Helvetica">0.06</tspan></text>
<path
         d="m 188.47,40.39 106.9,0 0,143.14 -106.9,0 0,-143.14"
         inkscape:connector-curvature="0"
         id="path210"
         style="fill:none;stroke:#000000;stroke-width:0.75;stroke-linecap:round;stroke-linejoin:round;stroke-miterlimit:10;stroke-opacity:1;stroke-dasharray:none" /></g><g
       id="g212"><g
         clip-path="url(#clipPath216)"
         id="g214"><text
           transform="matrix(1,0,0,-1,200.88,196.89)"
           id="text220"><tspan
             x="0 4.368 9.3360004 13.784 16.007999 20.896 23.120001 27.568001 30.232 33.344002 35.568001 40.296001 45.183998 47.848 50.071999 54.959999 59.848 62.071999 64.295998 68.744003 70.968002 75.416"
             y="0"
             id="tspan222"
             style="font-size:8px;font-variant:normal;font-weight:bold;writing-mode:lr-tb;fill:#000000;fill-opacity:1;fill-rule:nonzero;stroke:none;font-family:Helvetica;-inkscape-font-specification:Helvetica-Bold">age distribution, 5 cM</tspan></text>
<text
           transform="matrix(1,0,0,-1,216.86,10.3)"
           id="text224"><tspan
             x="0 3.892 7.7839999 11.676 15.568 17.829 21.721001 23.667 25.221001 29.113001 33.005001 36.505001 38.451 42.342999 46.235001"
             y="0"
             id="tspan226"
             style="font-size:7px;font-variant:normal;font-weight:normal;writing-mode:lr-tb;fill:#000000;fill-opacity:1;fill-rule:nonzero;stroke:none;font-family:Helvetica;-inkscape-font-specification:Helvetica">generations ago</tspan></text>
<text
           transform="matrix(0,1,1,0,163.13,100.87)"
           id="text228"><tspan
             x="0 3.892 7.7839999 11.676 15.176 16.73 18.676001"
             y="0"
             id="tspan230"
             style="font-size:7px;font-variant:normal;font-weight:normal;writing-mode:lr-tb;fill:#000000;fill-opacity:1;fill-rule:nonzero;stroke:none;font-family:Helvetica;-inkscape-font-specification:Helvetica">density</tspan></text>
</g></g><g
       id="g232"><g
         clip-path="url(#clipPath236)"
         id="g234"><path
           d="m 195.73,40.39 0,143.14"
           inkscape:connector-curvature="0"
           id="path240"
           style="fill:none;stroke:#000000;stroke-width:0.75;stroke-linecap:round;stroke-linejoin:round;stroke-miterlimit:10;stroke-opacity:1;stroke-dasharray:2.25, 3.75;stroke-dashoffset:0" /><path
           d="m 193.09,47.63 0.66,3.56 0.66,4.62 0.66,5.26 0.66,5.54 0.66,5.57 0.66,5.39 0.66,5.08 0.66,4.67 0.66,4.19 0.66,3.68 0.66,3.14 0.66,2.61 0.66,2.1 0.66,1.6 0.66,1.13 0.66,0.7 0.66,0.3 0.66,-0.06 0.66,-0.38 0.66,-0.67 0.66,-0.92 0.66,-1.14 0.66,-1.32 0.66,-1.47 0.66,-1.61 0.66,-1.7 0.66,-1.78 0.66,-1.84 0.66,-1.88 0.66,-1.9 0.66,-1.9 0.66,-1.9 0.66,-1.89 0.66,-1.86 0.66,-1.82 0.66,-1.78 0.66,-1.74 0.66,-1.68 0.66,-1.64 0.66,-1.57 0.65,-1.51 0.66,-1.46 0.66,-1.39 0.66,-1.33 0.66,-1.27 0.66,-1.21 0.66,-1.15 0.66,-1.09 0.66,-1.04 0.66,-0.98 0.66,-0.92 0.66,-0.88 0.66,-0.82 0.66,-0.78 0.66,-0.73 0.66,-0.69 0.66,-0.64 0.66,-0.61 0.66,-0.57 0.66,-0.53 0.66,-0.49 0.66,-0.47 0.66,-0.43 0.66,-0.41 0.66,-0.38 0.66,-0.35 0.66,-0.33 0.66,-0.31 0.66,-0.28 0.66,-0.27 0.66,-0.25 0.66,-0.22 0.66,-0.22 0.66,-0.2 0.66,-0.18 0.66,-0.17 0.66,-0.16 0.66,-0.14 0.66,-0.14 0.66,-0.13 0.66,-0.11 0.66,-0.11 0.66,-0.1 0.66,-0.09 0.66,-0.09 0.66,-0.08 0.66,-0.07 0.66,-0.07 0.66,-0.06 0.66,-0.05 0.66,-0.06 0.66,-0.05 0.66,-0.04 0.66,-0.04 0.66,-0.04 0.66,-0.04 0.66,-0.03 0.66,-0.03 0.66,-0.03 0.66,-0.02 0.66,-0.02 0.66,-0.03 0.66,-0.01 0.66,-0.02 0.66,-0.02 0.66,-0.02 0.66,-0.01 0.65,-0.01 0.66,-0.01 0.66,-0.02 0.66,-0.01 0.66,0 0.66,-0.01 0.66,-0.01 0.66,-0.01 0.66,0 0.66,-0.01 0.66,-0.01 0.66,0 0.66,-0.01 0.66,0 0.66,0 0.66,-0.01 0.66,0 0.66,0 0.66,-0.01 0.66,0 0.66,0 0.66,0 0.66,-0.01 0.66,0 0.66,0 0.66,0 0.66,0 0.66,0 0.66,0 0.66,-0.01 0.66,0 0.66,0 0.66,0 0.66,0 0.66,0 0.66,0 0.66,0 0.66,0 0.66,0 0.66,0 0.66,0 0.66,0 0.66,0 0.66,0 0.66,0 0.66,0 0.66,0 0.66,0 0.66,0 0.66,0 0.66,0 0.66,-0.01 0.66,0 0.66,0 0.66,0 0.66,0 0.66,0 0.66,0 0.66,0 0.66,0 0.66,0 0.66,0 0.66,0 0.66,0 0.66,0 0.66,0 0.66,0 0.66,0 0.65,0 0.66,0 0.66,0 0.66,0 0.66,0 0.66,0 0.66,0 0.66,0 0.66,0 0.66,0 0.66,0 0.66,0 0.66,0 0.66,0 0.66,0 0.66,0 0.66,0 0.66,0 0.66,0 0.66,0 0.66,0 0.66,0 0.66,0 0.66,0 0.66,0 0.66,0 0.66,0 0.66,0 0.66,0 0.66,0 0.66,0 0.66,0 0.66,0 0.66,0 0.66,0 0.66,0 0.66,0 0.66,0 0.66,0 0.66,0 0.66,0 0.66,0 0.66,0 0.66,0 0.66,0 0.66,0 0.66,0 0.66,0 0.66,0 0.66,0 0.66,0 0.66,0 0.66,0 0.66,0 0.66,0 0.66,0 0.66,0 0.66,0 0.66,0 0.66,0 0.66,0 0.66,0 0.66,0 0.66,0 0.66,0 0.66,0 0.66,0 0.65,0 0.66,0 0.66,0 0.66,0 0.66,0 0.66,0 0.66,0 0.66,0 0.66,0 0.66,0 0.66,0 0.66,0 0.66,0 0.66,0 0.66,0 0.66,0 0.66,0 0.66,0 0.66,0 0.66,0 0.66,0 0.66,0 0.66,0 0.66,0 0.66,0 0.66,0 0.66,0 0.66,0 0.66,0 0.66,0 0.66,0 0.66,0 0.66,0 0.66,0 0.66,0 0.66,0 0.66,0 0.66,0 0.66,0 0.66,0 0.66,0 0.66,0 0.66,0 0.66,0 0.66,0 0.66,0 0.66,0 0.66,0 0.66,0 0.66,0 0.66,0 0.66,0 0.66,0 0.66,0 0.66,0 0.66,0 0.66,0"
           inkscape:connector-curvature="0"
           id="path242"
           style="fill:none;stroke:#e495a5;stroke-width:0.75;stroke-linecap:round;stroke-linejoin:round;stroke-miterlimit:10;stroke-opacity:1;stroke-dasharray:none" /><path
           d="m 193.09,46.21 0.66,0.99 0.66,1.31 0.66,1.53 0.66,1.67 0.66,1.72 0.66,1.73 0.66,1.68 0.66,1.61 0.66,1.51 0.66,1.4 0.66,1.26 0.66,1.13 0.66,0.98 0.66,0.85 0.66,0.71 0.66,0.57 0.66,0.45 0.66,0.33 0.66,0.21 0.66,0.11 0.66,0.01 0.66,-0.07 0.66,-0.16 0.66,-0.22 0.66,-0.29 0.66,-0.35 0.66,-0.4 0.66,-0.43 0.66,-0.48 0.66,-0.5 0.66,-0.53 0.66,-0.55 0.66,-0.56 0.66,-0.57 0.66,-0.58 0.66,-0.58 0.66,-0.59 0.66,-0.58 0.66,-0.58 0.66,-0.57 0.65,-0.56 0.66,-0.55 0.66,-0.54 0.66,-0.52 0.66,-0.52 0.66,-0.49 0.66,-0.49 0.66,-0.47 0.66,-0.45 0.66,-0.43 0.66,-0.42 0.66,-0.41 0.66,-0.39 0.66,-0.37 0.66,-0.35 0.66,-0.35 0.66,-0.32 0.66,-0.31 0.66,-0.3 0.66,-0.28 0.66,-0.27 0.66,-0.25 0.66,-0.25 0.66,-0.22 0.66,-0.22 0.66,-0.21 0.66,-0.19 0.66,-0.19 0.66,-0.17 0.66,-0.16 0.66,-0.16 0.66,-0.14 0.66,-0.14 0.66,-0.13 0.66,-0.11 0.66,-0.12 0.66,-0.1 0.66,-0.09 0.66,-0.09 0.66,-0.08 0.66,-0.08 0.66,-0.07 0.66,-0.06 0.66,-0.05 0.66,-0.04 0.66,-0.04 0.66,-0.03 0.66,-0.02 0.66,-0.01 0.66,0.01 0.66,0.02 0.66,0.05 0.66,0.08 0.66,0.13 0.66,0.21 0.66,0.39 0.66,0.79 0.66,2.35 0.66,75.21 0.66,-5.37 0.66,-5.03 0.66,-4.71 0.66,-4.4 0.66,-4.11 0.66,-3.85 0.66,-3.59 0.66,-3.36 0.65,-3.13 0.66,-2.93 0.66,-2.74 0.66,-2.56 0.66,-2.38 0.66,-2.23 0.66,-2.08 0.66,-1.93 0.66,-1.81 0.66,-1.69 0.66,-1.57 0.66,-1.47 0.66,-1.37 0.66,-1.27 0.66,-1.19 0.66,-1.11 0.66,-1.03 0.66,-0.96 0.66,-0.9 0.66,-0.83 0.66,-0.78 0.66,-0.72 0.66,-0.68 0.66,-0.63 0.66,-0.58 0.66,-0.54 0.66,-0.51 0.66,-0.47 0.66,-0.44 0.66,-0.41 0.66,-0.38 0.66,-0.35 0.66,-0.33 0.66,-0.3 0.66,-0.29 0.66,-0.26 0.66,-0.24 0.66,-0.23 0.66,-0.21 0.66,-0.2 0.66,-0.19 0.66,-0.17 0.66,-0.15 0.66,-0.15 0.66,-0.14 0.66,-0.12 0.66,-0.12 0.66,-0.11 0.66,-0.1 0.66,-0.1 0.66,-0.09 0.66,-0.08 0.66,-0.07 0.66,-0.07 0.66,-0.07 0.66,-0.06 0.66,-0.06 0.66,-0.05 0.66,-0.05 0.66,-0.04 0.66,-0.04 0.66,-0.04 0.66,-0.04 0.66,-0.03 0.66,-0.03 0.66,-0.03 0.66,-0.03 0.66,-0.02 0.65,-0.02 0.66,-0.03 0.66,-0.02 0.66,-0.01 0.66,-0.02 0.66,-0.02 0.66,-0.01 0.66,-0.01 0.66,-0.02 0.66,-0.01 0.66,-0.01 0.66,-0.01 0.66,-0.01 0.66,-0.01 0.66,-0.01 0.66,0 0.66,-0.01 0.66,-0.01 0.66,0 0.66,-0.01 0.66,0 0.66,-0.01 0.66,0 0.66,-0.01 0.66,0 0.66,0 0.66,-0.01 0.66,0 0.66,0 0.66,0 0.66,-0.01 0.66,0 0.66,0 0.66,0 0.66,0 0.66,-0.01 0.66,0 0.66,0 0.66,0 0.66,0 0.66,0 0.66,0 0.66,0 0.66,-0.01 0.66,0 0.66,0 0.66,0 0.66,0 0.66,0 0.66,0 0.66,0 0.66,0 0.66,0 0.66,0 0.66,0 0.66,0 0.66,0 0.66,0 0.66,0 0.66,0 0.66,0 0.66,0 0.66,0 0.66,0 0.66,0 0.66,0 0.66,0 0.65,0 0.66,-0.01 0.66,0 0.66,0 0.66,0 0.66,0 0.66,0 0.66,0 0.66,0 0.66,0 0.66,0 0.66,0 0.66,0 0.66,0 0.66,0 0.66,0 0.66,0 0.66,0 0.66,0 0.66,0 0.66,0 0.66,0 0.66,0 0.66,0 0.66,0 0.66,0 0.66,0 0.66,0 0.66,0 0.66,0 0.66,0 0.66,0 0.66,0 0.66,0 0.66,0 0.66,0 0.66,0 0.66,0 0.66,0 0.66,0 0.66,0 0.66,0 0.66,0 0.66,0 0.66,0 0.66,0 0.66,0 0.66,0 0.66,0 0.66,0 0.66,0 0.66,0 0.66,0 0.66,0 0.66,0 0.66,0 0.66,0"
           inkscape:connector-curvature="0"
           id="path244"
           style="fill:none;stroke:#abb065;stroke-width:0.75;stroke-linecap:round;stroke-linejoin:round;stroke-miterlimit:10;stroke-opacity:1;stroke-dasharray:none" /><path
           d="m 193.09,45.86 0.66,0.32 0.66,0.41 0.66,0.46 0.66,0.5 0.66,0.5 0.66,0.48 0.66,0.47 0.66,0.43 0.66,0.39 0.66,0.35 0.66,0.3 0.66,0.27 0.66,0.21 0.66,0.18 0.66,0.14 0.66,0.1 0.66,0.07 0.66,0.04 0.66,0.01 0.66,-0.01 0.66,-0.03 0.66,-0.05 0.66,-0.07 0.66,-0.07 0.66,-0.09 0.66,-0.09 0.66,-0.1 0.66,-0.1 0.66,-0.1 0.66,-0.1 0.66,-0.1 0.66,-0.09 0.66,-0.08 0.66,-0.07 0.66,-0.07 0.66,-0.04 0.66,-0.03 0.66,-0.01 0.66,0.02 0.66,0.06 0.65,0.11 0.66,0.18 0.66,0.28 0.66,0.43 0.66,0.7 0.66,1.22 0.66,2.46 0.66,6.98 0.66,114.91 0.66,-8.48 0.66,-8.02 0.66,-7.57 0.66,-7.14 0.66,-6.73 0.66,-6.33 0.66,-5.96 0.66,-5.59 0.66,-5.25 0.66,-4.92 0.66,-4.62 0.66,-4.31 0.66,-4.04 0.66,-3.78 0.66,-3.52 0.66,-3.3 0.66,-3.07 0.66,-2.86 0.66,-2.67 0.66,-2.48 0.66,-2.31 0.66,-2.15 0.66,-2 0.66,-1.86 0.66,-1.72 0.66,-1.6 0.66,-1.49 0.66,-1.38 0.66,-1.27 0.66,-1.19 0.66,-1.09 0.66,-1.02 0.66,-0.94 0.66,-0.87 0.66,-0.8 0.66,-0.75 0.66,-0.68 0.66,-0.64 0.66,-0.59 0.66,-0.54 0.66,-0.5 0.66,-0.46 0.66,-0.43 0.66,-0.39 0.66,-0.37 0.66,-0.33 0.66,-0.31 0.66,-0.28 0.66,-0.26 0.66,-0.24 0.66,-0.23 0.66,-0.2 0.66,-0.19 0.66,-0.17 0.66,-0.16 0.66,-0.15 0.66,-0.13 0.66,-0.13 0.65,-0.11 0.66,-0.11 0.66,-0.09 0.66,-0.09 0.66,-0.08 0.66,-0.08 0.66,-0.07 0.66,-0.06 0.66,-0.06 0.66,-0.05 0.66,-0.05 0.66,-0.04 0.66,-0.05 0.66,-0.03 0.66,-0.04 0.66,-0.03 0.66,-0.03 0.66,-0.03 0.66,-0.02 0.66,-0.02 0.66,-0.02 0.66,-0.02 0.66,-0.02 0.66,-0.02 0.66,-0.01 0.66,-0.01 0.66,-0.02 0.66,-0.01 0.66,-0.01 0.66,-0.01 0.66,0 0.66,-0.01 0.66,-0.01 0.66,-0.01 0.66,0 0.66,-0.01 0.66,0 0.66,-0.01 0.66,0 0.66,-0.01 0.66,0 0.66,0 0.66,-0.01 0.66,0 0.66,0 0.66,0 0.66,0 0.66,-0.01 0.66,0 0.66,0 0.66,0 0.66,0 0.66,0 0.66,0 0.66,-0.01 0.66,0 0.66,0 0.66,0 0.66,0 0.66,0 0.66,0 0.66,0 0.66,0 0.66,0 0.66,0 0.66,0 0.66,0 0.66,0 0.65,0 0.66,0 0.66,0 0.66,0 0.66,0 0.66,0 0.66,0 0.66,-0.01 0.66,0 0.66,0 0.66,0 0.66,0 0.66,0 0.66,0 0.66,0 0.66,0 0.66,0 0.66,0 0.66,0 0.66,0 0.66,0 0.66,0 0.66,0 0.66,0 0.66,0 0.66,0 0.66,0 0.66,0 0.66,0 0.66,0 0.66,0 0.66,0 0.66,0 0.66,0 0.66,0 0.66,0 0.66,0 0.66,0 0.66,0 0.66,0 0.66,0 0.66,0 0.66,0 0.66,0 0.66,0 0.66,0 0.66,0 0.66,0 0.66,0 0.66,0 0.66,0 0.66,0 0.66,0 0.66,0 0.66,0 0.66,0 0.66,0 0.66,0 0.66,0 0.66,0 0.66,0 0.66,0 0.66,0 0.66,0 0.66,0 0.66,0 0.66,0 0.65,0 0.66,0 0.66,0 0.66,0 0.66,0 0.66,0 0.66,0 0.66,0 0.66,0 0.66,0 0.66,0 0.66,0 0.66,0 0.66,0 0.66,0 0.66,0 0.66,0 0.66,0 0.66,0 0.66,0 0.66,0 0.66,0 0.66,0 0.66,0 0.66,0 0.66,0 0.66,0 0.66,0 0.66,0 0.66,0 0.66,0 0.66,0 0.66,0 0.66,0 0.66,0 0.66,0 0.66,0 0.66,0 0.66,0 0.66,0 0.66,0 0.66,0 0.66,0 0.66,0 0.66,0 0.66,0 0.66,0 0.66,0 0.66,0 0.66,0 0.66,0 0.66,0 0.66,0 0.66,0 0.66,0 0.66,0 0.66,0"
           inkscape:connector-curvature="0"
           id="path246"
           style="fill:none;stroke:#39beb1;stroke-width:0.75;stroke-linecap:round;stroke-linejoin:round;stroke-miterlimit:10;stroke-opacity:1;stroke-dasharray:none" /><path
           d="m 193.09,45.76 0.66,0.45 0.66,2.13 0.66,8.48 0.66,30.7 0.66,12 0.66,12.01 0.66,11.74 0.66,11.21 0.66,10.52 0.66,9.7 0.66,8.8 0.66,7.85 0.66,6.88 0.66,-24.61 0.66,-16.39 0.66,-14.47 0.66,-12.62 0.66,-10.87 0.66,-9.27 0.66,-7.84 0.66,-6.58 0.66,-5.5 0.66,-4.55 0.66,-3.76 0.66,-3.09 0.66,-2.52 0.66,-2.06 0.66,-1.67 0.66,-1.37 0.66,-0.12 0.66,-0.12 0.66,-0.12 0.66,-0.13 0.66,-0.13 0.66,-0.13 0.66,-0.12 0.66,-0.13 0.66,-0.12 0.66,-0.12 0.66,-0.11 0.65,-0.11 0.66,-0.1 0.66,-0.1 0.66,-0.08 0.66,-0.08 0.66,-0.06 0.66,-0.05 0.66,-0.03 0.66,-0.01 0.66,0.01 0.66,0.05 0.66,0.09 0.66,0.15 0.66,0.25 0.66,0.4 0.66,0.69 0.66,1.33 0.66,3.25 0.66,17.81 0.66,-1.51 0.66,-1.45 0.66,-1.37 0.66,-1.31 0.66,-1.24 0.66,-1.18 0.66,-1.12 0.66,-1.07 0.66,-1 0.66,-0.96 0.66,-0.9 0.66,-0.85 0.66,-0.81 0.66,-0.77 0.66,-0.72 0.66,-0.68 0.66,-0.64 0.66,-0.61 0.66,-0.57 0.66,-0.53 0.66,-0.51 0.66,-0.48 0.66,-0.45 0.66,-0.42 0.66,-0.4 0.66,-0.37 0.66,-0.35 0.66,-0.33 0.66,-0.31 0.66,-0.29 0.66,-0.28 0.66,-0.25 0.66,-0.24 0.66,-0.23 0.66,-0.21 0.66,-0.2 0.66,-0.18 0.66,-0.18 0.66,-0.16 0.66,-0.15 0.66,-0.14 0.66,-0.14 0.66,-0.12 0.66,-0.12 0.66,-0.11 0.66,-0.1 0.66,-0.09 0.66,-0.09 0.65,-0.09 0.66,-0.07 0.66,-0.08 0.66,-0.06 0.66,-0.07 0.66,-0.06 0.66,-0.05 0.66,-0.05 0.66,-0.05 0.66,-0.05 0.66,-0.04 0.66,-0.04 0.66,-0.03 0.66,-0.04 0.66,-0.03 0.66,-0.03 0.66,-0.03 0.66,-0.02 0.66,-0.03 0.66,-0.02 0.66,-0.02 0.66,-0.02 0.66,-0.02 0.66,-0.01 0.66,-0.02 0.66,-0.01 0.66,-0.02 0.66,-0.01 0.66,-0.01 0.66,-0.01 0.66,-0.01 0.66,-0.01 0.66,-0.01 0.66,-0.01 0.66,-0.01 0.66,0 0.66,-0.01 0.66,-0.01 0.66,0 0.66,-0.01 0.66,0 0.66,-0.01 0.66,0 0.66,-0.01 0.66,0 0.66,0 0.66,-0.01 0.66,0 0.66,0 0.66,0 0.66,-0.01 0.66,0 0.66,0 0.66,0 0.66,0 0.66,-0.01 0.66,0 0.66,0 0.66,0 0.66,0 0.66,0 0.66,0 0.66,0 0.66,-0.01 0.66,0 0.66,0 0.66,0 0.66,0 0.65,0 0.66,0 0.66,0 0.66,0 0.66,0 0.66,0 0.66,0 0.66,0 0.66,0 0.66,0 0.66,0 0.66,0 0.66,0 0.66,0 0.66,0 0.66,0 0.66,0 0.66,0 0.66,0 0.66,0 0.66,0 0.66,-0.01 0.66,0 0.66,0 0.66,0 0.66,0 0.66,0 0.66,0 0.66,0 0.66,0 0.66,0 0.66,0 0.66,0 0.66,0 0.66,0 0.66,0 0.66,0 0.66,0 0.66,0 0.66,0 0.66,0 0.66,0 0.66,0 0.66,0 0.66,0 0.66,0 0.66,0 0.66,0 0.66,0 0.66,0 0.66,0 0.66,0 0.66,0 0.66,0 0.66,0 0.66,0 0.66,0 0.66,0 0.66,0 0.66,0 0.66,0 0.66,0 0.66,0 0.66,0 0.66,0 0.66,0 0.66,0 0.65,0 0.66,0 0.66,0 0.66,0 0.66,0 0.66,0 0.66,0 0.66,0 0.66,0 0.66,0 0.66,0 0.66,0 0.66,0 0.66,0 0.66,0 0.66,0 0.66,0 0.66,0 0.66,0 0.66,0 0.66,0 0.66,0 0.66,0 0.66,0 0.66,0 0.66,0 0.66,0 0.66,0 0.66,0 0.66,0 0.66,0 0.66,0 0.66,0 0.66,0 0.66,0 0.66,0 0.66,0 0.66,0 0.66,0 0.66,0 0.66,0 0.66,0 0.66,0 0.66,0 0.66,0 0.66,0 0.66,0 0.66,0 0.66,0 0.66,0 0.66,0 0.66,0 0.66,0 0.66,0 0.66,0 0.66,0 0.66,0"
           inkscape:connector-curvature="0"
           id="path248"
           style="fill:none;stroke:#aca4e2;stroke-width:0.75;stroke-linecap:round;stroke-linejoin:round;stroke-miterlimit:10;stroke-opacity:1;stroke-dasharray:none" /></g></g><g
       id="g250"><g
         clip-path="url(#clipPath254)"
         id="g252" /></g><g
       id="g258"><path
         d="m 348.43,40.39 98.98,0"
         inkscape:connector-curvature="0"
         id="path260"
         style="fill:none;stroke:#000000;stroke-width:0.75;stroke-linecap:round;stroke-linejoin:round;stroke-miterlimit:10;stroke-opacity:1;stroke-dasharray:none" /><path
         d="m 348.43,40.39 0,-3.96"
         inkscape:connector-curvature="0"
         id="path262"
         style="fill:none;stroke:#000000;stroke-width:0.75;stroke-linecap:round;stroke-linejoin:round;stroke-miterlimit:10;stroke-opacity:1;stroke-dasharray:none" /><path
         d="m 381.42,40.39 0,-3.96"
         inkscape:connector-curvature="0"
         id="path264"
         style="fill:none;stroke:#000000;stroke-width:0.75;stroke-linecap:round;stroke-linejoin:round;stroke-miterlimit:10;stroke-opacity:1;stroke-dasharray:none" /><path
         d="m 414.42,40.39 0,-3.96"
         inkscape:connector-curvature="0"
         id="path266"
         style="fill:none;stroke:#000000;stroke-width:0.75;stroke-linecap:round;stroke-linejoin:round;stroke-miterlimit:10;stroke-opacity:1;stroke-dasharray:none" /><path
         d="m 447.41,40.39 0,-3.96"
         inkscape:connector-curvature="0"
         id="path268"
         style="fill:none;stroke:#000000;stroke-width:0.75;stroke-linecap:round;stroke-linejoin:round;stroke-miterlimit:10;stroke-opacity:1;stroke-dasharray:none" /><text
         transform="matrix(1,0,0,-1,346.49,26.14)"
         id="text270"><tspan
           x="0"
           y="0"
           id="tspan272"
           style="font-size:7px;font-variant:normal;font-weight:normal;writing-mode:lr-tb;fill:#000000;fill-opacity:1;fill-rule:nonzero;stroke:none;font-family:Helvetica;-inkscape-font-specification:Helvetica">0</tspan></text>
<text
         transform="matrix(1,0,0,-1,377.53,26.14)"
         id="text274"><tspan
           x="0 3.892"
           y="0"
           id="tspan276"
           style="font-size:7px;font-variant:normal;font-weight:normal;writing-mode:lr-tb;fill:#000000;fill-opacity:1;fill-rule:nonzero;stroke:none;font-family:Helvetica;-inkscape-font-specification:Helvetica">50</tspan></text>
<text
         transform="matrix(1,0,0,-1,408.58,26.14)"
         id="text278"><tspan
           x="0 3.892 7.7839999"
           y="0"
           id="tspan280"
           style="font-size:7px;font-variant:normal;font-weight:normal;writing-mode:lr-tb;fill:#000000;fill-opacity:1;fill-rule:nonzero;stroke:none;font-family:Helvetica;-inkscape-font-specification:Helvetica">100</tspan></text>
<text
         transform="matrix(1,0,0,-1,441.57,26.14)"
         id="text282"><tspan
           x="0 3.892 7.7839999"
           y="0"
           id="tspan284"
           style="font-size:7px;font-variant:normal;font-weight:normal;writing-mode:lr-tb;fill:#000000;fill-opacity:1;fill-rule:nonzero;stroke:none;font-family:Helvetica;-inkscape-font-specification:Helvetica">150</tspan></text>
<path
         d="m 344.47,45.69 0,133.05"
         inkscape:connector-curvature="0"
         id="path286"
         style="fill:none;stroke:#000000;stroke-width:0.75;stroke-linecap:round;stroke-linejoin:round;stroke-miterlimit:10;stroke-opacity:1;stroke-dasharray:none" /><path
         d="m 344.47,45.69 -3.96,0"
         inkscape:connector-curvature="0"
         id="path288"
         style="fill:none;stroke:#000000;stroke-width:0.75;stroke-linecap:round;stroke-linejoin:round;stroke-miterlimit:10;stroke-opacity:1;stroke-dasharray:none" /><path
         d="m 344.47,78.95 -3.96,0"
         inkscape:connector-curvature="0"
         id="path290"
         style="fill:none;stroke:#000000;stroke-width:0.75;stroke-linecap:round;stroke-linejoin:round;stroke-miterlimit:10;stroke-opacity:1;stroke-dasharray:none" /><path
         d="m 344.47,112.22 -3.96,0"
         inkscape:connector-curvature="0"
         id="path292"
         style="fill:none;stroke:#000000;stroke-width:0.75;stroke-linecap:round;stroke-linejoin:round;stroke-miterlimit:10;stroke-opacity:1;stroke-dasharray:none" /><path
         d="m 344.47,145.48 -3.96,0"
         inkscape:connector-curvature="0"
         id="path294"
         style="fill:none;stroke:#000000;stroke-width:0.75;stroke-linecap:round;stroke-linejoin:round;stroke-miterlimit:10;stroke-opacity:1;stroke-dasharray:none" /><path
         d="m 344.47,178.74 -3.96,0"
         inkscape:connector-curvature="0"
         id="path296"
         style="fill:none;stroke:#000000;stroke-width:0.75;stroke-linecap:round;stroke-linejoin:round;stroke-miterlimit:10;stroke-opacity:1;stroke-dasharray:none" /><text
         transform="matrix(0,1,1,0,334.97,38.88)"
         id="text298"><tspan
           x="0 3.892 5.8379998 9.7299995"
           y="0"
           id="tspan300"
           style="font-size:7px;font-variant:normal;font-weight:normal;writing-mode:lr-tb;fill:#000000;fill-opacity:1;fill-rule:nonzero;stroke:none;font-family:Helvetica;-inkscape-font-specification:Helvetica">0.00</tspan></text>
<text
         transform="matrix(0,1,1,0,334.97,72.14)"
         id="text302"><tspan
           x="0 3.892 5.8379998 9.7299995"
           y="0"
           id="tspan304"
           style="font-size:7px;font-variant:normal;font-weight:normal;writing-mode:lr-tb;fill:#000000;fill-opacity:1;fill-rule:nonzero;stroke:none;font-family:Helvetica;-inkscape-font-specification:Helvetica">0.02</tspan></text>
<text
         transform="matrix(0,1,1,0,334.97,105.4)"
         id="text306"><tspan
           x="0 3.892 5.8379998 9.7299995"
           y="0"
           id="tspan308"
           style="font-size:7px;font-variant:normal;font-weight:normal;writing-mode:lr-tb;fill:#000000;fill-opacity:1;fill-rule:nonzero;stroke:none;font-family:Helvetica;-inkscape-font-specification:Helvetica">0.04</tspan></text>
<text
         transform="matrix(0,1,1,0,334.97,138.67)"
         id="text310"><tspan
           x="0 3.892 5.8379998 9.7299995"
           y="0"
           id="tspan312"
           style="font-size:7px;font-variant:normal;font-weight:normal;writing-mode:lr-tb;fill:#000000;fill-opacity:1;fill-rule:nonzero;stroke:none;font-family:Helvetica;-inkscape-font-specification:Helvetica">0.06</tspan></text>
<text
         transform="matrix(0,1,1,0,334.97,171.93)"
         id="text314"><tspan
           x="0 3.892 5.8379998 9.7299995"
           y="0"
           id="tspan316"
           style="font-size:7px;font-variant:normal;font-weight:normal;writing-mode:lr-tb;fill:#000000;fill-opacity:1;fill-rule:nonzero;stroke:none;font-family:Helvetica;-inkscape-font-specification:Helvetica">0.08</tspan></text>
<path
         d="m 344.47,40.39 106.9,0 0,143.14 -106.9,0 0,-143.14"
         inkscape:connector-curvature="0"
         id="path318"
         style="fill:none;stroke:#000000;stroke-width:0.75;stroke-linecap:round;stroke-linejoin:round;stroke-miterlimit:10;stroke-opacity:1;stroke-dasharray:none" /></g><g
       id="g320"><g
         clip-path="url(#clipPath324)"
         id="g322"><text
           transform="matrix(1,0,0,-1,356.88,196.89)"
           id="text328"><tspan
             x="0 4.368 9.3360004 13.784 16.007999 20.896 23.120001 27.568001 30.232 33.344002 35.568001 40.296001 45.183998 47.848 50.071999 54.959999 59.848 62.071999 64.295998 68.744003 70.968002 75.416"
             y="0"
             id="tspan330"
             style="font-size:8px;font-variant:normal;font-weight:bold;writing-mode:lr-tb;fill:#000000;fill-opacity:1;fill-rule:nonzero;stroke:none;font-family:Helvetica;-inkscape-font-specification:Helvetica-Bold">age distribution, 8 cM</tspan></text>
<text
           transform="matrix(1,0,0,-1,372.86,10.3)"
           id="text332"><tspan
             x="0 3.892 7.7839999 11.676 15.568 17.829 21.721001 23.667 25.221001 29.113001 33.005001 36.505001 38.451 42.342999 46.235001"
             y="0"
             id="tspan334"
             style="font-size:7px;font-variant:normal;font-weight:normal;writing-mode:lr-tb;fill:#000000;fill-opacity:1;fill-rule:nonzero;stroke:none;font-family:Helvetica;-inkscape-font-specification:Helvetica">generations ago</tspan></text>
<text
           transform="matrix(0,1,1,0,319.13,100.87)"
           id="text336"><tspan
             x="0 3.892 7.7839999 11.676 15.176 16.73 18.676001"
             y="0"
             id="tspan338"
             style="font-size:7px;font-variant:normal;font-weight:normal;writing-mode:lr-tb;fill:#000000;fill-opacity:1;fill-rule:nonzero;stroke:none;font-family:Helvetica;-inkscape-font-specification:Helvetica">density</tspan></text>
</g></g><g
       id="g340"><g
         clip-path="url(#clipPath344)"
         id="g342"><path
           d="m 352.56,40.39 0,143.14"
           inkscape:connector-curvature="0"
           id="path348"
           style="fill:none;stroke:#000000;stroke-width:0.75;stroke-linecap:round;stroke-linejoin:round;stroke-miterlimit:10;stroke-opacity:1;stroke-dasharray:2.25, 3.75;stroke-dashoffset:0" /><path
           d="m 349.75,51.08 1.32,8.96 1.32,10.52 1.32,10.68 1.32,9.96 1.32,8.74 1.32,7.22 1.32,5.64 1.32,4.06 1.32,2.59 1.32,1.26 1.32,0.11 1.32,-0.87 1.32,-1.67 1.32,-2.33 1.32,-2.83 1.32,-3.19 1.32,-3.44 1.32,-3.6 1.32,-3.67 1.31,-3.68 1.32,-3.62 1.32,-3.53 1.32,-3.41 1.32,-3.25 1.32,-3.09 1.32,-2.9 1.32,-2.73 1.32,-2.53 1.32,-2.36 1.32,-2.17 1.32,-2 1.32,-1.83 1.32,-1.67 1.32,-1.53 1.32,-1.39 1.32,-1.25 1.32,-1.14 1.32,-1.03 1.32,-0.92 1.32,-0.83 1.32,-0.75 1.32,-0.66 1.32,-0.6 1.32,-0.53 1.32,-0.48 1.32,-0.42 1.32,-0.38 1.32,-0.34 1.32,-0.29 1.32,-0.27 1.32,-0.23 1.32,-0.21 1.32,-0.18 1.31,-0.16 1.32,-0.14 1.32,-0.13 1.32,-0.11 1.32,-0.1 1.32,-0.08 1.32,-0.08 1.32,-0.06 1.32,-0.06 1.32,-0.05 1.32,-0.05 1.32,-0.04 1.32,-0.03 1.32,-0.03 1.32,-0.03 1.32,-0.02 1.32,-0.02 1.32,-0.02 1.32,-0.01 1.32,-0.02 1.32,-0.01 1.32,-0.01 1.32,-0.01 1.32,0 1.32,-0.01 1.32,-0.01 1.32,0 1.32,-0.01 1.32,0 1.32,0 1.32,-0.01 1.32,0 1.32,0 1.32,0 1.31,-0.01 1.32,0 0.8,0"
           inkscape:connector-curvature="0"
           id="path350"
           style="fill:none;stroke:#e495a5;stroke-width:0.75;stroke-linecap:round;stroke-linejoin:round;stroke-miterlimit:10;stroke-opacity:1;stroke-dasharray:none" /><path
           d="m 349.75,49.71 1.32,6.89 1.32,8.29 1.32,8.69 1.32,8.4 1.32,7.66 1.32,6.66 1.32,5.53 1.32,4.36 1.32,3.21 1.32,2.13 1.32,1.16 1.32,0.29 1.32,-0.46 1.32,-1.1 1.32,-1.63 1.32,-2.05 1.32,-2.38 1.32,-2.63 1.32,-2.8 1.31,-2.9 1.32,-2.97 1.32,-2.97 1.32,-2.94 1.32,-2.89 1.32,-2.8 1.32,-2.7 1.32,-2.58 1.32,-2.46 1.32,-2.33 1.32,-2.19 1.32,-2.05 1.32,-1.93 1.32,-1.79 1.32,-1.66 1.32,-1.54 1.32,-1.42 1.32,-1.3 1.32,-1.2 1.32,-1.11 1.32,-1 1.32,-0.92 1.32,-0.84 1.32,-0.77 1.32,-0.69 1.32,-0.63 1.32,-0.57 1.32,-0.52 1.32,-0.46 1.32,-0.43 1.32,-0.38 1.32,-0.34 1.32,-0.31 1.32,-0.28 1.31,-0.25 1.32,-0.22 1.32,-0.2 1.32,-0.18 1.32,-0.16 1.32,-0.15 1.32,-0.13 1.32,-0.11 1.32,-0.11 1.32,-0.09 1.32,-0.08 1.32,-0.07 1.32,-0.07 1.32,-0.06 1.32,-0.05 1.32,-0.05 1.32,-0.04 1.32,-0.04 1.32,-0.03 1.32,-0.03 1.32,-0.02 1.32,-0.03 1.32,-0.02 1.32,-0.02 1.32,-0.01 1.32,-0.02 1.32,-0.01 1.32,-0.01 1.32,-0.01 1.32,-0.01 1.32,-0.01 1.32,0 1.32,-0.01 1.32,0 1.31,-0.01 1.32,0 0.8,0"
           inkscape:connector-curvature="0"
           id="path352"
           style="fill:none;stroke:#abb065;stroke-width:0.75;stroke-linecap:round;stroke-linejoin:round;stroke-miterlimit:10;stroke-opacity:1;stroke-dasharray:none" /><path
           d="m 349.75,48.12 1.32,4.05 1.32,4.77 1.32,4.87 1.32,4.57 1.32,4.04 1.32,3.38 1.32,2.68 1.32,1.98 1.32,1.32 1.32,0.73 1.32,0.21 1.32,-0.24 1.32,-0.61 1.32,-0.91 1.32,-1.15 1.32,-1.31 1.32,-1.45 1.32,-1.52 1.32,-1.57 1.31,-1.58 1.32,-1.57 1.32,-1.53 1.32,-1.49 1.32,-1.43 1.32,-1.36 1.32,-1.28 1.32,-1.21 1.32,-1.13 1.32,-1.04 1.32,-0.97 1.32,-0.9 1.32,-0.81 1.32,-0.75 1.32,-0.67 1.32,-0.6 1.32,-0.54 1.32,-0.48 1.32,-0.41 1.32,-0.35 1.32,-0.28 1.32,-0.21 1.32,-0.13 1.32,-0.03 1.32,0.12 1.32,0.34 1.32,0.74 1.32,1.69 1.32,5.05 1.32,85.24 1.32,-11.72 1.32,-10.39 1.32,-9.19 1.32,-8.13 1.31,-7.19 1.32,-6.34 1.32,-5.59 1.32,-4.93 1.32,-4.34 1.32,-3.82 1.32,-3.36 1.32,-2.96 1.32,-2.59 1.32,-2.28 1.32,-1.99 1.32,-1.76 1.32,-1.53 1.32,-1.34 1.32,-1.18 1.32,-1.03 1.32,-0.9 1.32,-0.79 1.32,-0.69 1.32,-0.6 1.32,-0.52 1.32,-0.46 1.32,-0.4 1.32,-0.35 1.32,-0.3 1.32,-0.26 1.32,-0.24 1.32,-0.2 1.32,-0.17 1.32,-0.15 1.32,-0.13 1.32,-0.12 1.32,-0.1 1.32,-0.09 1.31,-0.07 1.32,-0.07 0.8,-0.03"
           inkscape:connector-curvature="0"
           id="path354"
           style="fill:none;stroke:#39beb1;stroke-width:0.75;stroke-linecap:round;stroke-linejoin:round;stroke-miterlimit:10;stroke-opacity:1;stroke-dasharray:none" /><path
           d="m 349.75,45.84 1.32,0.92 1.32,4.04 1.32,15.08 1.32,51.22 1.32,15.09 1.32,13.12 1.32,10.9 1.32,8.58 1.32,6.34 1.32,4.22 1.32,2.29 1.32,0.59 1.32,-0.9 1.32,-30.69 1.32,-20.32 1.32,-16.71 1.32,-13.58 1.32,-10.92 1.32,-8.72 1.31,-6.91 1.32,-5.43 1.32,-4.25 1.32,-3.3 1.32,-2.56 1.32,-1.97 1.32,-1.51 1.32,-1.16 1.32,-0.89 1.32,-0.68 1.32,-0.16 1.32,-0.15 1.32,-0.14 1.32,-0.13 1.32,-0.12 1.32,-0.11 1.32,-0.1 1.32,-0.1 1.32,-0.09 1.32,-0.08 1.32,-0.07 1.32,-0.06 1.32,-0.06 1.32,-0.06 1.32,-0.05 1.32,-0.04 1.32,-0.04 1.32,-0.03 1.32,-0.03 1.32,-0.03 1.32,-0.02 1.32,-0.02 1.32,-0.01 1.32,0 1.31,0 1.32,0.01 1.32,0.03 1.32,0.07 1.32,0.19 1.32,1.09 1.32,-0.19 1.32,-0.17 1.32,-0.15 1.32,-0.14 1.32,-0.12 1.32,-0.11 1.32,-0.09 1.32,-0.09 1.32,-0.07 1.32,-0.07 1.32,-0.06 1.32,-0.06 1.32,-0.04 1.32,-0.04 1.32,-0.04 1.32,-0.03 1.32,-0.03 1.32,-0.03 1.32,-0.02 1.32,-0.02 1.32,-0.02 1.32,-0.02 1.32,-0.01 1.32,-0.01 1.32,-0.01 1.32,-0.01 1.32,-0.01 1.32,-0.01 1.31,-0.01 1.32,0 0.8,-0.01"
           inkscape:connector-curvature="0"
           id="path356"
           style="fill:none;stroke:#aca4e2;stroke-width:0.75;stroke-linecap:round;stroke-linejoin:round;stroke-miterlimit:10;stroke-opacity:1;stroke-dasharray:none" /><path
           d="m 419.58,183.53 31.78,0 0,-39.6 -31.78,0 0,39.6 z"
           inkscape:connector-curvature="0"
           id="path358"
           style="fill:none;stroke:#000000;stroke-width:0.75;stroke-linecap:round;stroke-linejoin:round;stroke-miterlimit:10;stroke-opacity:1;stroke-dasharray:none" /><path
           d="m 425.52,175.61 11.88,0"
           inkscape:connector-curvature="0"
           id="path360"
           style="fill:none;stroke:#e495a5;stroke-width:0.75;stroke-linecap:round;stroke-linejoin:round;stroke-miterlimit:10;stroke-opacity:1;stroke-dasharray:none" /><path
           d="m 425.52,167.69 11.88,0"
           inkscape:connector-curvature="0"
           id="path362"
           style="fill:none;stroke:#abb065;stroke-width:0.75;stroke-linecap:round;stroke-linejoin:round;stroke-miterlimit:10;stroke-opacity:1;stroke-dasharray:none" /><path
           d="m 425.52,159.77 11.88,0"
           inkscape:connector-curvature="0"
           id="path364"
           style="fill:none;stroke:#39beb1;stroke-width:0.75;stroke-linecap:round;stroke-linejoin:round;stroke-miterlimit:10;stroke-opacity:1;stroke-dasharray:none" /><path
           d="m 425.52,151.85 11.88,0"
           inkscape:connector-curvature="0"
           id="path366"
           style="fill:none;stroke:#aca4e2;stroke-width:0.75;stroke-linecap:round;stroke-linejoin:round;stroke-miterlimit:10;stroke-opacity:1;stroke-dasharray:none" /><text
           transform="matrix(1,0,0,-1,443.34,173.09)"
           id="text368"><tspan
             x="0"
             y="0"
             id="tspan370"
             style="font-size:7px;font-variant:normal;font-weight:normal;writing-mode:lr-tb;fill:#000000;fill-opacity:1;fill-rule:nonzero;stroke:none;font-family:Helvetica;-inkscape-font-specification:Helvetica">A</tspan></text>
<text
           transform="matrix(1,0,0,-1,443.34,165.17)"
           id="text372"><tspan
             x="0"
             y="0"
             id="tspan374"
             style="font-size:7px;font-variant:normal;font-weight:normal;writing-mode:lr-tb;fill:#000000;fill-opacity:1;fill-rule:nonzero;stroke:none;font-family:Helvetica;-inkscape-font-specification:Helvetica">B</tspan></text>
<text
           transform="matrix(1,0,0,-1,443.34,157.25)"
           id="text376"><tspan
             x="0"
             y="0"
             id="tspan378"
             style="font-size:7px;font-variant:normal;font-weight:normal;writing-mode:lr-tb;fill:#000000;fill-opacity:1;fill-rule:nonzero;stroke:none;font-family:Helvetica;-inkscape-font-specification:Helvetica">C</tspan></text>
<text
           transform="matrix(1,0,0,-1,443.34,149.33)"
           id="text380"><tspan
             x="0"
             y="0"
             id="tspan382"
             style="font-size:7px;font-variant:normal;font-weight:normal;writing-mode:lr-tb;fill:#000000;fill-opacity:1;fill-rule:nonzero;stroke:none;font-family:Helvetica;-inkscape-font-specification:Helvetica">D</tspan></text>
</g></g></g></svg>