<?xml version="1.0" encoding="UTF-8" standalone="no"?>
<!-- Created with Inkscape (http://www.inkscape.org/) -->

<svg
   xmlns:dc="http://purl.org/dc/elements/1.1/"
   xmlns:cc="http://creativecommons.org/ns#"
   xmlns:rdf="http://www.w3.org/1999/02/22-rdf-syntax-ns#"
   xmlns:svg="http://www.w3.org/2000/svg"
   xmlns="http://www.w3.org/2000/svg"
   xmlns:inkscape="http://www.inkscape.org/namespaces/inkscape"
   version="1.1"
   width="369.57709"
   height="472.72446"
   id="svg2"
   xml:space="preserve"><metadata
     id="metadata8"><rdf:RDF><cc:Work
         rdf:about=""><dc:format>image/svg+xml</dc:format><dc:type
           rdf:resource="http://purl.org/dc/dcmitype/StillImage" /></cc:Work></rdf:RDF></metadata><defs
     id="defs6" /><g
     transform="matrix(1.25,0,0,-1.25,0,472.72446)"
     id="g10"><g
       id="g12"><g
         transform="matrix(1,0,0,-1,0,378.17957)"
         id="g14"><path
           d="m 149.457,195.129 0,-32"
           inkscape:connector-curvature="0"
           id="path16"
           style="fill:none;stroke:#000000;stroke-width:0.80000001;stroke-linecap:butt;stroke-linejoin:miter;stroke-miterlimit:4;stroke-opacity:1;stroke-dasharray:3.2, 3.2;stroke-dashoffset:0" /></g><g
         transform="matrix(0,-1,-1,0,0,378.17957)"
         id="g18"><path
           d="m 166.328,-149.457 1.602,-1.598 -5.602,1.598 5.602,1.602 -1.602,-1.602 z"
           inkscape:connector-curvature="0"
           id="path20"
           style="fill:#000000;fill-opacity:1;fill-rule:evenodd;stroke:#000000;stroke-width:0.40000001;stroke-linecap:butt;stroke-linejoin:miter;stroke-miterlimit:4;stroke-opacity:1;stroke-dasharray:none" /></g><g
         transform="matrix(1,0,0,-1,0,378.17957)"
         id="g22"><path
           d="m 29.457,115.129 0,-32"
           inkscape:connector-curvature="0"
           id="path24"
           style="fill:none;stroke:#000000;stroke-width:0.80000001;stroke-linecap:butt;stroke-linejoin:miter;stroke-miterlimit:4;stroke-opacity:1;stroke-dasharray:3.2, 3.2;stroke-dashoffset:0" /></g><g
         transform="matrix(0,-1,-1,0,0,378.17957)"
         id="g26"><path
           d="m 86.328,-29.457 1.602,-1.598 -5.602,1.598 5.602,1.602 -1.602,-1.602 z"
           inkscape:connector-curvature="0"
           id="path28"
           style="fill:#000000;fill-opacity:1;fill-rule:evenodd;stroke:#000000;stroke-width:0.40000001;stroke-linecap:butt;stroke-linejoin:miter;stroke-miterlimit:4;stroke-opacity:1;stroke-dasharray:none" /></g><g
         transform="matrix(1,0,0,-1,0,378.17957)"
         id="g30"><path
           d="m 109.457,33.531 0,-32"
           inkscape:connector-curvature="0"
           id="path32"
           style="fill:none;stroke:#000000;stroke-width:0.80000001;stroke-linecap:butt;stroke-linejoin:miter;stroke-miterlimit:4;stroke-opacity:1;stroke-dasharray:3.2, 3.2;stroke-dashoffset:0" /></g><g
         transform="matrix(0,-1,-1,0,0,378.17957)"
         id="g34"><path
           d="m 4.73,-109.457 1.598,-1.598 -5.598,1.598 5.598,1.602 -1.598,-1.602 z"
           inkscape:connector-curvature="0"
           id="path36"
           style="fill:#000000;fill-opacity:1;fill-rule:evenodd;stroke:#000000;stroke-width:0.40000001;stroke-linecap:butt;stroke-linejoin:miter;stroke-miterlimit:4;stroke-opacity:1;stroke-dasharray:none" /></g><g
         transform="matrix(1,0,0,-1,0,378.17957)"
         id="g38"><path
           d="m 181.457,337.531 0,-48.574"
           inkscape:connector-curvature="0"
           id="path40"
           style="fill:none;stroke:#000000;stroke-width:0.80000001;stroke-linecap:butt;stroke-linejoin:miter;stroke-miterlimit:4;stroke-opacity:1;stroke-dasharray:none" /></g><g
         transform="matrix(1,0,0,-1,0,378.17957)"
         id="g42"><path
           d="m 170.254,289.816 76.289,0"
           inkscape:connector-curvature="0"
           id="path44"
           style="fill:none;stroke:#000000;stroke-width:1;stroke-linecap:butt;stroke-linejoin:miter;stroke-miterlimit:4;stroke-opacity:1;stroke-dasharray:none" /></g><g
         transform="matrix(1,0,0,-1,0,378.17957)"
         id="g46"><path
           d="m 261.457,273.531 0,-64"
           inkscape:connector-curvature="0"
           id="path48"
           style="fill:none;stroke:#000000;stroke-width:0.80000001;stroke-linecap:butt;stroke-linejoin:miter;stroke-miterlimit:4;stroke-opacity:1;stroke-dasharray:none" /></g><g
         transform="matrix(1,0,0,-1,0,378.17957)"
         id="g50"><path
           d="m 177.969,289.531 c 0,12.781 -10.36,23.141 -23.141,23.141 -12.781,0 -23.144,-10.36 -23.144,-23.141 0,-12.781 10.363,-23.144 23.144,-23.144 12.781,0 23.141,10.363 23.141,23.144 z"
           inkscape:connector-curvature="0"
           id="path52"
           style="fill:#ffffff;fill-opacity:1;fill-rule:nonzero;stroke:#000000;stroke-width:3;stroke-linecap:butt;stroke-linejoin:miter;stroke-miterlimit:4;stroke-opacity:1;stroke-dasharray:none" /></g><g
         transform="matrix(1,0,0,-1,0,378.17957)"
         id="g54"><path
           d="m 239.113,266.387 46.285,0 0,46.285 -46.285,0 0,-46.285 z"
           inkscape:connector-curvature="0"
           id="path56"
           style="fill:#ffffff;fill-opacity:1;fill-rule:nonzero;stroke:#000000;stroke-width:3;stroke-linecap:butt;stroke-linejoin:miter;stroke-miterlimit:4;stroke-opacity:1;stroke-dasharray:none" /></g><g
         transform="matrix(1,0,0,-1,0,378.17957)"
         id="g58"><path
           d="m 89.465,209.816 44.285,0"
           inkscape:connector-curvature="0"
           id="path60"
           style="fill:none;stroke:#000000;stroke-width:1;stroke-linecap:butt;stroke-linejoin:miter;stroke-miterlimit:4;stroke-opacity:1;stroke-dasharray:none" /></g><g
         transform="matrix(1,0,0,-1,0,378.17957)"
         id="g62"><path
           d="m 126.32,186.387 46.285,0 0,46.285 -46.285,0 0,-46.285 z"
           inkscape:connector-curvature="0"
           id="path64"
           style="fill:#ffffff;fill-opacity:1;fill-rule:nonzero;stroke:#000000;stroke-width:3;stroke-linecap:butt;stroke-linejoin:miter;stroke-miterlimit:4;stroke-opacity:1;stroke-dasharray:none" /></g><g
         transform="matrix(1,0,0,-1,0,378.17957)"
         id="g66"><path
           d="m 249.465,209.816 44.285,0"
           inkscape:connector-curvature="0"
           id="path68"
           style="fill:none;stroke:#000000;stroke-width:1;stroke-linecap:butt;stroke-linejoin:miter;stroke-miterlimit:4;stroke-opacity:1;stroke-dasharray:none" /></g><g
         transform="matrix(-1,0,0,1,0,378.17957)"
         id="g70"><path
           d="m -289.75,-209.816 2,-2 -7,2 7,2 -2,-2 z"
           inkscape:connector-curvature="0"
           id="path72"
           style="fill:#000000;fill-opacity:1;fill-rule:evenodd;stroke:#000000;stroke-width:0.5;stroke-linecap:butt;stroke-linejoin:miter;stroke-miterlimit:4;stroke-opacity:1;stroke-dasharray:none" /></g><g
         transform="matrix(1,0,0,-1,0,378.17957)"
         id="g74"><path
           d="m 257.18,209.531 c 0,12.781 -10.364,23.141 -23.145,23.141 -12.781,0 -23.144,-10.36 -23.144,-23.141 0,-12.781 10.363,-23.144 23.144,-23.144 12.781,0 23.145,10.363 23.145,23.144 z"
           inkscape:connector-curvature="0"
           id="path76"
           style="fill:#ffffff;fill-opacity:1;fill-rule:nonzero;stroke:#000000;stroke-width:3;stroke-linecap:butt;stroke-linejoin:miter;stroke-miterlimit:4;stroke-opacity:1;stroke-dasharray:none" /></g><g
         transform="matrix(-1,0,0,-1,0,378.17957)"
         id="g78"><path
           d="m -50.312,209.531 c 0,12.781 -10.364,23.141 -23.145,23.141 -12.781,0 -23.141,-10.36 -23.141,-23.141 0,-12.781 10.36,-23.144 23.141,-23.144 12.781,0 23.145,10.363 23.145,23.144 z"
           inkscape:connector-curvature="0"
           id="path80"
           style="fill:#ffffff;fill-opacity:1;fill-rule:nonzero;stroke:#000000;stroke-width:3;stroke-linecap:butt;stroke-linejoin:miter;stroke-miterlimit:4;stroke-opacity:1;stroke-dasharray:none" /></g><g
         transform="matrix(1,0,0,-1,0,378.17957)"
         id="g82"><path
           d="m 1.914,289.816 41.426,0"
           inkscape:connector-curvature="0"
           id="path84"
           style="fill:none;stroke:#000000;stroke-width:1;stroke-linecap:butt;stroke-linejoin:miter;stroke-miterlimit:4;stroke-opacity:1;stroke-dasharray:none" /></g><g
         transform="matrix(1,0,0,-1,0,378.17957)"
         id="g86"><path
           d="m 5.914,289.816 2,-2 -7,2 7,2 -2,-2 z"
           inkscape:connector-curvature="0"
           id="path88"
           style="fill:#000000;fill-opacity:1;fill-rule:evenodd;stroke:#000000;stroke-width:0.5;stroke-linecap:butt;stroke-linejoin:miter;stroke-miterlimit:4;stroke-opacity:1;stroke-dasharray:none" /></g><g
         transform="matrix(1,0,0,-1,0,378.17957)"
         id="g90"><path
           d="m 25.457,337.531 0,-48.574"
           inkscape:connector-curvature="0"
           id="path92"
           style="fill:none;stroke:#000000;stroke-width:0.80000001;stroke-linecap:butt;stroke-linejoin:miter;stroke-miterlimit:4;stroke-opacity:1;stroke-dasharray:none" /></g><g
         transform="matrix(1,0,0,-1,0,378.17957)"
         id="g94"><path
           d="m 35.914,266.387 46.285,0 0,46.285 -46.285,0 0,-46.285 z"
           inkscape:connector-curvature="0"
           id="path96"
           style="fill:#ffffff;fill-opacity:1;fill-rule:nonzero;stroke:#000000;stroke-width:3;stroke-linecap:butt;stroke-linejoin:miter;stroke-miterlimit:4;stroke-opacity:1;stroke-dasharray:none" /></g><g
         transform="matrix(1,0,0,-1,0,378.17957)"
         id="g98"><path
           d="m 159.113,330.387 46.285,0 0,46.285 -46.285,0 0,-46.285 z"
           inkscape:connector-curvature="0"
           id="path100"
           style="fill:#ffffff;fill-opacity:1;fill-rule:nonzero;stroke:#000000;stroke-width:3;stroke-linecap:butt;stroke-linejoin:miter;stroke-miterlimit:4;stroke-opacity:1;stroke-dasharray:none" /></g><g
         transform="matrix(1,0,0,-1,0,378.17957)"
         id="g102"><path
           d="m 58.027,267.129 0,-12 97.715,0 0,12"
           inkscape:connector-curvature="0"
           id="path104"
           style="fill:none;stroke:#000000;stroke-width:1;stroke-linecap:butt;stroke-linejoin:miter;stroke-miterlimit:4;stroke-opacity:1;stroke-dasharray:none" /></g><g
         transform="matrix(1,0,0,-1,0,378.17957)"
         id="g106"><path
           d="m 107.742,209.531 0,45.989"
           inkscape:connector-curvature="0"
           id="path108"
           style="fill:none;stroke:#000000;stroke-width:1;stroke-linecap:butt;stroke-linejoin:miter;stroke-miterlimit:4;stroke-opacity:1;stroke-dasharray:none" /></g><g
         transform="matrix(1,0,0,-1,0,378.17957)"
         id="g110"><path
           d="m 49.969,353.531 c 0,12.781 -10.36,23.141 -23.141,23.141 -12.781,0 -23.144,-10.36 -23.144,-23.141 0,-12.781 10.363,-23.144 23.144,-23.144 12.781,0 23.141,10.363 23.141,23.144 z"
           inkscape:connector-curvature="0"
           id="path112"
           style="fill:#ffffff;fill-opacity:1;fill-rule:nonzero;stroke:#000000;stroke-width:3;stroke-linecap:butt;stroke-linejoin:miter;stroke-miterlimit:4;stroke-opacity:1;stroke-dasharray:none" /></g><g
         transform="matrix(1,0,0,-1,0,378.17957)"
         id="g114"><path
           d="m 190.391,129.816 66.429,0"
           inkscape:connector-curvature="0"
           id="path116"
           style="fill:none;stroke:#000000;stroke-width:1.5;stroke-linecap:butt;stroke-linejoin:miter;stroke-miterlimit:4;stroke-opacity:1;stroke-dasharray:none" /></g><g
         transform="matrix(1,0,0,-1,0,378.17957)"
         id="g118"><path
           d="m 209.18,129.531 c 0,12.781 -10.364,23.141 -23.145,23.141 -12.781,0 -23.144,-10.36 -23.144,-23.141 0,-12.781 10.363,-23.144 23.144,-23.144 12.781,0 23.145,10.363 23.145,23.144 z"
           inkscape:connector-curvature="0"
           id="path120"
           style="fill:#ffffff;fill-opacity:1;fill-rule:nonzero;stroke:#000000;stroke-width:3;stroke-linecap:butt;stroke-linejoin:miter;stroke-miterlimit:4;stroke-opacity:1;stroke-dasharray:none" /></g><g
         transform="matrix(1,0,0,-1,0,378.17957)"
         id="g122"><path
           d="m 261.457,113.531 0,-32"
           inkscape:connector-curvature="0"
           id="path124"
           style="fill:none;stroke:#000000;stroke-width:0.80000001;stroke-linecap:butt;stroke-linejoin:miter;stroke-miterlimit:4;stroke-opacity:1;stroke-dasharray:3.2, 3.2;stroke-dashoffset:0" /></g><g
         transform="matrix(0,-1,-1,0,0,378.17957)"
         id="g126"><path
           d="m 84.73,-261.457 1.598,-1.598 -5.598,1.598 5.598,1.602 -1.598,-1.602 z"
           inkscape:connector-curvature="0"
           id="path128"
           style="fill:#000000;fill-opacity:1;fill-rule:evenodd;stroke:#000000;stroke-width:0.40000001;stroke-linecap:butt;stroke-linejoin:miter;stroke-miterlimit:4;stroke-opacity:1;stroke-dasharray:none" /></g><g
         transform="matrix(1,0,0,-1,0,378.17957)"
         id="g130"><path
           d="m 238.32,106.387 46.285,0 0,46.285 -46.285,0 0,-46.285 z"
           inkscape:connector-curvature="0"
           id="path132"
           style="fill:#ffffff;fill-opacity:1;fill-rule:nonzero;stroke:#000000;stroke-width:3;stroke-linecap:butt;stroke-linejoin:miter;stroke-miterlimit:4;stroke-opacity:1;stroke-dasharray:none" /></g><g
         transform="matrix(1,0,0,-1,0,378.17957)"
         id="g134"><path
           d="m 231.887,187.129 0,-57.598"
           inkscape:connector-curvature="0"
           id="path136"
           style="fill:none;stroke:#000000;stroke-width:1;stroke-linecap:butt;stroke-linejoin:miter;stroke-miterlimit:4;stroke-opacity:1;stroke-dasharray:none" /></g><g
         transform="matrix(1,0,0,-1,0,378.17957)"
         id="g138"><path
           d="m 89,129.816 -44.289,0"
           inkscape:connector-curvature="0"
           id="path140"
           style="fill:none;stroke:#000000;stroke-width:1;stroke-linecap:butt;stroke-linejoin:miter;stroke-miterlimit:4;stroke-opacity:1;stroke-dasharray:none" /></g><g
         transform="matrix(-1,0,0,-1,0,378.17957)"
         id="g142"><path
           d="m -81.285,129.531 c 0,12.781 -10.36,23.141 -23.141,23.141 -12.781,0 -23.144,-10.36 -23.144,-23.141 0,-12.781 10.363,-23.144 23.144,-23.144 12.781,0 23.141,10.363 23.141,23.144 z"
           inkscape:connector-curvature="0"
           id="path144"
           style="fill:#ffffff;fill-opacity:1;fill-rule:nonzero;stroke:#000000;stroke-width:3;stroke-linecap:butt;stroke-linejoin:miter;stroke-miterlimit:4;stroke-opacity:1;stroke-dasharray:none" /></g><g
         transform="matrix(-1,0,0,-1,0,378.17957)"
         id="g146"><path
           d="m -5.855,106.387 -46.285,0 0,46.285 46.285,0 0,-46.285 z"
           inkscape:connector-curvature="0"
           id="path148"
           style="fill:#ffffff;fill-opacity:1;fill-rule:nonzero;stroke:#000000;stroke-width:3;stroke-linecap:butt;stroke-linejoin:miter;stroke-miterlimit:4;stroke-opacity:1;stroke-dasharray:none" /></g><g
         transform="matrix(1,0,0,-1,0,378.17957)"
         id="g150"><path
           d="m 74.027,186.559 0,-57.028"
           inkscape:connector-curvature="0"
           id="path152"
           style="fill:none;stroke:#000000;stroke-width:1;stroke-linecap:butt;stroke-linejoin:miter;stroke-miterlimit:4;stroke-opacity:1;stroke-dasharray:none" /></g><g
         transform="matrix(1,0,0,-1,0,378.17957)"
         id="g154"><path
           d="m 126.262,48.727 44.289,0"
           inkscape:connector-curvature="0"
           id="path156"
           style="fill:none;stroke:#000000;stroke-width:1;stroke-linecap:butt;stroke-linejoin:miter;stroke-miterlimit:4;stroke-opacity:1;stroke-dasharray:none" /></g><g
         transform="matrix(1,0,0,-1,0,378.17957)"
         id="g158"><path
           d="m 186.254,33.531 0,-32"
           inkscape:connector-curvature="0"
           id="path160"
           style="fill:none;stroke:#000000;stroke-width:0.80000001;stroke-linecap:butt;stroke-linejoin:miter;stroke-miterlimit:4;stroke-opacity:1;stroke-dasharray:3.2, 3.2;stroke-dashoffset:0" /></g><g
         transform="matrix(0,-1,-1,0,0,378.17957)"
         id="g162"><path
           d="m 4.73,-186.254 1.598,-1.601 -5.598,1.601 5.598,1.598 -1.598,-1.598 z"
           inkscape:connector-curvature="0"
           id="path164"
           style="fill:#000000;fill-opacity:1;fill-rule:evenodd;stroke:#000000;stroke-width:0.40000001;stroke-linecap:butt;stroke-linejoin:miter;stroke-miterlimit:4;stroke-opacity:1;stroke-dasharray:none" /></g><g
         transform="matrix(1,0,0,-1,0,378.17957)"
         id="g166"><path
           d="m 163.121,26.387 46.285,0 0,46.285 -46.285,0 0,-46.285 z"
           inkscape:connector-curvature="0"
           id="path168"
           style="fill:#ffffff;fill-opacity:1;fill-rule:nonzero;stroke:#000000;stroke-width:3;stroke-linecap:butt;stroke-linejoin:miter;stroke-miterlimit:4;stroke-opacity:1;stroke-dasharray:none" /></g><g
         transform="matrix(-1,0,0,-1,0,378.17957)"
         id="g170"><path
           d="m -87.113,49.531 c 0,12.781 -10.36,23.141 -23.141,23.141 -12.781,0 -23.144,-10.36 -23.144,-23.141 0,-12.781 10.363,-23.144 23.144,-23.144 12.781,0 23.141,10.363 23.141,23.144 z"
           inkscape:connector-curvature="0"
           id="path172"
           style="fill:#ffffff;fill-opacity:1;fill-rule:nonzero;stroke:#000000;stroke-width:3;stroke-linecap:butt;stroke-linejoin:miter;stroke-miterlimit:4;stroke-opacity:1;stroke-dasharray:none" /></g><g
         transform="matrix(1,0,0,-1,0,378.17957)"
         id="g174"><path
           d="m 104.426,107.129 0,-12 81.715,0 0,12"
           inkscape:connector-curvature="0"
           id="path176"
           style="fill:none;stroke:#000000;stroke-width:1;stroke-linecap:butt;stroke-linejoin:miter;stroke-miterlimit:4;stroke-opacity:1;stroke-dasharray:none" /></g><g
         transform="matrix(1,0,0,-1,0,378.17957)"
         id="g178"><path
           d="m 144.543,49.531 0,46.082"
           inkscape:connector-curvature="0"
           id="path180"
           style="fill:none;stroke:#000000;stroke-width:1;stroke-linecap:butt;stroke-linejoin:miter;stroke-miterlimit:4;stroke-opacity:1;stroke-dasharray:none" /></g><g
         transform="matrix(1,0,0,-1,0,378.17957)"
         id="g182"><path
           d="m 157.34,273.172 10.285,0 0,33 -10.285,0 0,-33 z"
           inkscape:connector-curvature="0"
           id="path184"
           style="fill:#f2f2f2;fill-opacity:1;fill-rule:nonzero;stroke:#999999;stroke-width:0.80000001;stroke-linecap:butt;stroke-linejoin:miter;stroke-miterlimit:4;stroke-opacity:1;stroke-dasharray:none" /></g><g
         transform="matrix(1,0,0,-1,0,378.17957)"
         id="g186"><path
           d="m 141.34,273.172 10.285,0 0,33 -10.285,0 0,-33 z"
           inkscape:connector-curvature="0"
           id="path188"
           style="fill:#f2f2f2;fill-opacity:1;fill-rule:nonzero;stroke:#999999;stroke-width:0.80000001;stroke-linecap:butt;stroke-linejoin:miter;stroke-miterlimit:4;stroke-opacity:1;stroke-dasharray:none" /></g><g
         transform="matrix(1,0,0,-1,0,378.17957)"
         id="g190"><path
           d="m 62.172,273.172 10.285,0 0,33 -10.285,0 0,-33 z"
           inkscape:connector-curvature="0"
           id="path192"
           style="fill:#f2f2f2;fill-opacity:1;fill-rule:nonzero;stroke:#999999;stroke-width:0.80000001;stroke-linecap:butt;stroke-linejoin:miter;stroke-miterlimit:4;stroke-opacity:1;stroke-dasharray:none" /></g><g
         transform="matrix(1,0,0,-1,0,378.17957)"
         id="g194"><path
           d="m 44.512,273.172 10.285,0 0,33 -10.285,0 0,-33 z"
           inkscape:connector-curvature="0"
           id="path196"
           style="fill:#f2f2f2;fill-opacity:1;fill-rule:nonzero;stroke:#999999;stroke-width:0.80000001;stroke-linecap:butt;stroke-linejoin:miter;stroke-miterlimit:4;stroke-opacity:1;stroke-dasharray:none" /></g><g
         transform="matrix(1,0,0,-1,0,378.17957)"
         id="g198"><path
           d="m 60.449,193.172 10.285,0 0,33 -10.285,0 0,-33 z"
           inkscape:connector-curvature="0"
           id="path200"
           style="fill:#f2f2f2;fill-opacity:1;fill-rule:nonzero;stroke:#999999;stroke-width:0.80000001;stroke-linecap:butt;stroke-linejoin:miter;stroke-miterlimit:4;stroke-opacity:1;stroke-dasharray:none" /></g><g
         transform="matrix(1,0,0,-1,0,378.17957)"
         id="g202"><path
           d="m 76.449,193.172 10.285,0 0,33 -10.285,0 0,-33 z"
           inkscape:connector-curvature="0"
           id="path204"
           style="fill:#f2f2f2;fill-opacity:1;fill-rule:nonzero;stroke:#999999;stroke-width:0.80000001;stroke-linecap:butt;stroke-linejoin:miter;stroke-miterlimit:4;stroke-opacity:1;stroke-dasharray:none" /></g><g
         transform="matrix(1,0,0,-1,0,378.17957)"
         id="g206"><path
           d="m 135.832,193.172 10.289,0 0,33 -10.289,0 0,-33 z"
           inkscape:connector-curvature="0"
           id="path208"
           style="fill:#f2f2f2;fill-opacity:1;fill-rule:nonzero;stroke:#999999;stroke-width:0.80000001;stroke-linecap:butt;stroke-linejoin:miter;stroke-miterlimit:4;stroke-opacity:1;stroke-dasharray:none" /></g><g
         transform="matrix(1,0,0,-1,0,378.17957)"
         id="g210"><path
           d="m 151.832,193.172 10.289,0 0,33 -10.289,0 0,-33 z"
           inkscape:connector-curvature="0"
           id="path212"
           style="fill:#f2f2f2;fill-opacity:1;fill-rule:nonzero;stroke:#999999;stroke-width:0.80000001;stroke-linecap:butt;stroke-linejoin:miter;stroke-miterlimit:4;stroke-opacity:1;stroke-dasharray:none" /></g><g
         transform="matrix(1,0,0,-1,0,378.17957)"
         id="g214"><path
           d="m 220.832,193.172 10.285,0 0,33 -10.285,0 0,-33 z"
           inkscape:connector-curvature="0"
           id="path216"
           style="fill:#f2f2f2;fill-opacity:1;fill-rule:nonzero;stroke:#999999;stroke-width:0.80000001;stroke-linecap:butt;stroke-linejoin:miter;stroke-miterlimit:4;stroke-opacity:1;stroke-dasharray:none" /></g><g
         transform="matrix(1,0,0,-1,0,378.17957)"
         id="g218"><path
           d="m 236.832,193.172 10.285,0 0,33 -10.285,0 0,-33 z"
           inkscape:connector-curvature="0"
           id="path220"
           style="fill:#f2f2f2;fill-opacity:1;fill-rule:nonzero;stroke:#999999;stroke-width:0.80000001;stroke-linecap:butt;stroke-linejoin:miter;stroke-miterlimit:4;stroke-opacity:1;stroke-dasharray:none" /></g><g
         transform="matrix(1,0,0,-1,0,378.17957)"
         id="g222"><path
           d="m 264.418,273.172 10.285,0 0,33 -10.285,0 0,-33 z"
           inkscape:connector-curvature="0"
           id="path224"
           style="fill:#f2f2f2;fill-opacity:1;fill-rule:nonzero;stroke:#999999;stroke-width:0.80000001;stroke-linecap:butt;stroke-linejoin:miter;stroke-miterlimit:4;stroke-opacity:1;stroke-dasharray:none" /></g><g
         transform="matrix(1,0,0,-1,0,378.17957)"
         id="g226"><path
           d="m 248.418,273.172 10.285,0 0,33 -10.285,0 0,-33 z"
           inkscape:connector-curvature="0"
           id="path228"
           style="fill:#f2f2f2;fill-opacity:1;fill-rule:nonzero;stroke:#999999;stroke-width:0.80000001;stroke-linecap:butt;stroke-linejoin:miter;stroke-miterlimit:4;stroke-opacity:1;stroke-dasharray:none" /></g><g
         transform="matrix(1,0,0,-1,0,378.17957)"
         id="g230"><path
           d="m 265.633,113.172 10.285,0 0,33 -10.285,0 0,-33 z"
           inkscape:connector-curvature="0"
           id="path232"
           style="fill:#f2f2f2;fill-opacity:1;fill-rule:nonzero;stroke:#999999;stroke-width:0.80000001;stroke-linecap:butt;stroke-linejoin:miter;stroke-miterlimit:4;stroke-opacity:1;stroke-dasharray:none" /></g><g
         transform="matrix(1,0,0,-1,0,378.17957)"
         id="g234"><path
           d="m 248.031,113.172 10.289,0 0,33 -10.289,0 0,-33 z"
           inkscape:connector-curvature="0"
           id="path236"
           style="fill:#f2f2f2;fill-opacity:1;fill-rule:nonzero;stroke:#999999;stroke-width:0.80000001;stroke-linecap:butt;stroke-linejoin:miter;stroke-miterlimit:4;stroke-opacity:1;stroke-dasharray:none" /></g><g
         transform="matrix(1,0,0,-1,0,378.17957)"
         id="g238"><path
           d="m 187.109,113.172 10.285,0 0,33 -10.285,0 0,-33 z"
           inkscape:connector-curvature="0"
           id="path240"
           style="fill:#f2f2f2;fill-opacity:1;fill-rule:nonzero;stroke:#999999;stroke-width:0.80000001;stroke-linecap:butt;stroke-linejoin:miter;stroke-miterlimit:4;stroke-opacity:1;stroke-dasharray:none" /></g><g
         transform="matrix(1,0,0,-1,0,378.17957)"
         id="g242"><path
           d="m 172.711,113.172 10.285,0 0,33 -10.285,0 0,-33 z"
           inkscape:connector-curvature="0"
           id="path244"
           style="fill:#f2f2f2;fill-opacity:1;fill-rule:nonzero;stroke:#999999;stroke-width:0.80000001;stroke-linecap:butt;stroke-linejoin:miter;stroke-miterlimit:4;stroke-opacity:1;stroke-dasharray:none" /></g><g
         transform="matrix(1,0,0,-1,0,378.17957)"
         id="g246"><path
           d="m 107.109,113.172 10.285,0 0,33 -10.285,0 0,-33 z"
           inkscape:connector-curvature="0"
           id="path248"
           style="fill:#f2f2f2;fill-opacity:1;fill-rule:nonzero;stroke:#999999;stroke-width:0.80000001;stroke-linecap:butt;stroke-linejoin:miter;stroke-miterlimit:4;stroke-opacity:1;stroke-dasharray:none" /></g><g
         transform="matrix(1,0,0,-1,0,378.17957)"
         id="g250"><path
           d="m 90.785,113.172 10.289,0 0,33 -10.289,0 0,-33 z"
           inkscape:connector-curvature="0"
           id="path252"
           style="fill:#f2f2f2;fill-opacity:1;fill-rule:nonzero;stroke:#999999;stroke-width:0.80000001;stroke-linecap:butt;stroke-linejoin:miter;stroke-miterlimit:4;stroke-opacity:1;stroke-dasharray:none" /></g><g
         transform="matrix(1,0,0,-1,0,378.17957)"
         id="g254"><path
           d="m 95.523,33.172 10.289,0 0,33 -10.289,0 0,-33 z"
           inkscape:connector-curvature="0"
           id="path256"
           style="fill:#f2f2f2;fill-opacity:1;fill-rule:nonzero;stroke:#999999;stroke-width:0.80000001;stroke-linecap:butt;stroke-linejoin:miter;stroke-miterlimit:4;stroke-opacity:1;stroke-dasharray:none" /></g><g
         transform="matrix(1,0,0,-1,0,378.17957)"
         id="g258"><path
           d="m 113.125,33.172 10.285,0 0,33 -10.285,0 0,-33 z"
           inkscape:connector-curvature="0"
           id="path260"
           style="fill:#f2f2f2;fill-opacity:1;fill-rule:nonzero;stroke:#999999;stroke-width:0.80000001;stroke-linecap:butt;stroke-linejoin:miter;stroke-miterlimit:4;stroke-opacity:1;stroke-dasharray:none" /></g><g
         transform="matrix(1,0,0,-1,0,378.17957)"
         id="g262"><path
           d="m 170.727,33.172 10.285,0 0,33 -10.285,0 0,-33 z"
           inkscape:connector-curvature="0"
           id="path264"
           style="fill:#f2f2f2;fill-opacity:1;fill-rule:nonzero;stroke:#999999;stroke-width:0.80000001;stroke-linecap:butt;stroke-linejoin:miter;stroke-miterlimit:4;stroke-opacity:1;stroke-dasharray:none" /></g><g
         transform="matrix(1,0,0,-1,0,378.17957)"
         id="g266"><path
           d="m 189.926,33.172 10.285,0 0,33 -10.285,0 0,-33 z"
           inkscape:connector-curvature="0"
           id="path268"
           style="fill:#f2f2f2;fill-opacity:1;fill-rule:nonzero;stroke:#999999;stroke-width:0.80000001;stroke-linecap:butt;stroke-linejoin:miter;stroke-miterlimit:4;stroke-opacity:1;stroke-dasharray:none" /></g><g
         transform="matrix(1,0,0,-1,0,378.17957)"
         id="g270"><path
           d="m 33.125,113.172 10.285,0 0,33 -10.285,0 0,-33 z"
           inkscape:connector-curvature="0"
           id="path272"
           style="fill:#f2f2f2;fill-opacity:1;fill-rule:nonzero;stroke:#999999;stroke-width:0.80000001;stroke-linecap:butt;stroke-linejoin:miter;stroke-miterlimit:4;stroke-opacity:1;stroke-dasharray:none" /></g><g
         transform="matrix(1,0,0,-1,0,378.17957)"
         id="g274"><path
           d="m 13.926,113.172 10.285,0 0,33 -10.285,0 0,-33 z"
           inkscape:connector-curvature="0"
           id="path276"
           style="fill:#f2f2f2;fill-opacity:1;fill-rule:nonzero;stroke:#999999;stroke-width:0.80000001;stroke-linecap:butt;stroke-linejoin:miter;stroke-miterlimit:4;stroke-opacity:1;stroke-dasharray:none" /></g><g
         transform="matrix(1,0,0,-1,0,378.17957)"
         id="g278"><path
           d="m 157.34,273.172 10.285,0 0,33 -10.285,0 0,-33 z"
           inkscape:connector-curvature="0"
           id="path280"
           style="fill:#f2f2f2;fill-opacity:1;fill-rule:nonzero;stroke:#999999;stroke-width:0.80000001;stroke-linecap:butt;stroke-linejoin:miter;stroke-miterlimit:4;stroke-opacity:1;stroke-dasharray:none" /></g><g
         transform="matrix(1,0,0,-1,0,378.17957)"
         id="g282"><path
           d="m 141.34,273.172 10.285,0 0,33 -10.285,0 0,-33 z"
           inkscape:connector-curvature="0"
           id="path284"
           style="fill:#f2f2f2;fill-opacity:1;fill-rule:nonzero;stroke:#999999;stroke-width:0.80000001;stroke-linecap:butt;stroke-linejoin:miter;stroke-miterlimit:4;stroke-opacity:1;stroke-dasharray:none" /></g><g
         transform="matrix(1,0,0,-1,0,378.17957)"
         id="g286"><path
           d="m 184.645,336.625 10.285,0 0,33 -10.285,0 0,-33 z"
           inkscape:connector-curvature="0"
           id="path288"
           style="fill:#f2f2f2;fill-opacity:1;fill-rule:nonzero;stroke:#999999;stroke-width:0.80000001;stroke-linecap:butt;stroke-linejoin:miter;stroke-miterlimit:4;stroke-opacity:1;stroke-dasharray:none" /></g><g
         transform="matrix(1,0,0,-1,0,378.17957)"
         id="g290"><path
           d="m 184.645,336.625 10.285,0 0,33 -10.285,0 0,-33 z"
           inkscape:connector-curvature="0"
           id="path292"
           style="fill:#f2f2f2;fill-opacity:1;fill-rule:nonzero;stroke:#999999;stroke-width:0.80000001;stroke-linecap:butt;stroke-linejoin:miter;stroke-miterlimit:4;stroke-opacity:1;stroke-dasharray:none" /></g><g
         transform="matrix(1,0,0,-1,0,378.17957)"
         id="g294"><path
           d="m 166.723,336.625 10.285,0 0,33 -10.285,0 0,-33 z"
           inkscape:connector-curvature="0"
           id="path296"
           style="fill:#f2f2f2;fill-opacity:1;fill-rule:nonzero;stroke:#999999;stroke-width:0.80000001;stroke-linecap:butt;stroke-linejoin:miter;stroke-miterlimit:4;stroke-opacity:1;stroke-dasharray:none" /></g><g
         transform="matrix(1,0,0,-1,0,378.17957)"
         id="g298"><path
           d="m 29.828,337.008 10.285,0 0,33 -10.285,0 0,-33 z"
           inkscape:connector-curvature="0"
           id="path300"
           style="fill:#f2f2f2;fill-opacity:1;fill-rule:nonzero;stroke:#999999;stroke-width:0.80000001;stroke-linecap:butt;stroke-linejoin:miter;stroke-miterlimit:4;stroke-opacity:1;stroke-dasharray:none" /></g><g
         transform="matrix(1,0,0,-1,0,378.17957)"
         id="g302"><path
           d="m 29.828,337.008 10.285,0 0,33 -10.285,0 0,-33 z"
           inkscape:connector-curvature="0"
           id="path304"
           style="fill:#f2f2f2;fill-opacity:1;fill-rule:nonzero;stroke:#999999;stroke-width:0.80000001;stroke-linecap:butt;stroke-linejoin:miter;stroke-miterlimit:4;stroke-opacity:1;stroke-dasharray:none" /></g><g
         transform="matrix(1,0,0,-1,0,378.17957)"
         id="g306"><path
           d="m 14.984,337.008 10.285,0 0,33 -10.285,0 0,-33 z"
           inkscape:connector-curvature="0"
           id="path308"
           style="fill:#f2f2f2;fill-opacity:1;fill-rule:nonzero;stroke:#999999;stroke-width:0.80000001;stroke-linecap:butt;stroke-linejoin:miter;stroke-miterlimit:4;stroke-opacity:1;stroke-dasharray:none" /></g><path
         d="m 15.227,41.008 10.285,0 0,-33 -10.285,0 0,33 z"
         inkscape:connector-curvature="0"
         id="path310"
         style="fill:#4d4d4d;fill-opacity:1;fill-rule:nonzero;stroke:none" /><path
         d="m 15.227,24.586 10.285,0 0,-16.949 -10.285,0 0,16.949 z"
         inkscape:connector-curvature="0"
         id="path312"
         style="fill:#4d4d4d;fill-opacity:1;fill-rule:nonzero;stroke:none" /><path
         d="m 15.227,40.863 10.285,0 0,-11.957 -10.285,0 0,11.957 z"
         inkscape:connector-curvature="0"
         id="path314"
         style="fill:#4d4d4d;fill-opacity:1;fill-rule:nonzero;stroke:none" /><path
         d="m 29.625,35.976 10.289,0 0,-28.5 -10.289,0 0,28.5 z"
         inkscape:connector-curvature="0"
         id="path316"
         style="fill:#4d4d4d;fill-opacity:1;fill-rule:nonzero;stroke:none" /><path
         d="m 166.711,41.918 10.285,0 0,-22.145 -10.285,0 0,22.145 z"
         inkscape:connector-curvature="0"
         id="path318"
         style="fill:#4d4d4d;fill-opacity:1;fill-rule:nonzero;stroke:none" /><path
         d="m 166.719,21.578 10.285,0 0,-13.445 -10.285,0 0,13.445 z"
         inkscape:connector-curvature="0"
         id="path320"
         style="fill:#4d4d4d;fill-opacity:1;fill-rule:nonzero;stroke:none" /><path
         d="m 29.625,40.941 10.289,0 0,-10.484 -10.289,0 0,10.484 z"
         inkscape:connector-curvature="0"
         id="path322"
         style="fill:#4d4d4d;fill-opacity:1;fill-rule:nonzero;stroke:none" /><path
         d="m 184.543,41.008 10.285,0 0,-33 -10.285,0 0,33 z"
         inkscape:connector-curvature="0"
         id="path324"
         style="fill:#4d4d4d;fill-opacity:1;fill-rule:nonzero;stroke:none" /><path
         d="m 184.543,41.527 10.285,0 0,-13.008 -10.285,0 0,13.008 z"
         inkscape:connector-curvature="0"
         id="path326"
         style="fill:#4d4d4d;fill-opacity:1;fill-rule:nonzero;stroke:none" /><path
         d="m 184.594,16.902 10.289,0 0,-9.07 -10.289,0 0,9.07 z"
         inkscape:connector-curvature="0"
         id="path328"
         style="fill:#4d4d4d;fill-opacity:1;fill-rule:nonzero;stroke:none" /><path
         d="m 15.227,41.008 10.285,0 0,-33 -10.285,0 0,33 z"
         inkscape:connector-curvature="0"
         id="path330"
         style="fill:#4d4d4d;fill-opacity:1;fill-rule:nonzero;stroke:none" /><path
         d="m 29.625,35.976 10.289,0 0,-28.5 -10.289,0 0,28.5 z"
         inkscape:connector-curvature="0"
         id="path332"
         style="fill:#4d4d4d;fill-opacity:1;fill-rule:nonzero;stroke:none" /><path
         d="m 29.625,40.941 10.289,0 0,-10.484 -10.289,0 0,10.484 z"
         inkscape:connector-curvature="0"
         id="path334"
         style="fill:#4d4d4d;fill-opacity:1;fill-rule:nonzero;stroke:none" /><path
         d="m 184.543,41.008 10.285,0 0,-33 -10.285,0 0,33 z"
         inkscape:connector-curvature="0"
         id="path336"
         style="fill:#4d4d4d;fill-opacity:1;fill-rule:nonzero;stroke:none" /><path
         d="m 184.543,41.008 10.285,0 0,-33 -10.285,0 0,33 z"
         inkscape:connector-curvature="0"
         id="path338"
         style="fill:#4d4d4d;fill-opacity:1;fill-rule:nonzero;stroke:none" /><path
         d="m 157.625,105.008 10.289,0 0,-33 -10.289,0 0,33 z"
         inkscape:connector-curvature="0"
         id="path340"
         style="fill:#4d4d4d;fill-opacity:1;fill-rule:nonzero;stroke:none" /><path
         d="m 248.543,105.008 10.285,0 0,-23.211 -10.285,0 0,23.211 z"
         inkscape:connector-curvature="0"
         id="path342"
         style="fill:#4d4d4d;fill-opacity:1;fill-rule:nonzero;stroke:none" /><path
         d="m 264.543,81.894 10.285,0 0,-9.887 -10.285,0 0,9.887 z"
         inkscape:connector-curvature="0"
         id="path344"
         style="fill:#4d4d4d;fill-opacity:1;fill-rule:nonzero;stroke:none" /><path
         d="m 135.75,185.008 10.285,0 0,-33 -10.285,0 0,33 z"
         inkscape:connector-curvature="0"
         id="path346"
         style="fill:#4d4d4d;fill-opacity:1;fill-rule:nonzero;stroke:none" /><path
         d="m 135.75,175.777 10.285,0 0,-11.848 -10.285,0 0,11.848 z"
         inkscape:connector-curvature="0"
         id="path348"
         style="fill:#ff0000;fill-opacity:1;fill-rule:nonzero;stroke:none" /><path
         d="m 151.75,165.012 10.285,0 0,-13.004 -10.285,0 0,13.004 z"
         inkscape:connector-curvature="0"
         id="path350"
         style="fill:#4d4d4d;fill-opacity:1;fill-rule:nonzero;stroke:none" /><path
         d="m 220.836,185.008 10.285,0 0,-8.391 -10.285,0 0,8.391 z"
         inkscape:connector-curvature="0"
         id="path352"
         style="fill:#4d4d4d;fill-opacity:1;fill-rule:nonzero;stroke:none" /><path
         d="m 236.836,177.316 10.285,0 0,-11.852 -10.285,0 0,11.852 z"
         inkscape:connector-curvature="0"
         id="path354"
         style="fill:#4d4d4d;fill-opacity:1;fill-rule:nonzero;stroke:none" /><path
         d="m 60.371,185.008 10.285,0 0,-11.082 -10.285,0 0,11.082 z"
         inkscape:connector-curvature="0"
         id="path356"
         style="fill:#4d4d4d;fill-opacity:1;fill-rule:nonzero;stroke:none" /><path
         d="m 157.711,86.957 10.285,0 0,-14.766 -10.285,0 0,14.766 z"
         inkscape:connector-curvature="0"
         id="path358"
         style="fill:#4d4d4d;fill-opacity:1;fill-rule:nonzero;stroke:none" /><path
         d="m 248.543,105.527 10.285,0 0,-13.008 -10.285,0 0,13.008 z"
         inkscape:connector-curvature="0"
         id="path360"
         style="fill:#4d4d4d;fill-opacity:1;fill-rule:nonzero;stroke:none" /><path
         d="m 157.625,105.008 10.289,0 0,-33 -10.289,0 0,33 z"
         inkscape:connector-curvature="0"
         id="path362"
         style="fill:#4d4d4d;fill-opacity:1;fill-rule:nonzero;stroke:none" /><path
         d="m 44.512,105.008 10.285,0 0,-10.16 -10.285,0 0,10.16 z"
         inkscape:connector-curvature="0"
         id="path364"
         style="fill:#4d4d4d;fill-opacity:1;fill-rule:nonzero;stroke:none" /><path
         d="m 62.109,95.219 10.285,0 0,-23.211 -10.285,0 0,23.211 z"
         inkscape:connector-curvature="0"
         id="path366"
         style="fill:#4d4d4d;fill-opacity:1;fill-rule:nonzero;stroke:none" /><path
         d="m 157.711,86.957 10.285,0 0,-14.766 -10.285,0 0,14.766 z"
         inkscape:connector-curvature="0"
         id="path368"
         style="fill:#4d4d4d;fill-opacity:1;fill-rule:nonzero;stroke:none" /><path
         d="m 248.543,105.527 10.285,0 0,-13.008 -10.285,0 0,13.008 z"
         inkscape:connector-curvature="0"
         id="path370"
         style="fill:#4d4d4d;fill-opacity:1;fill-rule:nonzero;stroke:none" /><path
         d="m 265.637,255.715 10.285,0 0,-11.848 -10.285,0 0,11.848 z"
         inkscape:connector-curvature="0"
         id="path372"
         style="fill:#4d4d4d;fill-opacity:1;fill-rule:nonzero;stroke:none" /><path
         d="m 90.77,265.008 10.285,0 0,-11.082 -10.285,0 0,11.082 z"
         inkscape:connector-curvature="0"
         id="path374"
         style="fill:#4d4d4d;fill-opacity:1;fill-rule:nonzero;stroke:none" /><path
         d="m 95.57,341.808 10.285,0 0,-11.082 -10.285,0 0,11.082 z"
         inkscape:connector-curvature="0"
         id="path376"
         style="fill:#4d4d4d;fill-opacity:1;fill-rule:nonzero;stroke:none" /><path
         d="m 172.836,265.008 10.285,0 0,-8.391 -10.285,0 0,8.391 z"
         inkscape:connector-curvature="0"
         id="path378"
         style="fill:#4d4d4d;fill-opacity:1;fill-rule:nonzero;stroke:none" /><path
         d="m 95.648,341.808 10.289,0 0,-5.508 -10.289,0 0,5.508 z"
         inkscape:connector-curvature="0"
         id="path380"
         style="fill:#ff0000;fill-opacity:1;fill-rule:nonzero;stroke:none" /><g
         transform="matrix(1,0,0,-1,0,378.17957)"
         id="g382"><path
           d="M 171.738,344.57 252.898,283.574 226.75,198.973 177.527,118.215 110.613,48.227"
           inkscape:connector-curvature="0"
           id="path384"
           style="fill:none;stroke:#0000ff;stroke-width:3.20000005;stroke-linecap:butt;stroke-linejoin:miter;stroke-miterlimit:4;stroke-opacity:1;stroke-dasharray:none" /></g><g
         transform="matrix(0.956044,-1,-1,-0.956044,0,378.17957)"
         id="g386"><path
           d="m 89.697,-33.702 4.627,-4.628 -16.189,4.628 16.19,4.627 -4.628,-4.627 z"
           inkscape:connector-curvature="0"
           id="path388"
           style="fill:#000000;fill-opacity:1;fill-rule:evenodd;stroke:#000000;stroke-width:1.15650296;stroke-linecap:butt;stroke-linejoin:miter;stroke-miterlimit:4;stroke-opacity:1;stroke-dasharray:none" /></g><g
         transform="matrix(1,0,0,-1,0,378.17957)"
         id="g390"><path
           d="M 34.473,342.027 50.621,277.422 66.773,198.973 94.461,117.445 98.309,49.766"
           inkscape:connector-curvature="0"
           id="path392"
           style="fill:none;stroke:#0000ff;stroke-width:3.20000005;stroke-linecap:butt;stroke-linejoin:miter;stroke-miterlimit:4;stroke-opacity:1;stroke-dasharray:none" /></g><g
         transform="matrix(-0.0568183,-1,-1,0.0568183,0,378.17957)"
         id="g394"><path
           d="m 56.815,-100.81 6.391,-6.391 -22.363,6.392 22.363,6.39 -6.391,-6.391 z"
           inkscape:connector-curvature="0"
           id="path396"
           style="fill:#000000;fill-opacity:1;fill-rule:evenodd;stroke:#000000;stroke-width:1.59742403;stroke-linecap:butt;stroke-linejoin:miter;stroke-miterlimit:4;stroke-opacity:1;stroke-dasharray:none" /></g><text
         transform="matrix(1,0,0,-1,87.437442,29.297222)"
         id="text398"><tspan
           x="0 5.1743999 17.247999"
           y="0"
           id="tspan400"
           style="font-size:17.60000038px;font-variant:normal;font-weight:normal;writing-mode:lr-tb;fill:#000000;fill-opacity:1;fill-rule:nonzero;stroke:none;font-family:DejaVu Sans;-inkscape-font-specification:DejaVuSans">IBD</tspan></text>
<path
         d="m 29.621,37.808 10.285,0 0,-5.508 -10.285,0 0,5.508 z"
         inkscape:connector-curvature="0"
         id="path402"
         style="fill:#ff0000;fill-opacity:1;fill-rule:nonzero;stroke:none" /><path
         d="m 166.766,37.808 10.285,0 0,-5.508 -10.285,0 0,5.508 z"
         inkscape:connector-curvature="0"
         id="path404"
         style="fill:#ff0000;fill-opacity:1;fill-rule:nonzero;stroke:none" /><g
         transform="matrix(1,0,0,-1,0,378.17957)"
         id="g406"><path
           d="m 123.062,342.617 29.887,0"
           inkscape:connector-curvature="0"
           id="path408"
           style="fill:none;stroke:#000000;stroke-width:1;stroke-linecap:butt;stroke-linejoin:miter;stroke-miterlimit:4;stroke-opacity:1;stroke-dasharray:none" /></g><g
         transform="matrix(-1,0,0,1,0,378.17957)"
         id="g410"><path
           d="m -148.949,-342.617 2,-2 -7,2 7,2 -2,-2 z"
           inkscape:connector-curvature="0"
           id="path412"
           style="fill:#000000;fill-opacity:1;fill-rule:evenodd;stroke:#000000;stroke-width:0.5;stroke-linecap:butt;stroke-linejoin:miter;stroke-miterlimit:4;stroke-opacity:1;stroke-dasharray:none" /></g><g
         transform="matrix(1,0,0,-1,0,378.17957)"
         id="g414"><path
           d="m 84.898,342.617 -29.886,0"
           inkscape:connector-curvature="0"
           id="path416"
           style="fill:none;stroke:#000000;stroke-width:1;stroke-linecap:butt;stroke-linejoin:miter;stroke-miterlimit:4;stroke-opacity:1;stroke-dasharray:none" /></g><g
         transform="matrix(1,0,0,-1,0,378.17957)"
         id="g418"><path
           d="m 59.012,342.617 2,-2 -7,2 7,2 -2,-2 z"
           inkscape:connector-curvature="0"
           id="path420"
           style="fill:#000000;fill-opacity:1;fill-rule:evenodd;stroke:#000000;stroke-width:0.5;stroke-linecap:butt;stroke-linejoin:miter;stroke-miterlimit:4;stroke-opacity:1;stroke-dasharray:none" /></g><path
         d="m 184.543,30.492 10.285,0 0,-11.852 -10.285,0 0,11.852 z"
         inkscape:connector-curvature="0"
         id="path422"
         style="fill:#ff0000;fill-opacity:1;fill-rule:nonzero;stroke:none" /><path
         d="m 29.625,30.176 10.289,0 0,-11.848 -10.289,0 0,11.848 z"
         inkscape:connector-curvature="0"
         id="path424"
         style="fill:#ff0000;fill-opacity:1;fill-rule:nonzero;stroke:none" /><text
         transform="matrix(1,0,0,-1,14.546207,359.66304)"
         id="text426"><tspan
           x="0 8.0431995 21.648001"
           y="0"
           id="tspan428"
           style="font-size:17.60000038px;font-variant:normal;font-weight:bold;writing-mode:lr-tb;fill:#000000;fill-opacity:1;fill-rule:nonzero;stroke:none;font-family:DejaVu Sans Bold;-inkscape-font-specification:DejaVuSans-Bold">(A)</tspan></text>
</g></g></svg>