<?xml version="1.0" encoding="UTF-8" standalone="no"?>
<!-- Created with Inkscape (http://www.inkscape.org/) -->

<svg
   xmlns:dc="http://purl.org/dc/elements/1.1/"
   xmlns:cc="http://creativecommons.org/ns#"
   xmlns:rdf="http://www.w3.org/1999/02/22-rdf-syntax-ns#"
   xmlns:svg="http://www.w3.org/2000/svg"
   xmlns="http://www.w3.org/2000/svg"
   xmlns:inkscape="http://www.inkscape.org/namespaces/inkscape"
   version="1.1"
   width="630"
   height="450"
   id="svg2"
   xml:space="preserve"><metadata
     id="metadata8"><rdf:RDF><cc:Work
         rdf:about=""><dc:format>image/svg+xml</dc:format><dc:type
           rdf:resource="http://purl.org/dc/dcmitype/StillImage" /></cc:Work></rdf:RDF></metadata><defs
     id="defs6"><clipPath
       id="clipPath18"><path
         d="m 49.2,61.2 429.6,0 0,249.6 -429.6,0 0,-249.6 z"
         inkscape:connector-curvature="0"
         id="path20" /></clipPath><clipPath
       id="clipPath134"><path
         d="m 49.2,61.2 429.6,0 0,249.6 -429.6,0 0,-249.6 z"
         inkscape:connector-curvature="0"
         id="path136" /></clipPath></defs><g
     transform="matrix(1.25,0,0,-1.25,0,450)"
     id="g10"><g
       id="g12" /><g
       id="g14"><g
         clip-path="url(#clipPath18)"
         id="g16"><path
           d="m 104.84,120.43 50.97,128.52 20.48,39.61 17.93,13 18.29,-21.32 21.04,-34.26 27.9,-53.65 47.33,-57.34 L 504,71.64"
           inkscape:connector-curvature="0"
           id="path22"
           style="fill:none;stroke:#000000;stroke-width:0.75;stroke-linecap:round;stroke-linejoin:round;stroke-miterlimit:10;stroke-opacity:1;stroke-dasharray:none" /></g></g><g
       id="g24"><path
         d="m 65.11,61.2 397.78,0"
         inkscape:connector-curvature="0"
         id="path26"
         style="fill:none;stroke:#000000;stroke-width:0.75;stroke-linecap:round;stroke-linejoin:round;stroke-miterlimit:10;stroke-opacity:1;stroke-dasharray:none" /><path
         d="m 65.11,61.2 0,-6"
         inkscape:connector-curvature="0"
         id="path28"
         style="fill:none;stroke:#000000;stroke-width:0.75;stroke-linecap:round;stroke-linejoin:round;stroke-miterlimit:10;stroke-opacity:1;stroke-dasharray:none" /><path
         d="m 131.41,61.2 0,-6"
         inkscape:connector-curvature="0"
         id="path30"
         style="fill:none;stroke:#000000;stroke-width:0.75;stroke-linecap:round;stroke-linejoin:round;stroke-miterlimit:10;stroke-opacity:1;stroke-dasharray:none" /><path
         d="m 197.7,61.2 0,-6"
         inkscape:connector-curvature="0"
         id="path32"
         style="fill:none;stroke:#000000;stroke-width:0.75;stroke-linecap:round;stroke-linejoin:round;stroke-miterlimit:10;stroke-opacity:1;stroke-dasharray:none" /><path
         d="m 264,61.2 0,-6"
         inkscape:connector-curvature="0"
         id="path34"
         style="fill:none;stroke:#000000;stroke-width:0.75;stroke-linecap:round;stroke-linejoin:round;stroke-miterlimit:10;stroke-opacity:1;stroke-dasharray:none" /><path
         d="m 330.3,61.2 0,-6"
         inkscape:connector-curvature="0"
         id="path36"
         style="fill:none;stroke:#000000;stroke-width:0.75;stroke-linecap:round;stroke-linejoin:round;stroke-miterlimit:10;stroke-opacity:1;stroke-dasharray:none" /><path
         d="m 396.59,61.2 0,-6"
         inkscape:connector-curvature="0"
         id="path38"
         style="fill:none;stroke:#000000;stroke-width:0.75;stroke-linecap:round;stroke-linejoin:round;stroke-miterlimit:10;stroke-opacity:1;stroke-dasharray:none" /><path
         d="m 462.89,61.2 0,-6"
         inkscape:connector-curvature="0"
         id="path40"
         style="fill:none;stroke:#000000;stroke-width:0.75;stroke-linecap:round;stroke-linejoin:round;stroke-miterlimit:10;stroke-opacity:1;stroke-dasharray:none" /><text
         transform="matrix(1,0,0,-1,62.33,39.6)"
         id="text42"><tspan
           x="0"
           y="0"
           id="tspan44"
           style="font-size:10px;font-variant:normal;font-weight:normal;writing-mode:lr-tb;fill:#000000;fill-opacity:1;fill-rule:nonzero;stroke:none;font-family:Helvetica;-inkscape-font-specification:Helvetica">0</tspan></text>
<text
         transform="matrix(1,0,0,-1,128.63,39.6)"
         id="text46"><tspan
           x="0"
           y="0"
           id="tspan48"
           style="font-size:10px;font-variant:normal;font-weight:normal;writing-mode:lr-tb;fill:#000000;fill-opacity:1;fill-rule:nonzero;stroke:none;font-family:Helvetica;-inkscape-font-specification:Helvetica">1</tspan></text>
<text
         transform="matrix(1,0,0,-1,194.92,39.6)"
         id="text50"><tspan
           x="0"
           y="0"
           id="tspan52"
           style="font-size:10px;font-variant:normal;font-weight:normal;writing-mode:lr-tb;fill:#000000;fill-opacity:1;fill-rule:nonzero;stroke:none;font-family:Helvetica;-inkscape-font-specification:Helvetica">2</tspan></text>
<text
         transform="matrix(1,0,0,-1,261.22,39.6)"
         id="text54"><tspan
           x="0"
           y="0"
           id="tspan56"
           style="font-size:10px;font-variant:normal;font-weight:normal;writing-mode:lr-tb;fill:#000000;fill-opacity:1;fill-rule:nonzero;stroke:none;font-family:Helvetica;-inkscape-font-specification:Helvetica">3</tspan></text>
<text
         transform="matrix(1,0,0,-1,327.52,39.6)"
         id="text58"><tspan
           x="0"
           y="0"
           id="tspan60"
           style="font-size:10px;font-variant:normal;font-weight:normal;writing-mode:lr-tb;fill:#000000;fill-opacity:1;fill-rule:nonzero;stroke:none;font-family:Helvetica;-inkscape-font-specification:Helvetica">4</tspan></text>
<text
         transform="matrix(1,0,0,-1,393.81,39.6)"
         id="text62"><tspan
           x="0"
           y="0"
           id="tspan64"
           style="font-size:10px;font-variant:normal;font-weight:normal;writing-mode:lr-tb;fill:#000000;fill-opacity:1;fill-rule:nonzero;stroke:none;font-family:Helvetica;-inkscape-font-specification:Helvetica">5</tspan></text>
<text
         transform="matrix(1,0,0,-1,460.11,39.6)"
         id="text66"><tspan
           x="0"
           y="0"
           id="tspan68"
           style="font-size:10px;font-variant:normal;font-weight:normal;writing-mode:lr-tb;fill:#000000;fill-opacity:1;fill-rule:nonzero;stroke:none;font-family:Helvetica;-inkscape-font-specification:Helvetica">6</tspan></text>
<path
         d="m 49.2,69.58 0,238.36"
         inkscape:connector-curvature="0"
         id="path70"
         style="fill:none;stroke:#000000;stroke-width:0.75;stroke-linecap:round;stroke-linejoin:round;stroke-miterlimit:10;stroke-opacity:1;stroke-dasharray:none" /><path
         d="m 49.2,69.58 -6,0"
         inkscape:connector-curvature="0"
         id="path72"
         style="fill:none;stroke:#000000;stroke-width:0.75;stroke-linecap:round;stroke-linejoin:round;stroke-miterlimit:10;stroke-opacity:1;stroke-dasharray:none" /><path
         d="m 49.2,109.31 -6,0"
         inkscape:connector-curvature="0"
         id="path74"
         style="fill:none;stroke:#000000;stroke-width:0.75;stroke-linecap:round;stroke-linejoin:round;stroke-miterlimit:10;stroke-opacity:1;stroke-dasharray:none" /><path
         d="m 49.2,149.03 -6,0"
         inkscape:connector-curvature="0"
         id="path76"
         style="fill:none;stroke:#000000;stroke-width:0.75;stroke-linecap:round;stroke-linejoin:round;stroke-miterlimit:10;stroke-opacity:1;stroke-dasharray:none" /><path
         d="m 49.2,188.76 -6,0"
         inkscape:connector-curvature="0"
         id="path78"
         style="fill:none;stroke:#000000;stroke-width:0.75;stroke-linecap:round;stroke-linejoin:round;stroke-miterlimit:10;stroke-opacity:1;stroke-dasharray:none" /><path
         d="m 49.2,228.48 -6,0"
         inkscape:connector-curvature="0"
         id="path80"
         style="fill:none;stroke:#000000;stroke-width:0.75;stroke-linecap:round;stroke-linejoin:round;stroke-miterlimit:10;stroke-opacity:1;stroke-dasharray:none" /><path
         d="m 49.2,268.21 -6,0"
         inkscape:connector-curvature="0"
         id="path82"
         style="fill:none;stroke:#000000;stroke-width:0.75;stroke-linecap:round;stroke-linejoin:round;stroke-miterlimit:10;stroke-opacity:1;stroke-dasharray:none" /><path
         d="m 49.2,307.94 -6,0"
         inkscape:connector-curvature="0"
         id="path84"
         style="fill:none;stroke:#000000;stroke-width:0.75;stroke-linecap:round;stroke-linejoin:round;stroke-miterlimit:10;stroke-opacity:1;stroke-dasharray:none" /><text
         transform="matrix(0,1,1,0,34.8,59.85)"
         id="text86"><tspan
           x="0 5.5599999 8.3400002 13.9"
           y="0"
           id="tspan88"
           style="font-size:10px;font-variant:normal;font-weight:normal;writing-mode:lr-tb;fill:#000000;fill-opacity:1;fill-rule:nonzero;stroke:none;font-family:Helvetica;-inkscape-font-specification:Helvetica">0.00</tspan></text>
<text
         transform="matrix(0,1,1,0,34.8,99.58)"
         id="text90"><tspan
           x="0 5.5599999 8.3400002 13.9"
           y="0"
           id="tspan92"
           style="font-size:10px;font-variant:normal;font-weight:normal;writing-mode:lr-tb;fill:#000000;fill-opacity:1;fill-rule:nonzero;stroke:none;font-family:Helvetica;-inkscape-font-specification:Helvetica">0.05</tspan></text>
<text
         transform="matrix(0,1,1,0,34.8,139.3)"
         id="text94"><tspan
           x="0 5.5599999 8.3400002 13.9"
           y="0"
           id="tspan96"
           style="font-size:10px;font-variant:normal;font-weight:normal;writing-mode:lr-tb;fill:#000000;fill-opacity:1;fill-rule:nonzero;stroke:none;font-family:Helvetica;-inkscape-font-specification:Helvetica">0.10</tspan></text>
<text
         transform="matrix(0,1,1,0,34.8,179.03)"
         id="text98"><tspan
           x="0 5.5599999 8.3400002 13.9"
           y="0"
           id="tspan100"
           style="font-size:10px;font-variant:normal;font-weight:normal;writing-mode:lr-tb;fill:#000000;fill-opacity:1;fill-rule:nonzero;stroke:none;font-family:Helvetica;-inkscape-font-specification:Helvetica">0.15</tspan></text>
<text
         transform="matrix(0,1,1,0,34.8,218.75)"
         id="text102"><tspan
           x="0 5.5599999 8.3400002 13.9"
           y="0"
           id="tspan104"
           style="font-size:10px;font-variant:normal;font-weight:normal;writing-mode:lr-tb;fill:#000000;fill-opacity:1;fill-rule:nonzero;stroke:none;font-family:Helvetica;-inkscape-font-specification:Helvetica">0.20</tspan></text>
<text
         transform="matrix(0,1,1,0,34.8,258.48)"
         id="text106"><tspan
           x="0 5.5599999 8.3400002 13.9"
           y="0"
           id="tspan108"
           style="font-size:10px;font-variant:normal;font-weight:normal;writing-mode:lr-tb;fill:#000000;fill-opacity:1;fill-rule:nonzero;stroke:none;font-family:Helvetica;-inkscape-font-specification:Helvetica">0.25</tspan></text>
<text
         transform="matrix(0,1,1,0,34.8,298.21)"
         id="text110"><tspan
           x="0 5.5599999 8.3400002 13.9"
           y="0"
           id="tspan112"
           style="font-size:10px;font-variant:normal;font-weight:normal;writing-mode:lr-tb;fill:#000000;fill-opacity:1;fill-rule:nonzero;stroke:none;font-family:Helvetica;-inkscape-font-specification:Helvetica">0.30</tspan></text>
<path
         d="m 49.2,61.2 429.6,0 0,249.6 -429.6,0 0,-249.6"
         inkscape:connector-curvature="0"
         id="path114"
         style="fill:none;stroke:#000000;stroke-width:0.75;stroke-linecap:round;stroke-linejoin:round;stroke-miterlimit:10;stroke-opacity:1;stroke-dasharray:none" /></g><g
       id="g116"><text
         transform="matrix(1,0,0,-1,208.43,331.09)"
         id="text118"><tspan
           x="0 7.092 13.764 17.1 23.771999 30.444 33.779999 41.112 48.444 55.116001 58.452 62.448002 65.783997 72.456001 79.127998 82.463997 87.132004 93.804001 97.800003 104.472"
           y="0"
           id="tspan120"
           style="font-size:12px;font-variant:normal;font-weight:bold;writing-mode:lr-tb;fill:#000000;fill-opacity:1;fill-rule:nonzero;stroke:none;font-family:Helvetica;-inkscape-font-specification:Helvetica-Bold">False positive rates</tspan></text>
<text
         transform="matrix(1,0,0,-1,227.88,15.6)"
         id="text122"><tspan
           x="0 8.3299999 13.89 19.450001 22.23 24.450001 30.01 35.57 41.130001 43.91 49.470001 52.25 55.580002 60.580002 68.910004"
           y="0"
           id="tspan124"
           style="font-size:10px;font-variant:normal;font-weight:normal;writing-mode:lr-tb;fill:#000000;fill-opacity:1;fill-rule:nonzero;stroke:none;font-family:Helvetica;-inkscape-font-specification:Helvetica">map length (cM)</tspan></text>
<text
         transform="matrix(0,1,1,0,10.8,159.09)"
         id="text126"><tspan
           x="0 3.23 8.79 11.57 17.129999 19.91 25.469999 31.030001 34.360001 37.139999 42.700001 48.259998 50.48"
           y="0"
           id="tspan128"
           style="font-size:10px;font-variant:normal;font-weight:normal;writing-mode:lr-tb;fill:#000000;fill-opacity:1;fill-rule:nonzero;stroke:none;font-family:Helvetica;-inkscape-font-specification:Helvetica">rate per pair</tspan></text>
</g><g
       id="g130"><g
         clip-path="url(#clipPath134)"
         id="g132"><path
           d="m 104.84,118.1 50.97,-16.1 20.48,8.99 17.93,-10.2 18.29,-7.3 21.04,-6.11 27.9,-2.84 47.33,-10.01 195.22,-4.8"
           inkscape:connector-curvature="0"
           id="path138"
           style="fill:none;stroke:#ff0000;stroke-width:0.75;stroke-linecap:round;stroke-linejoin:round;stroke-miterlimit:10;stroke-opacity:1;stroke-dasharray:none" /><path
           d="m 104.84,138.93 50.97,-29.74 20.48,-6.53 17.93,-7.01 18.29,-8.93 21.04,4.73 27.9,-8.55 47.33,-8.5 L 504,69.71"
           inkscape:connector-curvature="0"
           id="path140"
           style="fill:none;stroke:#ff4600;stroke-width:0.75;stroke-linecap:round;stroke-linejoin:round;stroke-miterlimit:10;stroke-opacity:1;stroke-dasharray:none" /><path
           d="m 104.84,304.42 50.97,-138.75 20.48,-26.36 17.93,-2.55 18.29,-33.63 21.04,-8.01 27.9,-4.21 L 308.78,79.05 504,69.84"
           inkscape:connector-curvature="0"
           id="path142"
           style="fill:none;stroke:#ff8b00;stroke-width:0.75;stroke-linecap:round;stroke-linejoin:round;stroke-miterlimit:10;stroke-opacity:1;stroke-dasharray:none" /><path
           d="m 104.84,127.44 50.97,-16.67 20.48,-10.43 17.93,-0.54 18.29,-10.73 21.04,-2.56 27.9,-8.94 47.33,-3.51 L 504,69.71"
           inkscape:connector-curvature="0"
           id="path144"
           style="fill:none;stroke:#ffd100;stroke-width:0.75;stroke-linecap:round;stroke-linejoin:round;stroke-miterlimit:10;stroke-opacity:1;stroke-dasharray:none" /><path
           d="m 104.84,218.06 50.97,-85.85 20.48,-8.43 17.93,-24.74 18.29,-6.73 21.04,-7.05 27.9,-0.87 47.33,-9.83 L 504,69.77"
           inkscape:connector-curvature="0"
           id="path146"
           style="fill:none;stroke:#e8ff00;stroke-width:0.75;stroke-linecap:round;stroke-linejoin:round;stroke-miterlimit:10;stroke-opacity:1;stroke-dasharray:none" /><path
           d="m 104.84,186.41 50.97,-49.83 20.48,-19.92 17.93,-15.57 18.29,-19.59 21.04,6.05 27.9,-5.47 L 308.78,75.5 504,69.72"
           inkscape:connector-curvature="0"
           id="path148"
           style="fill:none;stroke:#a2ff00;stroke-width:0.75;stroke-linecap:round;stroke-linejoin:round;stroke-miterlimit:10;stroke-opacity:1;stroke-dasharray:none" /><path
           d="m 104.84,82.64 50.97,17.17 20.48,-6.81 17.93,6.37 18.29,-8.94 21.04,-8.58 27.9,-4.06 47.33,0.19 L 504,69.79"
           inkscape:connector-curvature="0"
           id="path150"
           style="fill:none;stroke:#5dff00;stroke-width:0.75;stroke-linecap:round;stroke-linejoin:round;stroke-miterlimit:10;stroke-opacity:1;stroke-dasharray:none" /><path
           d="m 104.84,85.26 50.97,8.06 20.48,-0.56 17.93,-4.22 18.29,-3.2 21.04,-0.54 27.9,-4.77 47.33,-4.95 L 504,69.72"
           inkscape:connector-curvature="0"
           id="path152"
           style="fill:none;stroke:#16ff00;stroke-width:0.75;stroke-linecap:round;stroke-linejoin:round;stroke-miterlimit:10;stroke-opacity:1;stroke-dasharray:none" /><path
           d="m 104.84,81.7 50.97,17.38 20.48,-6.61 17.93,-0.58 18.29,-2.93 21.04,-1.19 27.9,-7.07 47.33,-5.56 195.22,-5.4"
           inkscape:connector-curvature="0"
           id="path154"
           style="fill:none;stroke:#00ff2e;stroke-width:0.75;stroke-linecap:round;stroke-linejoin:round;stroke-miterlimit:10;stroke-opacity:1;stroke-dasharray:none" /><path
           d="m 104.84,81.83 50.97,13.19 20.48,-4.86 17.93,-4.51 18.29,0.26 21.04,-5.56 27.9,-0.65 47.33,-3.54 L 504,69.75"
           inkscape:connector-curvature="0"
           id="path156"
           style="fill:none;stroke:#00ff74;stroke-width:0.75;stroke-linecap:round;stroke-linejoin:round;stroke-miterlimit:10;stroke-opacity:1;stroke-dasharray:none" /><path
           d="m 104.84,88.6 50.97,6.73 20.48,-4.69 17.93,0.82 18.29,-5.14 21.04,-2.32 27.9,-4.04 47.33,-4.67 L 504,69.74"
           inkscape:connector-curvature="0"
           id="path158"
           style="fill:none;stroke:#00ffb9;stroke-width:0.75;stroke-linecap:round;stroke-linejoin:round;stroke-miterlimit:10;stroke-opacity:1;stroke-dasharray:none" /><path
           d="m 104.84,97.89 50.97,0.86 20.48,-9.95 17.93,-1.45 18.29,0.9 21.04,-2.73 27.9,-8.86 47.33,-1.68 L 504,69.73"
           inkscape:connector-curvature="0"
           id="path160"
           style="fill:none;stroke:#00ffff;stroke-width:0.75;stroke-linecap:round;stroke-linejoin:round;stroke-miterlimit:10;stroke-opacity:1;stroke-dasharray:none" /><path
           d="m 104.84,94.12 50.97,3.45 20.48,-3.49 17.93,-6.31 18.29,-0.39 21.04,-4.37 27.9,-4.27 47.33,-3.28 L 504,69.73"
           inkscape:connector-curvature="0"
           id="path162"
           style="fill:none;stroke:#00b9ff;stroke-width:0.75;stroke-linecap:round;stroke-linejoin:round;stroke-miterlimit:10;stroke-opacity:1;stroke-dasharray:none" /><path
           d="m 104.84,89.46 50.97,8.84 20.48,-1.85 17.93,-3.24 18.29,-3.74 21.04,-3.05 27.9,-5.12 47.33,-5.63 L 504,69.75"
           inkscape:connector-curvature="0"
           id="path164"
           style="fill:none;stroke:#0074ff;stroke-width:0.75;stroke-linecap:round;stroke-linejoin:round;stroke-miterlimit:10;stroke-opacity:1;stroke-dasharray:none" /><path
           d="m 104.84,85.61 50.97,5.05 20.48,5.28 17.93,-4.41 18.29,-5.04 21.04,-4.27 27.9,-1.03 47.33,-5.05 L 504,69.75"
           inkscape:connector-curvature="0"
           id="path166"
           style="fill:none;stroke:#002eff;stroke-width:0.75;stroke-linecap:round;stroke-linejoin:round;stroke-miterlimit:10;stroke-opacity:1;stroke-dasharray:none" /><path
           d="m 104.84,81.41 50.97,16.82 20.48,-6.61 17.93,6.96 18.29,-4.87 21.04,-5.76 27.9,-6.86 47.33,-4.02 L 504,69.78"
           inkscape:connector-curvature="0"
           id="path168"
           style="fill:none;stroke:#1700ff;stroke-width:0.75;stroke-linecap:round;stroke-linejoin:round;stroke-miterlimit:10;stroke-opacity:1;stroke-dasharray:none" /><path
           d="m 104.84,85.65 50.97,7.18 20.48,-3.23 17.93,0.66 18.29,-4.59 21.04,-4.66 27.9,-1.2 47.33,-6.22 L 504,69.7"
           inkscape:connector-curvature="0"
           id="path170"
           style="fill:none;stroke:#5d00ff;stroke-width:0.75;stroke-linecap:round;stroke-linejoin:round;stroke-miterlimit:10;stroke-opacity:1;stroke-dasharray:none" /><path
           d="m 104.84,95.09 50.97,2.94 20.48,-8.74 17.93,-3.3 18.29,-0.61 21.04,-4.08 27.9,-0.41 47.33,-7.52 L 504,69.69"
           inkscape:connector-curvature="0"
           id="path172"
           style="fill:none;stroke:#a200ff;stroke-width:0.75;stroke-linecap:round;stroke-linejoin:round;stroke-miterlimit:10;stroke-opacity:1;stroke-dasharray:none" /><path
           d="m 104.84,93.59 50.97,2.86 20.48,-7.77 17.93,0.7 18.29,-2.22 21.04,-4.2 27.9,-3.6 47.33,-3.58 L 504,69.73"
           inkscape:connector-curvature="0"
           id="path174"
           style="fill:none;stroke:#e800ff;stroke-width:0.75;stroke-linecap:round;stroke-linejoin:round;stroke-miterlimit:10;stroke-opacity:1;stroke-dasharray:none" /><path
           d="m 104.84,82.93 50.97,10.03 20.48,1.89 17.93,-4.46 18.29,-2.62 21.04,-3.32 27.9,-3.7 47.33,-5.27 L 504,69.75"
           inkscape:connector-curvature="0"
           id="path176"
           style="fill:none;stroke:#ff00d1;stroke-width:0.75;stroke-linecap:round;stroke-linejoin:round;stroke-miterlimit:10;stroke-opacity:1;stroke-dasharray:none" /><path
           d="m 104.84,86.75 50.97,15.99 20.48,-5.61 17.93,-1.04 18.29,-4.06 21.04,-4.11 27.9,-6.2 47.33,-5.34 L 504,69.77"
           inkscape:connector-curvature="0"
           id="path178"
           style="fill:none;stroke:#ff008b;stroke-width:0.75;stroke-linecap:round;stroke-linejoin:round;stroke-miterlimit:10;stroke-opacity:1;stroke-dasharray:none" /><path
           d="m 104.84,85.46 50.97,7.42 20.48,-4.68 17.93,2.55 18.29,-1.3 21.04,-8.41 27.9,-0.83 47.33,-5.37 L 504,69.73"
           inkscape:connector-curvature="0"
           id="path180"
           style="fill:none;stroke:#ff0046;stroke-width:0.75;stroke-linecap:round;stroke-linejoin:round;stroke-miterlimit:10;stroke-opacity:1;stroke-dasharray:none" /><text
           transform="matrix(1,0,0,-1,89.96,116.33)"
           id="text182"><tspan
             x="0 1.946 3.892 7.7839999 9.3380003 12.838 16.926001 18.872 20.818001 24.709999 26.264"
             y="0"
             id="tspan184"
             style="font-size:7px;font-variant:normal;font-weight:normal;writing-mode:lr-tb;fill:#000000;fill-opacity:0.50199998;fill-rule:nonzero;stroke:none;font-family:Helvetica;-inkscape-font-specification:Helvetica">Italy−Italy</tspan></text>
<text
           transform="matrix(1,0,0,-1,81.35,129.79)"
           id="text186"><tspan
             x="0 4.3189998 8.2110004 9.7650003 13.657 17.549 21.441 25.528999 29.848 33.740002 35.293999 39.186001 43.077999"
             y="0"
             id="tspan188"
             style="font-size:7px;font-variant:normal;font-weight:normal;writing-mode:lr-tb;fill:#000000;fill-opacity:0.50199998;fill-rule:nonzero;stroke:none;font-family:Helvetica;-inkscape-font-specification:Helvetica">Poland−Poland</tspan></text>
<text
           transform="matrix(1,0,0,-1,83.38,137.18)"
           id="text190"><tspan
             x="0 1.946 3.892 7.7839999 9.3380003 12.838 16.926001 21.245001 25.136999 27.747999 29.694 33.585999 37.478001 41.369999"
             y="0"
             id="tspan192"
             style="font-size:7px;font-variant:normal;font-weight:normal;writing-mode:lr-tb;fill:#000000;fill-opacity:0.50199998;fill-rule:nonzero;stroke:none;font-family:Helvetica;-inkscape-font-specification:Helvetica">Italy−Portugal</tspan></text>
<text
           transform="matrix(1,0,0,-1,76.8,302.67)"
           id="text194"><tspan
             x="0 4.3189998 8.2110004 10.822 12.768 16.66 20.552 24.444 25.997999 30.086 34.404999 38.297001 40.908001 42.854 46.745998 50.638 54.529999"
             y="0"
             id="tspan196"
             style="font-size:7px;font-variant:normal;font-weight:normal;writing-mode:lr-tb;fill:#000000;fill-opacity:0.50199998;fill-rule:nonzero;stroke:none;font-family:Helvetica;-inkscape-font-specification:Helvetica">Portugal−Portugal</tspan></text>
<text
           transform="matrix(1,0,0,-1,87.43,125.61)"
           id="text198"><tspan
             x="0 1.946 3.892 7.7839999 9.3380003 12.838 16.926001 21.594999 25.487 29.379 30.933001"
             y="0"
             id="tspan200"
             style="font-size:7px;font-variant:normal;font-weight:normal;writing-mode:lr-tb;fill:#000000;fill-opacity:0.50199998;fill-rule:nonzero;stroke:none;font-family:Helvetica;-inkscape-font-specification:Helvetica">Italy−Spain</tspan></text>
<text
           transform="matrix(1,0,0,-1,80.85,216.25)"
           id="text202"><tspan
             x="0 4.3189998 8.2110004 10.822 12.768 16.66 20.552 24.444 25.997999 30.086 34.755001 38.646999 42.539001 44.092999"
             y="0"
             id="tspan204"
             style="font-size:7px;font-variant:normal;font-weight:normal;writing-mode:lr-tb;fill:#000000;fill-opacity:0.50199998;fill-rule:nonzero;stroke:none;font-family:Helvetica;-inkscape-font-specification:Helvetica">Portugal−Spain</tspan></text>
<text
           transform="matrix(1,0,0,-1,84.9,184.55)"
           id="text206"><tspan
             x="0 4.6690001 8.5609999 12.453 14.007 17.899 21.987 26.656 30.548 34.439999 35.993999"
             y="0"
             id="tspan208"
             style="font-size:7px;font-variant:normal;font-weight:normal;writing-mode:lr-tb;fill:#000000;fill-opacity:0.50199998;fill-rule:nonzero;stroke:none;font-family:Helvetica;-inkscape-font-specification:Helvetica">Spain−Spain</tspan></text>
<text
           transform="matrix(1,0,0,-1,69.47,122.89)"
           id="text210"><tspan
             x="0 3.8989999 7.7909999 11.683 15.575 19.075001 20.629 24.381001 27.881001 29.434999 33.327 37.415001 41.313999 45.206001 49.098 52.990002 56.490002 58.043999 61.796001 65.295998 66.849998"
             y="0"
             id="tspan212"
             style="font-size:7px;font-variant:normal;font-weight:normal;writing-mode:lr-tb;fill:#000000;fill-opacity:0.50199998;fill-rule:nonzero;stroke:none;font-family:Helvetica;-inkscape-font-specification:Helvetica">Yugoslavia−Yugoslavia</tspan></text>
<path
           d="m 104.84,90.86 50.97,6.14 20.48,-2.65 17.93,-2.71 18.29,-3.81 21.04,-3.23 27.9,-4.14 47.33,-5.24 L 504,69.74"
           inkscape:connector-curvature="0"
           id="path214"
           style="fill:none;stroke:#000000;stroke-width:0.75;stroke-linecap:round;stroke-linejoin:round;stroke-miterlimit:10;stroke-opacity:1;stroke-dasharray:2.25, 3.75;stroke-dashoffset:0" /><path
           d="m 104.84,93.49 50.97,3.1 20.48,-2.52 17.93,-2.9 18.29,-3.18 21.04,-3.55 27.9,-4.13 47.33,-5.05 L 504,69.88"
           inkscape:connector-curvature="0"
           id="path216"
           style="fill:none;stroke:#000000;stroke-width:1.5;stroke-linecap:round;stroke-linejoin:round;stroke-miterlimit:10;stroke-opacity:1;stroke-dasharray:0, 6;stroke-dashoffset:0" /><path
           d="m 260.87,310.8 217.93,0 0,-60 -217.93,0 0,60 z"
           inkscape:connector-curvature="0"
           id="path218"
           style="fill:none;stroke:#000000;stroke-width:0.75;stroke-linecap:round;stroke-linejoin:round;stroke-miterlimit:10;stroke-opacity:1;stroke-dasharray:none" /><path
           d="m 269.87,298.8 18,0"
           inkscape:connector-curvature="0"
           id="path220"
           style="fill:none;stroke:#000000;stroke-width:0.75;stroke-linecap:round;stroke-linejoin:round;stroke-miterlimit:10;stroke-opacity:1;stroke-dasharray:none" /><path
           d="m 269.87,286.8 18,0"
           inkscape:connector-curvature="0"
           id="path222"
           style="fill:none;stroke:#000000;stroke-width:0.75;stroke-linecap:round;stroke-linejoin:round;stroke-miterlimit:10;stroke-opacity:1;stroke-dasharray:2.25, 3.75;stroke-dashoffset:0" /><path
           d="m 269.87,274.8 18,0"
           inkscape:connector-curvature="0"
           id="path224"
           style="fill:none;stroke:#000000;stroke-width:0.75;stroke-linecap:round;stroke-linejoin:round;stroke-miterlimit:10;stroke-opacity:1;stroke-dasharray:0, 3;stroke-dashoffset:0" /><path
           d="m 269.87,262.8 18,0"
           inkscape:connector-curvature="0"
           id="path226"
           style="fill:none;stroke:#ff0000;stroke-width:0.75;stroke-linecap:round;stroke-linejoin:round;stroke-miterlimit:10;stroke-opacity:1;stroke-dasharray:none" /><text
           transform="matrix(1,0,0,-1,296.87,295.21)"
           id="text228"><tspan
             x="0 7.7800002 13.34 18.34 23.9 27.530001 32.279999 37.84 43.400002 46.18 54.509998 60.07 65.629997 71.190002 73.970001 76.75 83.419998 90.639999 93.419998 96.650002 102.21 104.99"
             y="0"
             id="tspan230"
             style="font-size:10px;font-variant:normal;font-weight:normal;writing-mode:lr-tb;fill:#000000;fill-opacity:1;fill-rule:nonzero;stroke:none;font-family:Helvetica;-inkscape-font-specification:Helvetica">Observed mean IBD rate</tspan></text>
<text
           transform="matrix(1,0,0,-1,296.87,283.21)"
           id="text232"><tspan
             x="0 6.6700001 11.67 14.45 16.67 25 30.559999 33.34 38.900002 44.459999 47.240002 55.57 61.130001 66.690002 72.25 75.029999 77.510002 83.07 85.290001 90.290001 95.849998 98.629997 104.19 109.75 114.75 116.97 119.75 121.97 126.72 132.28 135.06 138.28999 143.85001 146.63"
             y="0"
             id="tspan234"
             style="font-size:10px;font-variant:normal;font-weight:normal;writing-mode:lr-tb;fill:#000000;fill-opacity:1;fill-rule:nonzero;stroke:none;font-family:Helvetica;-inkscape-font-specification:Helvetica">Estimated mean false positive rate</tspan></text>
<text
           transform="matrix(1,0,0,-1,296.87,271.21)"
           id="text236"><tspan
             x="0 6.1100001 8.3299999 11.11 13.89 19.450001 25.01 27.790001 36.119999 41.68 47.240002 52.799999 55.580002 58.360001 63.919998 66.699997 69.93 75.489998 78.269997"
             y="0"
             id="tspan238"
             style="font-size:10px;font-variant:normal;font-weight:normal;writing-mode:lr-tb;fill:#000000;fill-opacity:1;fill-rule:nonzero;stroke:none;font-family:Helvetica;-inkscape-font-specification:Helvetica">Fitted mean fp rate</tspan></text>
<text
           transform="matrix(1,0,0,-1,296.87,259.21)"
           id="text240"><tspan
             x="0 6.6700001 11.67 14.45 16.67 25 30.559999 33.34 38.900002 44.459999 47.240002 55.57 61.130001 66.690002 72.25 75.029999 77.809998 83.370003 86.150002 89.379997 94.940002 97.720001 103.13 105.91 108.69 114.05 119.05 121.83 126.83 132.39 137.95 143.50999 146.28999 149.92 154.92 160.75999 166.32001 171.88 174.10001"
             y="0"
             id="tspan242"
             style="font-size:10px;font-variant:normal;font-weight:normal;writing-mode:lr-tb;fill:#000000;fill-opacity:1;fill-rule:nonzero;stroke:none;font-family:Helvetica;-inkscape-font-specification:Helvetica">Estimated mean fp rate, by country−pair</tspan></text>
</g></g></g></svg>