<?xml version="1.0" encoding="UTF-8" standalone="no"?>
<!-- Created with Inkscape (http://www.inkscape.org/) -->

<svg
   xmlns:dc="http://purl.org/dc/elements/1.1/"
   xmlns:cc="http://creativecommons.org/ns#"
   xmlns:rdf="http://www.w3.org/1999/02/22-rdf-syntax-ns#"
   xmlns:svg="http://www.w3.org/2000/svg"
   xmlns="http://www.w3.org/2000/svg"
   xmlns:inkscape="http://www.inkscape.org/namespaces/inkscape"
   version="1.1"
   width="765"
   height="990"
   id="svg2"
   xml:space="preserve"><metadata
     id="metadata8"><rdf:RDF><cc:Work
         rdf:about=""><dc:format>image/svg+xml</dc:format><dc:type
           rdf:resource="http://purl.org/dc/dcmitype/StillImage" /></cc:Work></rdf:RDF></metadata><defs
     id="defs6" /><g
     transform="matrix(1.25,0,0,-1.25,0,990)"
     id="g10"><text
       transform="matrix(1,0,0,-1,102.131,668.194)"
       id="text12"><tspan
         x="0 11.493001 20.288349 32.483738 44.987282 51.983624 59.878605 67.77359 73.86956 81.764542 90.559891 98.907639 112.451 120.34598 130.27582 141.99089 148.98724 155.98358 162.97992 171.32767 182.62268 195.12624 202.12257 210.91792 217.91426 224.01022 228.30719 240.50258 252.43802 261.23337 268.22971 275.22604 281.41327 287.50922 293.60519 307.14856 315.04355 322.03989 328.13586 336.03082 342.21805 353.60431 364.41904 373.21439 379.31036 387.20532 396.44827 403.44461"
         y="0"
         id="tspan14"
         style="font-size:17.2154007px;font-variant:normal;font-weight:normal;writing-mode:lr-tb;fill:#000000;fill-opacity:1;fill-rule:nonzero;stroke:none;font-family:CMR17;-inkscape-font-specification:CMR17">TheGeographyofRecentGeneticAncestryacrossEurope.</tspan></text>
<text
       transform="matrix(1,0,0,-1,220.751,639.303)"
       id="text16"><tspan
         x="0 7.6417637 12.844666 17.397207 22.600111 31.050045 39.664963 45.518227 48.770042 55.27367"
         y="0"
         id="tspan18"
         style="font-size:11.9552002px;font-variant:normal;font-weight:normal;writing-mode:lr-tb;fill:#000000;fill-opacity:1;fill-rule:nonzero;stroke:none;font-family:CMR12;-inkscape-font-specification:CMR12">PeterRalph</tspan></text>
<text
       transform="matrix(1,0,0,-1,282.528,643.641)"
       id="text20"><tspan
         x="0"
         y="0"
         id="tspan22"
         style="font-size:7.97009993px;font-variant:normal;font-weight:normal;writing-mode:lr-tb;fill:#000000;fill-opacity:1;fill-rule:nonzero;stroke:none;font-family:CMR8;-inkscape-font-specification:CMR8">1</tspan></text>
<text
       transform="matrix(1,0,0,-1,291.163,639.303)"
       id="text24"><tspan
         x="0 5.8532658 12.356894 22.757919 31.943098 36.49564 42.348904 48.852535 54.705799 68.37059 76.813354 83.001366 88.85463"
         y="0"
         id="tspan26"
         style="font-size:11.9552002px;font-variant:normal;font-weight:normal;writing-mode:lr-tb;fill:#000000;fill-opacity:1;fill-rule:nonzero;stroke:none;font-family:CMR12;-inkscape-font-specification:CMR12">andGrahamCoop</tspan></text>
<text
       transform="matrix(1,0,0,-1,386.517,643.641)"
       id="text28"><tspan
         x="0"
         y="0"
         id="tspan30"
         style="font-size:7.97009993px;font-variant:normal;font-weight:normal;writing-mode:lr-tb;fill:#000000;fill-opacity:1;fill-rule:nonzero;stroke:none;font-family:CMR8;-inkscape-font-specification:CMR8">1</tspan></text>
<text
       transform="matrix(1,0,0,-1,157.402,629.164)"
       id="text32"><tspan
         x="0"
         y="0"
         id="tspan34"
         style="font-size:5.9776001px;font-variant:normal;font-weight:normal;writing-mode:lr-tb;fill:#000000;fill-opacity:1;fill-rule:nonzero;stroke:none;font-family:CMR6;-inkscape-font-specification:CMR6">1</tspan></text>
<text
       transform="matrix(1,0,0,-1,164.625,625.355)"
       id="text36"><tspan
         x="0 7.0386238 11.138062 16.257877 20.865709 24.470201 28.054071 35.733795 39.833233 44.69302 51.352367 55.960197 61.851124 68.113258 72.725571 77.333405 79.893311 85.01313 88.597 91.156906 95.76474 103.95107 108.55889 113.67871 121.874 128.1451 132.24095 136.84879 139.40869 144.01653 148.62436 156.5632 166.79745 173.45322 177.55266 182.41245 185.99631 190.09575 196.77571 199.59117 204.19901 210.87897 216.89005 221.49788 226.61769 231.7375 234.29741 238.90524 242.48912 245.04903 249.65686 257.85214 264.37878 266.93869 271.54654 274.10645 278.71426 283.32211 287.41437"
         y="0"
         id="tspan38"
         style="font-size:8.96640015px;font-variant:normal;font-weight:normal;writing-mode:lr-tb;fill:#000000;fill-opacity:1;fill-rule:nonzero;stroke:none;font-family:CMR9;-inkscape-font-specification:CMR9">DepartmentofEvolutionandEcology&amp;CenterforPopulationBiology,</tspan><tspan
         x="78.778999 85.689407 90.809219 93.369125 97.972473 102.07191 105.67641 109.31139 111.87129 115.2041 123.13399 127.74182 133.63275 140.2885 144.89633 147.45624 150.01614 152.8316 157.43944 161.04393 166.16374 168.72365 173.33148 178.96686 186.00549 190.3533 195.21667 197.77658 201.41156"
         y="13.948"
         id="tspan40"
         style="font-size:8.96640015px;font-variant:normal;font-weight:normal;writing-mode:lr-tb;fill:#000000;fill-opacity:1;fill-rule:nonzero;stroke:none;font-family:CMR9;-inkscape-font-specification:CMR9">UniversityofCalifornia,Davis.</tspan><tspan
         x="-44.328999 -38.444351 -30.761044 -24.105286 -18.98547 -14.377638 -3.631407 0.46444449 5.0722775 8.6767702 12.281263 16.380701 20.01568 25.395519 30.003353 35.123169 40.242981 44.342419 49.462234 53.558086 60.724033 64.359009 69.478828 74.086655 79.206474 81.76638 89.96167 95.332542 102.50745 107.11529 112.23511 117.35492 120.95941 125.05885 128.69383 132.32881 136.42824 141.54807"
         y="27.896"
         id="tspan42"
         style="font-size:8.96640015px;font-variant:normal;font-weight:normal;writing-mode:lr-tb;fill:#000000;fill-opacity:1;fill-rule:nonzero;stroke:none;font-family:CMR9;-inkscape-font-specification:CMR9">Towhomcorrespondenceshouldbeaddressed:</tspan></text>
<text
       transform="matrix(1,0,0,-1,312.827,597.459)"
       id="text44"><tspan
         x="0 4.7073598 9.4147196 14.12208 18.829439 23.5368 28.24416 32.951519 37.658878 42.366241 47.073601 51.78096 56.488319 61.195679 65.903038 70.610397 75.317757 80.025124 84.732483 89.439842 94.147202 98.854561 103.56192 108.26928 112.97664 117.684 122.39136 127.09872 131.80608 136.51344 141.22079 145.92816 150.63551 155.34288 160.05025 164.7576 169.46497 174.17232"
         y="0"
         id="tspan46"
         style="font-size:8.96640015px;font-variant:normal;font-weight:normal;writing-mode:lr-tb;fill:#000000;fill-opacity:1;fill-rule:nonzero;stroke:none;font-family:CMTT9;-inkscape-font-specification:CMTT9">plralph@ucdavis.edu,gmcoop@ucdavis.edu</tspan></text>
<text
       transform="matrix(1,0,0,-1,72,557.34)"
       id="text48"><tspan
         x="0 12.187097 21.153471 27.520315 33.79678 40.388855 48.234795 55.407894"
         y="0"
         id="tspan50"
         style="font-size:14.34619999px;font-variant:normal;font-weight:normal;writing-mode:lr-tb;fill:#000000;fill-opacity:1;fill-rule:nonzero;stroke:none;font-family:CMBX12;-inkscape-font-specification:CMBX12">Abstract</tspan></text>
<text
       transform="matrix(1,0,0,-1,72,535.52)"
       id="text52"><tspan
         x="0 7.1949897 12.73021 20.594687 24.497038 28.924417 33.351795 37.779175 43.035442 50.346996 55.328297 59.755676 65.290894 69.718277 74.699577 77.467186 82.448486 87.429787 90.197395 94.634735 99.616035 105.82075 111.35596 114.11361 118.05283 121.92728 126.90858 130.81093 139.50629 144.48759 150.96925 156.22552 161.76074 170.06258 175.04388 184.01619 189.83037 194.81168 200.34689 205.87215 208.63976 213.62106 217.49551 220.26312 225.24443 230.77965 238.15596 240.9136 248.28992 256.70831 261.13568 266.11697 274.41882 279.95404 282.72165 287.14902 295.84439 304.14621 309.12753 313.05676 318.03809 320.80569 328.67017 331.71472 336.69601 340.59839 348.90021 353.32761 362.29993 367.55618 376.25153 379.01913 384.55438 390.0896 392.85721 398.11545 400.88306 406.4183 411.95352 416.93481 423.13953 431.44135 434.20895 439.19028 443.09262 448.07391 451.94836 454.71597 459.69727 465.23251"
         y="0"
         id="tspan54"
         style="font-size:9.96259975px;font-variant:normal;font-weight:normal;writing-mode:lr-tb;fill:#000000;fill-opacity:1;fill-rule:nonzero;stroke:none;font-family:CMR10;-inkscape-font-specification:CMR10">Therecentgenealogicalhistoryofhumanpopulationsisacomplexmosaicformedbyindividualmigration,</tspan><tspan
         x="0 2.7676103 7.7489104 11.65126 16.632561 21.05994 24.380474 28.309725 32.737103 37.718403 40.486015 47.692959 53.497169 58.47847 64.013687 69.548912 72.316521 77.297821 81.172279 83.939888 88.921188 97.23597 105.5378 110.24015 115.21946 119.64684 127.94868 132.37605 137.64229 141.51674 145.44598 151.09279 156.0741 161.60931 169.9241 174.9054 178.77985 184.31508 188.74245 195.41441 200.94963 205.377 213.67885 218.66014 223.64143 227.54379 232.52509 238.06032 243.59554 246.36314 253.57008 257.99747 262.97678 267.40414 272.66043 276.53488 280.46411 287.4758 293.97739 298.96866 304.49393 310.02914 312.79675 317.77805 321.6525 324.4201 329.40143 337.71619 342.69751 347.12488 352.6601 357.64139 365.94324 368.71085 373.13821 379.84705 385.38226 390.36356 394.23801 399.21933 403.14856 407.57596 411.45041 418.14926 422.57663 427.55792 435.87271 441.40793 445.31027 450.01263 455.2709 458.03851 463.57373"
         y="11.956"
         id="tspan56"
         style="font-size:9.96259975px;font-variant:normal;font-weight:normal;writing-mode:lr-tb;fill:#000000;fill-opacity:1;fill-rule:nonzero;stroke:none;font-family:CMR10;-inkscape-font-specification:CMR10">large-scalepopulationmovements,andotherdemographicevents.Populationgenomicsdatasetscanprovide</tspan><tspan
         x="0 8.1593695 15.354359 18.121969 23.65719 29.192411 33.894756 44.277779 47.045391 52.301659 56.176113 64.33548 68.209938 73.745155 76.512772 83.630051 87.532402 91.959778 96.387161 100.81454 106.07081 113.12333 118.65855 121.42616 125.35541 129.22986 134.21117 138.11351 142.54488 148.52045 153.50175 160.60907 164.51141 169.49272 173.39507 181.01048 184.88493 188.77733 193.75862 198.19597 202.62334 209.73067 214.71196 220.9346 224.83696 229.26433 233.69171 238.11909 243.37537 250.43785 254.3671 259.90231 264.88361 268.78598 273.21335 281.92664 286.90793 291.33533 296.87054 301.29791 305.17236 307.93997 315.54544 320.52673 326.06195 330.48932 334.92667 338.85593 342.73038 346.63272 355.06906 360.05035 363.9527 371.55817 377.09338 381.52075 385.3952 389.8226 394.24997 398.12442 403.10571 408.64096 411.40857 419.02396 424.54922 430.08444 437.69986 441.57431 449.73367 452.50128 457.4826 463.01782"
         y="23.910999"
         id="tspan58"
         style="font-size:9.96259975px;font-variant:normal;font-weight:normal;writing-mode:lr-tb;fill:#000000;fill-opacity:1;fill-rule:nonzero;stroke:none;font-family:CMR10;-inkscape-font-specification:CMR10">awindowintothisrecenthistory,asraretracesofrecentsharedgeneticancestryaredetectableduetolong</tspan><tspan
         x="0 3.9292495 8.3566284 13.337929 21.639763 26.067142 31.32341 35.197865 42.79335 47.774651 54.485458 58.414707 63.949928 68.931229 72.83358 77.260956 86.452454 91.433754 95.86113 101.39635 106.37766 114.67949 117.4471 125.54072 133.84254 138.82385 142.6983 147.12569 151.02803 153.79564 158.77695 161.54456 169.7617 179.17438 187.25803 195.56982 200.55112 205.53043 213.61409 219.14931 223.07855 231.17216 236.15347 242.86427 247.84558 252.27296 257.80817 262.78949 271.09131 273.85892 281.94257 287.47778 292.45911 296.33356 304.98108 308.02567 313.00696 320.56558 325.54688 330.5282 335.50949 344.15701 350.93756 356.47278 360.37512 365.35645 371.17062 375.59799 380.57928 386.1145 393.70004 397.57449 400.3421 409.54355 413.418 418.95325 427.04684 433.81744 441.56635 448.34689 455.68036 462.46091"
         y="35.866001"
         id="tspan60"
         style="font-size:9.96259975px;font-variant:normal;font-weight:normal;writing-mode:lr-tb;fill:#000000;fill-opacity:1;fill-rule:nonzero;stroke:none;font-family:CMR10;-inkscape-font-specification:CMR10">segmentsofsharedgenomicmaterial.Wemakeuseofgenomicdatafor2257Europeans(inthePOPRES</tspan><tspan
         x="0 5.5352206 10.516521 14.390976 19.372276 23.301525 27.728905 31.603359 38.197605 42.07206 49.763187 54.190567 59.171867 64.707085 70.24231 75.777527 80.20491 86.799156 91.780449 97.315674 104.45288 109.43418 115.19854 119.073 124.60822 131.74542 137.28064 141.183 145.11224 151.70648 155.63574 161.17096 165.0733 170.05261 174.48 179.73825 186.3873 191.36859 197.12299 201.02534 205.45273 209.8801 214.30748 219.57372 226.15799 231.1393 235.56667 241.1019 245.52927 250.51057 253.27818 258.25949 263.24078 266.00839 270.43576 275.41708 280.90448 285.88577 291.42099 295.84836 300.27576 304.20502 308.07947 311.98181 319.94989 324.6622 329.64151 334.06888 340.68106 344.55551 350.09076 357.23792 362.77313 367.75443 371.68369 378.27792 382.15237 387.68759 391.57999 396.01733 403.15454 407.02899 412.56421 417.54553 423.08075 427.00998 431.9913 437.52652 445.78152 450.76083 455.1882 460.16949 464.07187"
         y="47.820999"
         id="tspan62"
         style="font-size:9.96259975px;font-variant:normal;font-weight:normal;writing-mode:lr-tb;fill:#000000;fill-opacity:1;fill-rule:nonzero;stroke:none;font-family:CMR10;-inkscape-font-specification:CMR10">dataset)toconductoneoftheﬁrstsurveysofrecentgenealogicalancestryoverthepastthreethousandyears</tspan><tspan
         x="0 4.9812999 12.173301 20.482109 24.909489 29.890789 35.147057 39.021511 41.789124 47.324341 51.75172 57.007988 60.882446 65.863747 71.948898 75.878151 80.305527 85.286827 88.054443 92.481819"
         y="59.776001"
         id="tspan64"
         style="font-size:9.96259975px;font-variant:normal;font-weight:normal;writing-mode:lr-tb;fill:#000000;fill-opacity:1;fill-rule:nonzero;stroke:none;font-family:CMR10;-inkscape-font-specification:CMR10">atacontinentalscale.</tspan><tspan
         x="14.944 24.356665 32.141441 37.676662 42.104038 45.978497 50.405876 54.833256 58.70771 63.13509 72.027702 77.009003 79.776619 88.115311 96.417145 99.184753 101.95237 104.71998 107.48759 112.46889 121.37147 125.30072 130.83594 135.81723 139.71959 144.14697 153.03958 155.80719 160.7885 166.32372 174.66241 179.64371 184.07109 189.60631 194.58762 202.88945 205.65706 213.44183 217.37108 221.79846 226.77975 235.08159 239.50897 244.77521 248.64966 252.5789 258.71387 263.69519 269.23041 278.12302 283.65823 287.58749 292.01486 300.90747 304.78195 310.31717 318.10193 320.86954 325.29694 330.83215 335.81345 339.6879 345.22311 352.51971 357.50104 363.90298 367.77744 373.31268 377.74005 381.66931 389.45407 393.32852 401.66724 404.43484 409.97006 413.01462 417.44202 424.70175 428.5762 434.11142 441.90616 447.44138 450.20898 454.13824 458.0127 461.91504 464.68268"
         y="71.732002"
         id="tspan66"
         style="font-size:9.96259975px;font-variant:normal;font-weight:normal;writing-mode:lr-tb;fill:#000000;fill-opacity:1;fill-rule:nonzero;stroke:none;font-family:CMR10;-inkscape-font-specification:CMR10">Wedetected1.9millionsharedlonggenomicsegments,andusedthelengthsofthesetoinferthedistri-</tspan><tspan
         x="0 5.5352206 11.070441 14.944897 17.712507 22.693806 31.965002 36.946301 43.726849 47.656097 53.191319 58.172619 62.074966 66.50235 75.783508 80.764809 86.300026 90.727409 95.154785 99.084038 102.95849 107.93979 111.84214 119.50736 124.48866 128.91605 132.81839 137.7997 141.72894 149.40413 153.27858 156.0462 164.34804 172.51138 177.49269 183.02791 192.2991 197.2804 201.70778 206.68909 211.67038 215.57274 220.55403 226.08925 231.34552 235.77689 244.22318 253.63583 261.79919 267.33441 272.86963 282.15079 286.02524 291.56046 296.54178 304.15219 312.86948 318.40469 323.38599 326.15359 333.79193 338.77322 345.56375 353.86557 359.11588 364.65109 369.07846 372.9808 382.26196 389.04251 394.57773 398.4801 403.4614 409.26559 413.69299 418.67429 424.2095 431.88467 434.65228 437.41992 442.67816 445.44577 450.98099 459.69827 462.46588"
         y="83.686996"
         id="tspan68"
         style="font-size:9.96259975px;font-variant:normal;font-weight:normal;writing-mode:lr-tb;fill:#000000;fill-opacity:1;fill-rule:nonzero;stroke:none;font-family:CMR10;-inkscape-font-specification:CMR10">butionofsharedancestorsacrosstimeandgeography.WeﬁndthatapairofmodernEuropeanslivingin</tspan><tspan
         x="0 5.5352206 9.9625998 12.73021 17.71151 22.967777 28.781952 33.763252 37.665604 40.433212 45.968433 53.76915 59.583321 64.564621 70.099846 75.635063 78.402672 83.383972 87.25843 90.016075 94.997375 100.5326 107.29122 111.22047 116.75569 121.73699 125.63934 132.88614 137.86745 141.76979 146.75108 152.28632 157.81157 166.1662 171.14751 176.1288 181.12007 188.92078 193.90208 198.32947 203.86469 208.29207 212.16652 214.93413 222.18092 226.60831 231.5896 239.89143 248.19327 253.17458 261.52921 266.5105 272.04572 276.47311 280.90048 284.82974 288.70419 293.68549 297.58783 304.33652 307.38107 311.28342 316.26474 327.38599 331.26044 336.79565 344.04245 346.81006 351.79135 355.72061 362.41449 367.39578 372.37708 377.35837 385.15909 390.1384 394.5658 399.54709 403.44943 407.37869 413.06534 418.04663 423.58185 431.93649 437.47171 442.73795 449.65399 454.63528 458.53763 464.07285"
         y="95.641998"
         id="tspan70"
         style="font-size:9.96259975px;font-variant:normal;font-weight:normal;writing-mode:lr-tb;fill:#000000;fill-opacity:1;fill-rule:nonzero;stroke:none;font-family:CMR10;-inkscape-font-specification:CMR10">neighboringpopulationssharearound2–12geneticcommonancestorsfromthelast1500years,andupwards</tspan><tspan
         x="0 4.9812999 10.735698 15.716998 20.698298 28.379463 33.360764 37.788143 43.323364 47.75074 51.625198 54.392807 61.530014 66.511314 72.046532 76.473915 80.901291 84.830544 88.704994 93.686295 97.588646 104.22772 107.27229 111.17464 116.15594 127.16761 131.04207 136.57729 143.71449 149.23975 153.14211 157.56947 162.82774 165.59535 170.57664 176.11186 182.75095 187.73224 192.71355 197.69484 205.38597 210.36528 214.79266 219.77396 223.67632 227.60556 234.59731 241.7923 247.32753 251.7549 255.68416 262.82135 268.07764 273.61285 281.63574 287.44989 291.87729 295.77963 302.4187 307.95392 311.85629 316.83759 325.08264 330.06393 338.57498 343.00235 348.26062 354.0748 359.05609 364.59131 369.01868 374.27496 378.14941 380.91702 385.89832 388.66592 391.43353 399.40164 406.59662 409.36423 413.23868 421.48373 426.46503 430.89243 435.87372 440.85501 444.75735 449.73868 455.2739 460.80911 463.57672"
         y="107.597"
         id="tspan72"
         style="font-size:9.96259975px;font-variant:normal;font-weight:normal;writing-mode:lr-tb;fill:#000000;fill-opacity:1;fill-rule:nonzero;stroke:none;font-family:CMR10;-inkscape-font-specification:CMR10">of100geneticancestorsfromtheprevious1000years.Thesenumbersdropoﬀexponentiallywithgeographic</tspan><tspan
         x="0 5.5352206 8.3028307 12.23208 16.106535 21.087835 26.623056 31.050436 35.477814 41.503197 47.038414 52.573635 59.685936 63.615185 66.382797 71.918015 76.345398 84.020584 87.895035 93.43026 97.857635 101.78689 109.45211 114.43341 118.86079 124.39601 128.82339 132.69785 135.46545 143.14064 148.12195 153.65717 158.08455 162.51192 166.44118 170.31563 175.29692 179.19928 186.36638 191.34767 195.25003 202.92522 211.14435 215.01881 217.78642 223.04269 231.54875 234.59332 238.49568 243.47697 247.90436 251.77881 254.54642 259.52771 268.30078 273.28207 279.56451 283.99188 288.97318 297.27502 305.57684 310.55817 319.34119 324.32248 328.74985 334.2851 338.71246 343.69376 346.46136 351.44266 356.42398 359.19159 363.61896 368.60025 374.60571 379.58701 385.12222 389.54962 393.97699 397.90625 401.7807 406.76199 410.66434 414.5936 420.61899 423.3866 428.92181 434.45703 437.22464 442.48291 445.25052 450.78574 456.32095 461.30225 464.06985"
         y="119.552"
         id="tspan74"
         style="font-size:9.96259975px;font-variant:normal;font-weight:normal;writing-mode:lr-tb;fill:#000000;fill-opacity:1;fill-rule:nonzero;stroke:none;font-family:CMR10;-inkscape-font-specification:CMR10">distance,butsincethesegeneticancestorsareatinyfractionofcommongenealogicalancestors,individuals</tspan><tspan
         x="0 3.0445704 6.9469209 11.928221 23.418087 28.399387 33.934608 39.748783 44.73008 48.659332 51.426941 55.301395 62.926769 67.354149 72.889374 78.424591 85.54187 90.52317 96.765739 103.54628 109.0815 112.98386 117.96516 123.76936 131.39474 136.37604 140.2784 147.8938 151.83301 155.70747 158.46512 161.23273 167.19833 171.62572 176.88397 182.69815 187.12552 191.5529 195.42735 199.85474 208.57799 212.45244 220.63174 224.56099 230.09621 235.07751 238.97986 246.59528 254.89711 257.6647 260.43231 263.19995 265.96756 270.94885 276.48407 283.6113 288.59262 294.82523 299.25259 304.23389 312.53574 320.83755 325.81888 334.55206 339.53339 343.96075 349.49597 353.92337 358.90466 361.67227 366.65356 371.63486 374.40247 378.82986 383.81116 389.76678 394.74811 400.28333 404.71069 409.14804 413.0773 416.95175 421.93304 425.83539 432.95267 437.65503 442.64429 447.07169 454.16205 458.0365 463.57175"
         y="131.507"
         id="tspan76"
         style="font-size:9.96259975px;font-variant:normal;font-weight:normal;writing-mode:lr-tb;fill:#000000;fill-opacity:1;fill-rule:nonzero;stroke:none;font-family:CMR10;-inkscape-font-specification:CMR10">fromoppositeendsofEuropearestillexpectedtosharemillionsofcommongenealogicalancestorsoverthe</tspan><tspan
         x="0 2.7676103 7.7489104 11.67816 19.069412 24.050713 29.032013 34.013313 42.51141 47.490719 51.918098 56.899399 60.801746 64.730995 72.509796 79.704788 85.240005 89.667381 93.569733 101.51392 104.28152 111.71761 116.69891 119.46651 123.39577 131.89386 135.82312 141.35834 146.89355 150.8228 154.69727 159.67856 164.93483 168.80928 171.57689 176.5582 182.84261 186.74495 191.17233 196.15363 198.92123 203.90254 209.43776 214.41907 220.70348 225.40382 230.38513 234.28748 237.05508 242.03639 245.91084 248.67845 253.65974 262.71176 265.47937 274.5314 278.40585 283.94107 291.88525 297.14151 302.67673 310.69962 316.51379 320.94116 328.36032 333.34161 339.89304 343.82227 349.35748 354.33881 358.24115 362.66852 371.72055 376.70184 381.12921 386.66446 391.09183 394.96628 397.73389 405.67807 410.65936 416.19458 420.62198 425.04935 428.97861 432.85306 437.83435 441.73669 445.66595 453.44476 459.11148 464.10275"
         y="143.463"
         id="tspan78"
         style="font-size:9.96259975px;font-variant:normal;font-weight:normal;writing-mode:lr-tb;fill:#000000;fill-opacity:1;fill-rule:nonzero;stroke:none;font-family:CMR10;-inkscape-font-specification:CMR10">last1000years.Thereisalsosubstantialregionalvariationinthenumberofsharedgeneticancestors.For</tspan><tspan
         x="0 4.4273796 9.6856394 14.66694 22.968775 28.503994 31.271605 35.698986 41.794102 45.66856 51.203777 55.631157 59.533508 67.278435 72.259735 76.162086 83.916969 88.344353 92.273598 98.087776 102.51515 106.94254 109.71014 114.69144 117.45905 120.22666 128.80247 134.33769 137.1053 142.08659 150.94933 156.2056 161.74081 169.7637 175.57788 180.00525 183.90761 191.16437 196.14566 202.50778 206.93515 211.91646 220.21829 228.52013 233.50142 242.36415 247.34546 252.88068 257.30804 261.73544 265.66467 269.53915 274.52045 278.42279 285.66959 289.59885 295.13406 300.11536 304.0177 308.4451 317.3078 323.12198 327.54938 331.14487 338.06091 342.48828 346.91568 355.77838 364.08023 369.06152 374.31781 382.90356 387.33093 392.31226 396.24149 400.11594 404.54333 408.44568 417.29843 423.11261 428.09393 433.62915 439.16437 441.93198 446.91327 450.78772 453.55533 458.53662 464.07187"
         y="155.418"
         id="tspan80"
         style="font-size:9.96259975px;font-variant:normal;font-weight:normal;writing-mode:lr-tb;fill:#000000;fill-opacity:1;fill-rule:nonzero;stroke:none;font-family:CMR10;-inkscape-font-specification:CMR10">example,thereareespeciallyhighnumbersofcommonancestorssharedbetweenmanyeasternpopulations</tspan><tspan
         x="0 7.1949897 12.73021 15.497821 19.646248 29.574974 35.110195 40.091496 43.96595 52.786835 56.689186 61.670486 67.205704 72.187004 77.722229 80.489838 90.141602 94.01606 103.40083 107.27528 112.8105 121.63139 129.93323 132.70084 137.68213 141.58449 146.56578 150.44025 153.20786 158.18915 168.11787 173.93205 178.35944 182.26178 185.02939 190.27968 200.2084 204.08287 211.27785 216.81308 219.58069 223.73907 233.6678 236.43541 241.97063 246.39801 249.16562 254.70084 260.23605 264.66345 272.98621 276.86066 282.39587 291.21677 296.75198 299.51959 304.22192 309.48019 312.2478 321.0687 326.04999 331.58521 341.51395 348.9859 354.52112 360.05634 365.59155 368.35916 377.18005 381.60742 386.86569 392.40091 397.3822 402.91742 406.84668 409.61429 414.59558 420.1308 428.46353 431.23114 436.4874 440.36188 449.73666 453.61111 459.14633 464.12766"
         y="167.373"
         id="tspan82"
         style="font-size:9.96259975px;font-variant:normal;font-weight:normal;writing-mode:lr-tb;fill:#000000;fill-opacity:1;fill-rule:nonzero;stroke:none;font-family:CMR10;-inkscape-font-specification:CMR10">whichdateroughlytothemigrationperiod(whichincludestheSlavicandHunnicexpansionsintothat</tspan><tspan
         x="0 3.9023504 8.32973 13.311029 16.07864 21.05994 26.595161 30.469616 37.640694 43.175915 48.157215 56.459049 64.124275 69.105576 75.397957 79.272408 84.807632 92.482819 95.250427 99.952774 106.86881 111.29619 115.22544 122.3477 125.11531 129.54269 134.522 138.94937 141.717 148.89404 153.87535 160.15776 164.58514 169.56644 177.86827 186.1701 191.15141 199.93443 204.91574 210.45096 214.87834 219.30573 223.23497 227.10942 231.01178 239.51784 244.49915 248.40149 256.06671 259.99597 264.42334 268.85074 277.63376 280.40137 289.18439 293.05884 298.58411 306.25928 309.85678 313.73123 318.71255 321.48016 324.24777 329.22906 338.01208 342.99338 348.52859 357.30167 360.89917 366.71335 371.14072 375.04306 377.81067 382.79199 391.57501 397.37921 401.80661 407.34183 410.10944 415.64465 419.57391 425.10913 427.87674 432.85803 436.78729 442.81265 450.00766 455.54288 458.31049 462.46887"
         y="179.328"
         id="tspan84"
         style="font-size:9.96259975px;font-variant:normal;font-weight:normal;writing-mode:lr-tb;fill:#000000;fill-opacity:1;fill-rule:nonzero;stroke:none;font-family:CMR10;-inkscape-font-specification:CMR10">region).SomeofthelowestlevelsofcommonancestryareseenintheItalianandIberianpeninsulas,which</tspan><tspan
         x="0 8.3018341 13.004182 20.792942 23.560553 29.095774 34.630993 37.398605 41.825985 46.807285 50.68174 57.629658 63.164875 65.932487 71.743668 76.171051 80.073402 84.500778 89.767014 96.162003 100.58939 106.40057 110.82795 115.25533 119.12978 125.58953 130.57083 136.1459 141.68112 144.44873 148.37799 152.25244 157.23373 161.13609 163.9037 168.33109 173.31238 178.60052 184.4147 189.396 194.93121 200.46645 203.23405 208.21535 212.08981 214.85742 219.83871 227.89447 232.32185 237.58011 243.11534 248.09663 253.63185 257.5611 260.3287 265.31003 270.84525 277.30499 280.0726 288.12836 292.00281 297.53802 301.96542 305.90463 312.85254 317.83383 321.73618 326.16357 331.14487 337.60461 342.58591 348.12112 353.65637 358.63766 363.61896 370.04184 378.34369 383.32498 387.22733 394.18521 398.11447 401.98892 406.97021 412.50543 415.27304 423.0618 426.99106 430.86551 434.76785 440.30307 444.73047 448.60492 454.14014 458.03253 462.46988"
         y="191.283"
         id="tspan86"
         style="font-size:9.96259975px;font-variant:normal;font-weight:normal;writing-mode:lr-tb;fill:#000000;fill-opacity:1;fill-rule:nonzero;stroke:none;font-family:CMR10;-inkscape-font-specification:CMR10">mayindicatediﬀerenteﬀectsofhistoricalpopulationexpansionsintheseareasand/ormorestablystructured</tspan><tspan
         x="0 5.8141732 10.795473 16.330694 21.865915 24.633524 29.614824 33.489281 36.256889 41.23819 46.773411 50.70266"
         y="203.23801"
         id="tspan88"
         style="font-size:9.96259975px;font-variant:normal;font-weight:normal;writing-mode:lr-tb;fill:#000000;fill-opacity:1;fill-rule:nonzero;stroke:none;font-family:CMR10;-inkscape-font-specification:CMR10">populations.</tspan><tspan
         x="14.944 21.445593 26.426893 31.962112 37.497334 40.264946 45.246243 49.120701 51.888309 56.86961 66.409798 71.391098 75.818474 81.353699 86.334999 94.636833 97.404442 105.83678 111.372 116.3533 120.22776 125.20906 129.13831 133.56569 137.44014 145.37436 150.90958 155.61192 160.59123 169.02357 173.45096 178.43225 183.96748 187.89673 190.66434 196.19955 200.62694 204.52928 209.51059 215.04581 217.81342 226.24576 232.05994 236.76228 243.67833 248.1057 256.01303 259.88748 268.87375 274.40897 279.94418 284.37155 289.07391 294.05322 298.48059 306.38791 310.29025 314.71765 319.14502 323.57239 328.82867 336.7081 342.24332 346.67068 354.97253 359.95383 364.93512 368.83746 373.81876 379.354 384.88922 387.65683 396.08917 401.62439 404.392 408.32126 412.19571 417.177 421.07935 425.51071 432.45267 437.43396 442.96918 452.49939 459.6944 462.46201 465.22961"
         y="215.194"
         id="tspan90"
         style="font-size:9.96259975px;font-variant:normal;font-weight:normal;writing-mode:lr-tb;fill:#000000;fill-opacity:1;fill-rule:nonzero;stroke:none;font-family:CMR10;-inkscape-font-specification:CMR10">Populationgenomicdatasetshaveconsiderablepowertouncoverrecentdemographichistory,andwill</tspan><tspan
         x="0 4.9812999 7.7489104 10.516521 15.218867 25.741365 34.040211 42.063095 47.598312 51.746742 60.60947 63.654041 69.189262 71.956871 74.72448 79.151863 86.371758 91.906975 94.674591 99.101967 102.97643 108.51164 112.41399 120.15892 125.14022 131.50233 135.37679 140.91202 148.6669 153.09428 155.86189 160.84319 164.77243 172.51736 177.49866 181.92604 187.46126 191.88864 196.86995 199.63756 204.61885 209.60016 212.36777 216.79514 221.77644 227.87157 233.12982 235.89743 241.43265 245.36191 250.89713 253.66473 262.51749 267.49881 273.8609 276.62854 282.16376 287.69897 290.46658 295.72482 298.49246 304.02768 309.5629 314.54419 317.3118 324.55859 329.53989 333.96729 337.86963 342.85092 346.78018 354.03693 357.91138 363.44659 371.19153 378.10757 383.08887 386.99121 389.75882 395.29404"
         y="227.149"
         id="tspan92"
         style="font-size:9.96259975px;font-variant:normal;font-weight:normal;writing-mode:lr-tb;fill:#000000;fill-opacity:1;fill-rule:nonzero;stroke:none;font-family:CMR10;-inkscape-font-specification:CMR10">allowamuchfullerpictureoftheclosegenealogicalkinshipofindividualsacrosstheworld.</tspan></text>
<g
       transform="translate(72,286.31)"
       id="g94"><path
         d="M 0,0 468,0"
         inkscape:connector-curvature="0"
         id="path96"
         style="fill:none;stroke:#000000;stroke-width:0.398;stroke-linecap:butt;stroke-linejoin:miter;stroke-miterlimit:10;stroke-opacity:1;stroke-dasharray:none" /></g><text
       transform="matrix(1,0,0,-1,72,256.222)"
       id="text98"><tspan
         x="0 12.187097 21.153471 27.429934 36.396309 44.466045 56.43795 65.404327 74.370697 87.820267 101.26983 109.11576 115.70784"
         y="0"
         id="tspan100"
         style="font-size:14.34619999px;font-variant:normal;font-weight:normal;writing-mode:lr-tb;fill:#000000;fill-opacity:1;fill-rule:nonzero;stroke:none;font-family:CMBX12;-inkscape-font-specification:CMBX12">AuthorSummary</tspan></text>
<text
       transform="matrix(1,0,0,-1,72,234.401)"
       id="text102"><tspan
         x="0 5.6766896 10.104069 21.463425 26.444725 33.653664 39.188885 47.282501 52.54076 58.075981 62.778328 74.137688 79.11898 84.654205 92.720924 95.765495 100.7468 109.04863 111.81624 114.58385 124.00648 129.5417 132.30931 136.23856 140.11301 145.09431 148.99666 151.76427 156.19165 164.28526 172.5871 177.56841 181.47075 190.0625 193.93695 199.47217 204.45348 214.15306 223.29872 226.34329 230.77068 242.13004 247.11133 251.53871 257.07394 261.50131 265.40366 270.38498 274.25943 277.02704 282.00833 287.54355 295.63718 301.17239 306.15369 310.30212 315.56036 325.28189 332.47687 338.01208 342.43948 346.34183 350.7692 353.81378 358.79507 362.69742 367.12479 374.26599 377.0336 385.07242 387.84003 395.93365 400.36102 405.34232 409.28156 418.70416 422.56866 431.71432 436.42664 441.40594 445.83331 449.73569 452.5033 457.76355 462.74484"
         y="0"
         id="tspan104"
         style="font-size:9.96259975px;font-variant:normal;font-weight:normal;writing-mode:lr-tb;fill:#000000;fill-opacity:1;fill-rule:nonzero;stroke:none;font-family:CMR10;-inkscape-font-specification:CMR10">Fewofusknowourfamilyhistoriesmorethanafewgenerationsback.Therefore,itiseasytooverlook</tspan><tspan
         x="0 3.8744552 9.4096756 17.971535 21.016106 25.997404 30.424784 38.423756 42.29821 47.833431 52.814732 60.823666 67.7397 76.301559 81.28286 85.185211 93.74707 98.728371 101.49598 108.38811 113.92332 116.69094 120.62019 124.49464 129.47594 134.74217 142.74115 147.16852 152.14983 157.68504 161.61429 164.3819 169.91713 173.84637 180.94771 184.85007 189.27745 192.04506 197.02635 200.90082 205.32819 214.99789 218.87234 227.98813 232.96942 238.50464 247.05653 252.03784 257.57306 262.55435 266.4288 271.96405 276.39142 284.42825 289.68649 292.4541 301.56989 310.67572 315.38602 320.36734 324.29657 332.30551 337.84073 342.2681 345.86362 352.77966 357.76096 361.6633 371.05603 376.03735 383.20642 387.10876 391.53616 394.30377 399.28506 403.15952 405.92712 410.90845 416.44366 420.37289 425.90811 428.67572 434.21097 438.1402 447.77203 455.24399 459.67139 463.57373"
         y="11.955"
         id="tspan106"
         style="font-size:9.96259975px;font-variant:normal;font-weight:normal;writing-mode:lr-tb;fill:#000000;fill-opacity:1;fill-rule:nonzero;stroke:none;font-family:CMR10;-inkscape-font-specification:CMR10">thefactthatwearealldistantcousins,relatedtooneanotherviaavastnetworkofrelationships.Here</tspan><tspan
         x="0 6.9160371 15.159092 20.694313 24.623562 32.856655 37.837955 42.265335 47.800556 52.781857 61.083691 65.51107 68.831604 76.026596 78.794205 84.329422 92.572479 98.107697 103.089 106.96346 115.75047 118.79504 122.69739 127.67869 139.78624 146.56679 152.10201 156.00435 160.98566 166.79982 171.2272 176.20851 185.54944 188.31705 193.85226 199.3875 202.15511 207.41336 210.18097 215.71619 221.25142 226.23271 229.00032 236.73529 240.60974 249.40672 252.17433 257.4306 262.40991 266.83728 270.76654 274.64099 277.4086 282.38989 287.37119 291.24567 299.48871 303.36316 308.89838 313.32578 317.255 325.4881 329.39044 333.81784 336.58545 341.56674 345.44119 348.2088 353.19012 358.72534 362.65457 368.18979 370.9574 376.49265 384.2276 388.93991 393.91922 398.34659 406.05466 409.92911 415.46432 423.7074 429.24261 434.22391 438.15317 445.83331 449.70779 455.24301 459.14536 463.57272"
         y="23.91"
         id="tspan108"
         style="font-size:9.96259975px;font-variant:normal;font-weight:normal;writing-mode:lr-tb;fill:#000000;fill-opacity:1;fill-rule:nonzero;stroke:none;font-family:CMR10;-inkscape-font-specification:CMR10">weusegenome-widedatafromEuropeanindividualstoinvestigatetheserelationshipsoverthepastthree</tspan><tspan
         x="0 3.8744552 9.4096756 14.390976 19.926197 23.855446 28.836746 34.371967 43.443909 48.423218 52.850597 57.831898 61.734245 65.663498 72.027603 77.283875 86.078857 88.846466 94.10672 99.08802 104.34628 107.11389 112.64911 121.16714 124.21171 129.19301 136.63208 139.39969 144.38098 149.91621 158.4442 162.37344 166.24789 170.15025 174.57762 178.45209 182.60051 188.13573 192.56311 200.02908 205.01038 211.59167 215.52092 221.05615 226.03745 229.9398 234.36717 243.44908 248.43039 252.85776 258.39297 263.37427 271.67612 279.64023 285.45441 289.88177 293.47726 300.39331 304.82068 309.24808 318.32001 323.85522 328.83655 331.60416 335.5065 342.98242 347.96375 354.54501 357.31262 362.84784 368.38309 371.1507 376.40894 379.17654 384.71176 390.24701 395.2283 397.99591 405.46188 408.22949 413.76471 419.29993 423.72733 427.62967 430.39728 434.27173 438.6991 447.77106 450.81561 454.71796 459.69928"
         y="35.865002"
         id="tspan110"
         style="font-size:9.96259975px;font-variant:normal;font-weight:normal;writing-mode:lr-tb;fill:#000000;fill-opacity:1;fill-rule:nonzero;stroke:none;font-family:CMR10;-inkscape-font-specification:CMR10">thousandyears,bylookingforlongstretchesofsharedgenomebetweenpairsofindividualsinheritedfrom</tspan><tspan
         x="0 4.4273796 9.408679 17.710514 26.012348 30.993649 39.906189 44.887489 49.324833 54.85009 59.287434 63.161888 65.919533 73.7342 78.7155 84.250717 88.678101 93.105476 97.034729 100.90918 105.89048 109.79283 113.72208 121.10238 130.50508 138.31975 143.578 149.11322 154.09453 159.35078 163.22525 165.99286 169.03743 177.673 181.54747 187.08269 189.8503 197.15686 202.69209 208.22731 210.99492 216.25317 221.78839 224.55602 228.43047 233.41176 238.94699 246.26352 250.16586 254.59325 259.02063 263.448 268.70428 275.95605 280.38342 285.36472 293.66656 301.96838 306.94971 315.87219 320.85352 326.38873 330.8161 335.24347 339.17273 343.04718 346.94952 351.37094 357.5358 361.46506 367.00027 371.70261 378.90756 381.66522 387.20044 395.56903 399.44348 404.9787 409.95999 417.21176 420.25635 425.23764 432.5173 435.28491 440.82013 444.74939 448.62384 453.60513 459.14038 463.56775"
         y="47.82"
         id="tspan112"
         style="font-size:9.96259975px;font-variant:normal;font-weight:normal;writing-mode:lr-tb;fill:#000000;fill-opacity:1;fill-rule:nonzero;stroke:none;font-family:CMR10;-inkscape-font-specification:CMR10">commongeneticancestors.Wequantifythisubiquitousrecentcommonancestry,showingthatforinstance</tspan><tspan
         x="0 4.4273796 9.4066868 13.834066 22.796421 28.331642 33.312943 36.080551 39.982903 47.339287 52.320587 58.802254 61.569862 67.095123 72.630341 75.397957 80.656212 83.42382 88.959045 94.494263 99.475563 102.24317 109.59956 114.58086 123.55318 128.53447 134.0697 139.8739 144.85521 148.78445 151.55206 155.42653 163.28104 167.70842 173.24364 178.77885 186.1452 191.12651 197.59821 204.37875 209.91397 213.81633 218.79762 224.60184 232.45634 236.3856 241.92082 246.90211 250.80447 258.66895 263.9252 269.46045 274.99567 280.53088 284.43323 288.8606 294.39581 301.7522 306.73352 313.2052 318.18652 322.61389 328.14911 332.57651 336.45096 339.21857 347.07306 351.50046 356.48175 364.7836 373.08542 378.06671 387.02908 392.01038 397.54559 401.97299 406.40036 410.32962 414.20407 419.18536 423.08771 430.45407 435.1564 440.13571 444.56308 451.89258 455.76703 461.30225 464.06985"
         y="59.775002"
         id="tspan114"
         style="font-size:9.96259975px;font-variant:normal;font-weight:normal;writing-mode:lr-tb;fill:#000000;fill-opacity:1;fill-rule:nonzero;stroke:none;font-family:CMR10;-inkscape-font-specification:CMR10">evenpairsofindividualsonoppositeendsofEuropesharehundredsofgeneticcommonancestorsoverthis</tspan><tspan
         x="0 3.8744552 6.6420655 14.9439 23.077366 28.881577 33.308956 37.211308 39.978916 45.23917 50.774391 59.111095 66.721527 71.148903 75.078156 80.613373 83.380981 87.25544 95.388908 99.263359 104.79858 107.56619 115.19157 120.72678 125.15417 130.13547 134.03781 138.46519 146.59866 151.57996 158.33063 162.758 167.7393 176.04114 184.34297 189.32426 194.8595 199.84079 202.6084 205.37601 208.97151 213.39291 219.96623 223.8407 229.36595 233.8033 237.69568 245.82915 250.81044 254.7128 262.84625 267.82758 270.59518 274.52441 283.20184 287.1311 291.00555 294.9079 297.67551 302.93378 305.70139 311.2366 319.92398 323.82635 328.25372 333.23502 336.00262 340.98395 346.51917 351.50046 357.9642 363.49942 366.26703 372.07822 376.50558 380.40793 384.83533 390.37054 394.79791 399.22528 403.15454 411.49124 417.16794 422.14923 429.75766 432.52527 438.06052 441.98975 445.8642 450.84552 456.38074 460.80811 465.23547"
         y="71.731003"
         id="tspan116"
         style="font-size:9.96259975px;font-variant:normal;font-weight:normal;writing-mode:lr-tb;fill:#000000;fill-opacity:1;fill-rule:nonzero;stroke:none;font-family:CMR10;-inkscape-font-specification:CMR10">timeperiod.Despitethisdegreeofcommonality,therearealsostrikingregionaldiﬀerences.Forinstance,</tspan><tspan
         x="0 3.9292495 8.9105492 14.44577 18.320225 23.855446 28.282825 33.264126 37.193375 41.067829 45.495209 49.39756 58.589054 65.369598 70.904823 74.807175 79.788467 85.602646 90.030022 95.011322 100.54655 108.13206 112.06132 117.59653 122.57784 126.48019 134.56384 137.33145 142.31276 146.2151 151.1964 159.29002 164.54628 170.08151 178.10439 183.91856 188.34595 192.24829 199.83382 204.81511 211.51596 215.94334 220.92464 229.22647 237.52831 242.50961 251.70111 256.6824 262.21762 266.64499 271.08234 275.0116 278.88605 283.86734 287.76971 295.35522 302.5502 308.08545 310.85306 315.00146 324.19296 329.72818 334.70947 338.58395 346.6676 350.54205 359.18958 363.06406 368.59927 376.68292 381.11029 385.01263 393.65021 398.63153 405.33237 409.20682 414.74203 422.82568 428.3609 431.12854 435.84085 441.09909 443.8667 451.95035 456.93167 462.46689"
         y="83.685997"
         id="tspan118"
         style="font-size:9.96259975px;font-variant:normal;font-weight:normal;writing-mode:lr-tb;fill:#000000;fill-opacity:1;fill-rule:nonzero;stroke:none;font-family:CMR10;-inkscape-font-specification:CMR10">southeasternEuropeanssharelargenumbersofcommonancestorswhichdatetotheeraoftheSlavicand</tspan><tspan
         x="0 7.4719501 13.007171 18.542391 24.077612 26.845222 35.79562 40.223 45.481262 51.016483 55.997784 61.533001 65.46225 68.229866 73.211159 78.746384 87.198654 92.179955 96.082306 101.06361 106.59882 112.13404 122.19228 127.17358 132.15489 137.13618 146.65047 151.62978 156.05716 161.03845 164.94081 173.39308 178.37437 183.35568 188.33698 195.93645 203.13144 208.66666 211.43427 214.20187 223.15228 231.45412 236.43541 240.36465 248.76213 253.18951 258.17081 266.47266 274.77448 279.7558 289.81403 294.79532 300.33054 304.75793 309.1853 313.11456 316.98901 321.97031 325.87265 334.3349 338.20935 343.74457 348.72586 357.12335 360.72083 364.59531 369.5766 372.34421 375.11182 380.09311 385.62833 394.0806 398.00986 403.54507 408.52637 412.42871 421.37912 428.57413 431.34174 435.21619 445.27441 450.25571 454.13019 459.66541 464.09277"
         y="95.640999"
         id="tspan120"
         style="font-size:9.96259975px;font-variant:normal;font-weight:normal;writing-mode:lr-tb;fill:#000000;fill-opacity:1;fill-rule:nonzero;stroke:none;font-family:CMR10;-inkscape-font-specification:CMR10">Hunnicexpansionsaround1500yearsago,whilemostcommonancestorsthatItalianssharewithother</tspan><tspan
         x="0 5.8141732 10.795473 16.330694 21.865915 24.633524 29.614824 33.489281 36.256889 41.23819 46.773411 54.29916 57.066769 59.834381 64.81369 69.241066 78.382751 81.15036 86.13166 91.666878 96.648178 101.07556 108.57441 113.55571 118.53701 127.12477 130.99922 136.52448 141.50578 150.64746 155.62877 160.61006 165.59137 174.16916 179.15843 183.58582 188.56711 192.46947 196.39871 204.42657 211.62157 217.15678 225.19063 229.11987 232.99432 238.52956 244.06477 252.91953 257.90082 264.55185 267.31946 272.30078 277.836 286.41379 290.34305 294.2175 298.11984 302.54721 306.42169 310.5701 316.10532 320.53271 328.06842 333.04971 339.6908 343.62003 349.15524 354.13657 358.03891 362.46628 371.60797 376.58926 381.01666 386.55188 390.97925 394.8537 397.62131 405.6452 413.94702 418.92831 422.8028 427.23016 431.13251 433.90012 438.88141 445.25549 450.79071 455.772 458.53961 464.07486"
         y="107.596"
         id="tspan122"
         style="font-size:9.96259975px;font-variant:normal;font-weight:normal;writing-mode:lr-tb;fill:#000000;fill-opacity:1;fill-rule:nonzero;stroke:none;font-family:CMR10;-inkscape-font-specification:CMR10">populationslivedlongeragothan2500years.Thestudyoflongstretchesofsharedgeneticmaterialholds</tspan><tspan
         x="0 3.8744552 9.4096756 17.1546 22.689821 26.592173 31.573471 39.875305 42.642918 46.572166 54.327053 59.308353 65.670471 69.572823 72.340431 76.488861 85.351585 88.109238 93.644455 96.689026 101.67033 105.57268 113.87451 118.85581 122.73026 125.49788 130.47917 139.3419 144.32321 150.12741 155.10872 160.64394 167.8459 176.14774 181.12903 186.3853 194.96111 199.94241 203.87166 209.68584 214.1132 218.54059 222.41504 229.6718 234.65311 241.01521 244.91757 249.34496 253.77232 258.19971 263.45596 270.64798 276.46216 281.44345 286.97867 292.51389 295.28149 300.26279 304.13727 306.90488 311.88617 320.73892 326.27414 329.04178 332.97101 336.84546 341.82678 345.72913 350.16049"
         y="119.551"
         id="tspan124"
         style="font-size:9.96259975px;font-variant:normal;font-weight:normal;writing-mode:lr-tb;fill:#000000;fill-opacity:1;fill-rule:nonzero;stroke:none;font-family:CMR10;-inkscape-font-specification:CMR10">thepromiseofrichinformationaboutmanyaspectsofrecentpopulationhistory.</tspan><tspan
         x="231.509"
         y="162.401"
         id="tspan126"
         style="font-size:9.96259975px;font-variant:normal;font-weight:normal;writing-mode:lr-tb;fill:#000000;fill-opacity:1;fill-rule:nonzero;stroke:none;font-family:CMR10;-inkscape-font-specification:CMR10">1</tspan></text>
</g></svg>