<?xml version="1.0" encoding="UTF-8" standalone="no"?>
<!-- Created with Inkscape (http://www.inkscape.org/) -->

<svg
   xmlns:dc="http://purl.org/dc/elements/1.1/"
   xmlns:cc="http://creativecommons.org/ns#"
   xmlns:rdf="http://www.w3.org/1999/02/22-rdf-syntax-ns#"
   xmlns:svg="http://www.w3.org/2000/svg"
   xmlns="http://www.w3.org/2000/svg"
   xmlns:inkscape="http://www.inkscape.org/namespaces/inkscape"
   version="1.1"
   width="470.08929"
   height="312.84314"
   id="svg2"
   xml:space="preserve"><metadata
     id="metadata8"><rdf:RDF><cc:Work
         rdf:about=""><dc:format>image/svg+xml</dc:format><dc:type
           rdf:resource="http://purl.org/dc/dcmitype/StillImage" /></cc:Work></rdf:RDF></metadata><defs
     id="defs6"><clipPath
       id="clipPath210"><path
         d="m 79,114.27451 96,0 0,136 -96,0 0,-136 z"
         inkscape:connector-curvature="0"
         id="path212" /></clipPath><mask
       id="mask214"><g
         id="g216"><g
           clip-path="url(#clipPath210)"
           id="g218"><path
             d="m 79,114.27451 96,0 0,136 -96,0 0,-136 z"
             inkscape:connector-curvature="0"
             id="path220"
             style="fill:#000000;fill-opacity:0.75308599;fill-rule:nonzero;stroke:none" /></g></g></mask><clipPath
       id="clipPath226"><path
         d="m 79,114.27451 96,0 0,136 -96,0 0,-136 z"
         inkscape:connector-curvature="0"
         id="path228" /></clipPath><clipPath
       id="clipPath230"><path
         d="m 79,115 96,0 0,136 -96,0 0,-136 z"
         inkscape:connector-curvature="0"
         id="path232" /></clipPath><clipPath
       id="clipPath254"><path
         d="m 230,114.27451 95,0 0,136 -95,0 0,-136 z"
         inkscape:connector-curvature="0"
         id="path256" /></clipPath><mask
       id="mask258"><g
         id="g260"><g
           clip-path="url(#clipPath254)"
           id="g262"><path
             d="m 230,114.27451 95,0 0,136 -95,0 0,-136 z"
             inkscape:connector-curvature="0"
             id="path264"
             style="fill:#000000;fill-opacity:0.75308599;fill-rule:nonzero;stroke:none" /></g></g></mask><clipPath
       id="clipPath270"><path
         d="m 230,114.27451 95,0 0,136 -95,0 0,-136 z"
         inkscape:connector-curvature="0"
         id="path272" /></clipPath><clipPath
       id="clipPath274"><path
         d="m 230,115 95,0 0,136 -95,0 0,-136 z"
         inkscape:connector-curvature="0"
         id="path276" /></clipPath></defs><g
     transform="matrix(1.25,0,0,-1.25,0,312.84313)"
     id="g10"><g
       id="g12"><g
         transform="matrix(1,0,0,-1,0,250.27451)"
         id="g14"><path
           d="m 277.066,81.828 0,-48.57"
           inkscape:connector-curvature="0"
           id="path16"
           style="fill:none;stroke:#000000;stroke-width:0.80000001;stroke-linecap:butt;stroke-linejoin:miter;stroke-miterlimit:4;stroke-opacity:1;stroke-dasharray:none" /></g><g
         transform="matrix(1,0,0,-1,0,250.27451)"
         id="g18"><path
           d="m 224.113,32.516 104.285,0"
           inkscape:connector-curvature="0"
           id="path20"
           style="fill:none;stroke:#000000;stroke-width:1;stroke-linecap:butt;stroke-linejoin:miter;stroke-miterlimit:4;stroke-opacity:1;stroke-dasharray:none" /></g><g
         transform="matrix(1,0,0,-1,0,250.27451)"
         id="g22"><path
           d="m 328.293,7.145 46.285,0 0,46.285 -46.285,0 0,-46.285 z"
           inkscape:connector-curvature="0"
           id="path24"
           style="fill:#ffffff;fill-opacity:1;fill-rule:nonzero;stroke:#000000;stroke-width:3;stroke-linecap:butt;stroke-linejoin:miter;stroke-miterlimit:4;stroke-opacity:1;stroke-dasharray:none" /></g><g
         transform="matrix(-1,0,0,-1,0,250.27451)"
         id="g26"><path
           d="m -178.684,30.285 c 0,12.781 -10.363,23.145 -23.144,23.145 -12.781,0 -23.145,-10.364 -23.145,-23.145 0,-12.781 10.364,-23.14 23.145,-23.14 12.781,0 23.144,10.359 23.144,23.14 z"
           inkscape:connector-curvature="0"
           id="path28"
           style="fill:#ffffff;fill-opacity:1;fill-rule:nonzero;stroke:#000000;stroke-width:3;stroke-linecap:butt;stroke-linejoin:miter;stroke-miterlimit:4;stroke-opacity:1;stroke-dasharray:none" /></g><g
         transform="matrix(1,0,0,-1,0,250.27451)"
         id="g30"><path
           d="m 188.82,13.93 10.285,0 0,33 -10.285,0 0,-33 z"
           inkscape:connector-curvature="0"
           id="path32"
           style="fill:#f2f2f2;fill-opacity:1;fill-rule:nonzero;stroke:#999999;stroke-width:0.80000001;stroke-linecap:butt;stroke-linejoin:miter;stroke-miterlimit:4;stroke-opacity:1;stroke-dasharray:none" /></g><g
         transform="matrix(1,0,0,-1,0,250.27451)"
         id="g34"><path
           d="m 204.82,13.93 10.285,0 0,33 -10.285,0 0,-33 z"
           inkscape:connector-curvature="0"
           id="path36"
           style="fill:#f2f2f2;fill-opacity:1;fill-rule:nonzero;stroke:#999999;stroke-width:0.80000001;stroke-linecap:butt;stroke-linejoin:miter;stroke-miterlimit:4;stroke-opacity:1;stroke-dasharray:none" /></g><g
         transform="matrix(1,0,0,-1,0,250.27451)"
         id="g38"><path
           d="m 337.805,13.93 10.289,0 0,33 -10.289,0 0,-33 z"
           inkscape:connector-curvature="0"
           id="path40"
           style="fill:#f2f2f2;fill-opacity:1;fill-rule:nonzero;stroke:#999999;stroke-width:0.80000001;stroke-linecap:butt;stroke-linejoin:miter;stroke-miterlimit:4;stroke-opacity:1;stroke-dasharray:none" /></g><g
         transform="matrix(1,0,0,-1,0,250.27451)"
         id="g42"><path
           d="m 353.805,13.93 10.289,0 0,33 -10.289,0 0,-33 z"
           inkscape:connector-curvature="0"
           id="path44"
           style="fill:#f2f2f2;fill-opacity:1;fill-rule:nonzero;stroke:#999999;stroke-width:0.80000001;stroke-linecap:butt;stroke-linejoin:miter;stroke-miterlimit:4;stroke-opacity:1;stroke-dasharray:none" /></g><g
         transform="matrix(1,0,0,-1,0,250.27451)"
         id="g46"><path
           d="m 298.203,101.371 c 0,12.781 -10.359,23.145 -23.141,23.145 -12.785,0 -23.144,-10.364 -23.144,-23.145 0,-12.781 10.359,-23.141 23.144,-23.141 12.782,0 23.141,10.36 23.141,23.141 z"
           inkscape:connector-curvature="0"
           id="path48"
           style="fill:#ffffff;fill-opacity:1;fill-rule:nonzero;stroke:#000000;stroke-width:3;stroke-linecap:butt;stroke-linejoin:miter;stroke-miterlimit:4;stroke-opacity:1;stroke-dasharray:none" /></g><g
         transform="matrix(1,0,0,-1,0,250.27451)"
         id="g50"><path
           d="m 261.574,85.016 10.285,0 0,33 -10.285,0 0,-33 z"
           inkscape:connector-curvature="0"
           id="path52"
           style="fill:#00c900;fill-opacity:1;fill-rule:nonzero;stroke:#999999;stroke-width:0.80000001;stroke-linecap:butt;stroke-linejoin:miter;stroke-miterlimit:4;stroke-opacity:1;stroke-dasharray:none" /></g><g
         transform="matrix(1,0,0,-1,0,250.27451)"
         id="g54"><path
           d="m 277.574,85.016 10.285,0 0,33 -10.285,0 0,-33 z"
           inkscape:connector-curvature="0"
           id="path56"
           style="fill:#f2f2f2;fill-opacity:1;fill-rule:nonzero;stroke:#999999;stroke-width:0.80000001;stroke-linecap:butt;stroke-linejoin:miter;stroke-miterlimit:4;stroke-opacity:1;stroke-dasharray:none" /></g><path
         d="m 277.859,165.259 9.715,0 0,-33 -9.715,0 0,33 z"
         inkscape:connector-curvature="0"
         id="path58"
         style="fill:#621f81;fill-opacity:1;fill-rule:nonzero;stroke:none" /><g
         transform="matrix(1,0,0,-1,0,250.27451)"
         id="g60"><path
           d="m 279.855,17.562 25.793,0 0,25.789 -25.793,0 0,-25.789 z"
           inkscape:connector-curvature="0"
           id="path62"
           style="fill:#ffffff;fill-opacity:1;fill-rule:nonzero;stroke:#000000;stroke-width:3;stroke-linecap:butt;stroke-linejoin:miter;stroke-miterlimit:4;stroke-opacity:1;stroke-dasharray:none" /></g><g
         transform="matrix(1,0,0,-1,0,250.27451)"
         id="g64"><path
           d="m 285.156,21.344 5.73,0 0,18.387 -5.73,0 0,-18.387 z"
           inkscape:connector-curvature="0"
           id="path66"
           style="fill:#f2f2f2;fill-opacity:1;fill-rule:nonzero;stroke:#999999;stroke-width:0.80000001;stroke-linecap:butt;stroke-linejoin:miter;stroke-miterlimit:4;stroke-opacity:1;stroke-dasharray:none" /></g><g
         transform="matrix(1,0,0,-1,0,250.27451)"
         id="g68"><path
           d="m 294.07,21.344 5.734,0 0,18.387 -5.734,0 0,-18.387 z"
           inkscape:connector-curvature="0"
           id="path70"
           style="fill:#f2f2f2;fill-opacity:1;fill-rule:nonzero;stroke:#999999;stroke-width:0.80000001;stroke-linecap:butt;stroke-linejoin:miter;stroke-miterlimit:4;stroke-opacity:1;stroke-dasharray:none" /></g><path
         d="m 294.023,217.79 5.73,0 0,-7.246 -5.73,0 0,7.246 z"
         inkscape:connector-curvature="0"
         id="path72"
         style="fill:#621f81;fill-opacity:1;fill-rule:nonzero;stroke:none" /><path
         d="m 285.109,228.743 5.73,0 0,-11.066 -5.73,0 0,11.066 z"
         inkscape:connector-curvature="0"
         id="path74"
         style="fill:#621f81;fill-opacity:1;fill-rule:nonzero;stroke:none" /><g
         transform="matrix(-1,0,0,-1,0,250.27451)"
         id="g76"><path
           d="m -247.855,30.285 c 0,7.277 -5.899,13.172 -13.172,13.172 -7.278,0 -13.172,-5.895 -13.172,-13.172 0,-7.273 5.894,-13.172 13.172,-13.172 7.273,0 13.172,5.899 13.172,13.172 z"
           inkscape:connector-curvature="0"
           id="path78"
           style="fill:#ffffff;fill-opacity:1;fill-rule:nonzero;stroke:#000000;stroke-width:3;stroke-linecap:butt;stroke-linejoin:miter;stroke-miterlimit:4;stroke-opacity:1;stroke-dasharray:none" /></g><g
         transform="matrix(1,0,0,-1,0,250.27451)"
         id="g80"><path
           d="m 253.625,20.977 5.855,0 0,18.781 -5.855,0 0,-18.781 z"
           inkscape:connector-curvature="0"
           id="path82"
           style="fill:#f2f2f2;fill-opacity:1;fill-rule:nonzero;stroke:#999999;stroke-width:0.80000001;stroke-linecap:butt;stroke-linejoin:miter;stroke-miterlimit:4;stroke-opacity:1;stroke-dasharray:none" /></g><g
         transform="matrix(1,0,0,-1,0,250.27451)"
         id="g84"><path
           d="m 262.73,20.977 5.855,0 0,18.781 -5.855,0 0,-18.781 z"
           inkscape:connector-curvature="0"
           id="path86"
           style="fill:#f2f2f2;fill-opacity:1;fill-rule:nonzero;stroke:#999999;stroke-width:0.80000001;stroke-linecap:butt;stroke-linejoin:miter;stroke-miterlimit:4;stroke-opacity:1;stroke-dasharray:none" /></g><path
         d="m 253.578,229.298 5.855,0 0,-6.305 -5.855,0 0,6.305 z"
         inkscape:connector-curvature="0"
         id="path88"
         style="fill:#00c900;fill-opacity:1;fill-rule:nonzero;stroke:none" /><path
         d="m 262.688,222.923 5.855,0 0,-12.16 -5.855,0 0,12.16 z"
         inkscape:connector-curvature="0"
         id="path90"
         style="fill:#00c900;fill-opacity:1;fill-rule:nonzero;stroke:none" /><g
         transform="matrix(1,0,0,-1,0,250.27451)"
         id="g92"><path
           d="m 178.777,32.516 -104.285,0"
           inkscape:connector-curvature="0"
           id="path94"
           style="fill:none;stroke:#000000;stroke-width:1;stroke-linecap:butt;stroke-linejoin:miter;stroke-miterlimit:4;stroke-opacity:1;stroke-dasharray:none" /></g><g
         transform="matrix(-1,0,0,-1,0,250.27451)"
         id="g96"><path
           d="m -28.312,7.145 -46.285,0 0,46.285 46.285,0 0,-46.285 z"
           inkscape:connector-curvature="0"
           id="path98"
           style="fill:#ffffff;fill-opacity:1;fill-rule:nonzero;stroke:#000000;stroke-width:3;stroke-linecap:butt;stroke-linejoin:miter;stroke-miterlimit:4;stroke-opacity:1;stroke-dasharray:none" /></g><g
         transform="matrix(-1,0,0,-1,0,250.27451)"
         id="g100"><path
           d="m -54.801,13.93 -10.285,0 0,33 10.285,0 0,-33 z"
           inkscape:connector-curvature="0"
           id="path102"
           style="fill:#f2f2f2;fill-opacity:1;fill-rule:nonzero;stroke:#999999;stroke-width:0.80000001;stroke-linecap:butt;stroke-linejoin:miter;stroke-miterlimit:4;stroke-opacity:1;stroke-dasharray:none" /></g><g
         transform="matrix(-1,0,0,-1,0,250.27451)"
         id="g104"><path
           d="m -38.801,13.93 -10.285,0 0,33 10.285,0 0,-33 z"
           inkscape:connector-curvature="0"
           id="path106"
           style="fill:#f2f2f2;fill-opacity:1;fill-rule:nonzero;stroke:#999999;stroke-width:0.80000001;stroke-linecap:butt;stroke-linejoin:miter;stroke-miterlimit:4;stroke-opacity:1;stroke-dasharray:none" /></g><g
         transform="matrix(1,0,0,-1,0,250.27451)"
         id="g108"><path
           d="m 126.664,81.828 0,-48.57"
           inkscape:connector-curvature="0"
           id="path110"
           style="fill:none;stroke:#000000;stroke-width:0.80000001;stroke-linecap:butt;stroke-linejoin:miter;stroke-miterlimit:4;stroke-opacity:1;stroke-dasharray:none" /></g><g
         transform="matrix(-1,0,0,-1,0,250.27451)"
         id="g112"><path
           d="m -104.688,101.371 c 0,12.781 -10.363,23.145 -23.144,23.145 -12.781,0 -23.145,-10.364 -23.145,-23.145 0,-12.781 10.364,-23.141 23.145,-23.141 12.781,0 23.144,10.36 23.144,23.141 z"
           inkscape:connector-curvature="0"
           id="path114"
           style="fill:#ffffff;fill-opacity:1;fill-rule:nonzero;stroke:#000000;stroke-width:3;stroke-linecap:butt;stroke-linejoin:miter;stroke-miterlimit:4;stroke-opacity:1;stroke-dasharray:none" /></g><g
         transform="matrix(-1,0,0,-1,0,250.27451)"
         id="g116"><path
           d="m -131.031,85.016 -10.285,0 0,33 10.285,0 0,-33 z"
           inkscape:connector-curvature="0"
           id="path118"
           style="fill:#cc4a00;fill-opacity:1;fill-rule:nonzero;stroke:#999999;stroke-width:0.80000001;stroke-linecap:butt;stroke-linejoin:miter;stroke-miterlimit:4;stroke-opacity:1;stroke-dasharray:none" /></g><g
         transform="matrix(-1,0,0,-1,0,250.27451)"
         id="g120"><path
           d="m -115.031,85.016 -10.285,0 0,33 10.285,0 0,-33 z"
           inkscape:connector-curvature="0"
           id="path122"
           style="fill:#f2f2f2;fill-opacity:1;fill-rule:nonzero;stroke:#999999;stroke-width:0.80000001;stroke-linecap:butt;stroke-linejoin:miter;stroke-miterlimit:4;stroke-opacity:1;stroke-dasharray:none" /></g><path
         d="m 115.316,165.259 9.715,0 0,-33 -9.715,0 0,33 z"
         inkscape:connector-curvature="0"
         id="path124"
         style="fill:#4d4dc5;fill-opacity:1;fill-rule:nonzero;stroke:none" /><g
         transform="matrix(-1,0,0,-1,0,250.27451)"
         id="g126"><path
           d="m -97.246,17.562 -25.793,0 0,25.789 25.793,0 0,-25.789 z"
           inkscape:connector-curvature="0"
           id="path128"
           style="fill:#ffffff;fill-opacity:1;fill-rule:nonzero;stroke:#000000;stroke-width:3;stroke-linecap:butt;stroke-linejoin:miter;stroke-miterlimit:4;stroke-opacity:1;stroke-dasharray:none" /></g><g
         transform="matrix(-1,0,0,-1,0,250.27451)"
         id="g130"><path
           d="m -112.008,21.344 -5.73,0 0,18.387 5.73,0 0,-18.387 z"
           inkscape:connector-curvature="0"
           id="path132"
           style="fill:#f2f2f2;fill-opacity:1;fill-rule:nonzero;stroke:#999999;stroke-width:0.80000001;stroke-linecap:butt;stroke-linejoin:miter;stroke-miterlimit:4;stroke-opacity:1;stroke-dasharray:none" /></g><g
         transform="matrix(-1,0,0,-1,0,250.27451)"
         id="g134"><path
           d="m -103.09,21.344 -5.73,0 0,18.387 5.73,0 0,-18.387 z"
           inkscape:connector-curvature="0"
           id="path136"
           style="fill:#f2f2f2;fill-opacity:1;fill-rule:nonzero;stroke:#999999;stroke-width:0.80000001;stroke-linecap:butt;stroke-linejoin:miter;stroke-miterlimit:4;stroke-opacity:1;stroke-dasharray:none" /></g><path
         d="m 103.137,228.931 5.363,0 0,-18.387 -5.363,0 0,18.387 z"
         inkscape:connector-curvature="0"
         id="path138"
         style="fill:#4d4dc5;fill-opacity:1;fill-rule:nonzero;stroke:none" /><g
         transform="matrix(1,0,0,-1,0,250.27451)"
         id="g140"><path
           d="m 155.039,30.285 c 0,7.277 -5.898,13.172 -13.176,13.172 -7.273,0 -13.172,-5.895 -13.172,-13.172 0,-7.273 5.899,-13.172 13.172,-13.172 7.278,0 13.176,5.899 13.176,13.172 z"
           inkscape:connector-curvature="0"
           id="path142"
           style="fill:#ffffff;fill-opacity:1;fill-rule:nonzero;stroke:#000000;stroke-width:3;stroke-linecap:butt;stroke-linejoin:miter;stroke-miterlimit:4;stroke-opacity:1;stroke-dasharray:none" /></g><g
         transform="matrix(-1,0,0,-1,0,250.27451)"
         id="g144"><path
           d="m -143.414,20.977 -5.855,0 0,18.781 5.855,0 0,-18.781 z"
           inkscape:connector-curvature="0"
           id="path146"
           style="fill:#f2f2f2;fill-opacity:1;fill-rule:nonzero;stroke:#999999;stroke-width:0.80000001;stroke-linecap:butt;stroke-linejoin:miter;stroke-miterlimit:4;stroke-opacity:1;stroke-dasharray:none" /></g><g
         transform="matrix(-1,0,0,-1,0,250.27451)"
         id="g148"><path
           d="m -134.305,20.977 -5.855,0 0,18.781 5.855,0 0,-18.781 z"
           inkscape:connector-curvature="0"
           id="path150"
           style="fill:#f2f2f2;fill-opacity:1;fill-rule:nonzero;stroke:#999999;stroke-width:0.80000001;stroke-linecap:butt;stroke-linejoin:miter;stroke-miterlimit:4;stroke-opacity:1;stroke-dasharray:none" /></g><path
         d="m 143.457,229.298 5.57,0 0,-14.59 -5.57,0 0,14.59 z"
         inkscape:connector-curvature="0"
         id="path152"
         style="fill:#cc4a00;fill-opacity:1;fill-rule:nonzero;stroke:none" /><path
         d="m 134.352,214.923 5.855,0 0,-4.16 -5.855,0 0,4.16 z"
         inkscape:connector-curvature="0"
         id="path154"
         style="fill:#cc4a00;fill-opacity:1;fill-rule:nonzero;stroke:none" /><g
         transform="matrix(0,-1,1,0,0,250.27451)"
         id="g156"><path
           d="m 198.086,33.844 10.285,0 0,338.145 -10.285,0 0,-338.145 z"
           inkscape:connector-curvature="0"
           id="path158"
           style="fill:#f2f2f2;fill-opacity:1;fill-rule:nonzero;stroke:#999999;stroke-width:0.80000001;stroke-linecap:butt;stroke-linejoin:miter;stroke-miterlimit:4;stroke-opacity:1;stroke-dasharray:none" /></g><g
         transform="matrix(0,-1,1,0,0,250.27451)"
         id="g160"><path
           d="m 223.688,33.844 10.285,0 0,338.145 -10.285,0 0,-338.145 z"
           inkscape:connector-curvature="0"
           id="path162"
           style="fill:#f2f2f2;fill-opacity:1;fill-rule:nonzero;stroke:#999999;stroke-width:0.80000001;stroke-linecap:butt;stroke-linejoin:miter;stroke-miterlimit:4;stroke-opacity:1;stroke-dasharray:none" /></g><path
         d="m 94.074,51.989 58.145,0 0,-9.711 -58.145,0 0,9.711 z"
         inkscape:connector-curvature="0"
         id="path164"
         style="fill:#4d4dc5;fill-opacity:1;fill-rule:nonzero;stroke:none" /><path
         d="m 94.074,51.989 58.145,0 0,-9.711 -58.145,0 0,9.711 z"
         inkscape:connector-curvature="0"
         id="path166"
         style="fill:#4d4dc5;fill-opacity:1;fill-rule:nonzero;stroke:none" /><path
         d="m 237.848,51.989 133.57,0 0,-9.711 -133.57,0 0,9.711 z"
         inkscape:connector-curvature="0"
         id="path168"
         style="fill:#4d4dc5;fill-opacity:1;fill-rule:nonzero;stroke:none" /><path
         d="m 237.848,51.989 133.57,0 0,-9.711 -133.57,0 0,9.711 z"
         inkscape:connector-curvature="0"
         id="path170"
         style="fill:#cc4a00;fill-opacity:1;fill-rule:nonzero;stroke:none" /><path
         d="m 296.133,26.392 75.285,0 0,-9.715 -75.285,0 0,9.715 z"
         inkscape:connector-curvature="0"
         id="path172"
         style="fill:#cc4a00;fill-opacity:1;fill-rule:nonzero;stroke:none" /><path
         d="m 34.305,26.392 75.285,0 0,-9.715 -75.285,0 0,9.715 z"
         inkscape:connector-curvature="0"
         id="path174"
         style="fill:#cc4a00;fill-opacity:1;fill-rule:nonzero;stroke:none" /><path
         d="m 180.477,51.989 58.141,0 0,-9.711 -58.141,0 0,9.711 z"
         inkscape:connector-curvature="0"
         id="path176"
         style="fill:#00c900;fill-opacity:1;fill-rule:nonzero;stroke:none" /><path
         d="m 108.477,26.392 58.141,0 0,-9.715 -58.141,0 0,9.715 z"
         inkscape:connector-curvature="0"
         id="path178"
         style="fill:#00c900;fill-opacity:1;fill-rule:nonzero;stroke:none" /><path
         d="m 165.391,26.392 49.57,0 0,-9.715 -49.57,0 0,9.715 z"
         inkscape:connector-curvature="0"
         id="path180"
         style="fill:#621f81;fill-opacity:1;fill-rule:nonzero;stroke:none" /><g
         transform="matrix(1,0,0,-1,0,250.27451)"
         id="g182"><path
           d="m 141.348,43.43 c 0,0 26.855,92 96,93.14 69.14,1.145 94.855,5.715 93.14,30.86"
           inkscape:connector-curvature="0"
           id="path184"
           style="fill:none;stroke:#000000;stroke-width:0.80000001;stroke-linecap:butt;stroke-linejoin:miter;stroke-miterlimit:4;stroke-opacity:1;stroke-dasharray:0.8, 0.8;stroke-dashoffset:0" /></g><path
         d="m 332.707,86.888 -2.281,-5.098 -1.567,5.363 c 1.079,-0.914 2.633,-1.015 3.848,-0.265 z"
         inkscape:connector-curvature="0"
         id="path186"
         style="fill:#000000;fill-opacity:1;fill-rule:evenodd;stroke:none" /><g
         transform="matrix(1,0,0,-1,0,250.27451)"
         id="g188"><path
           d="m 249.348,39.43 c 0,0 -57.618,41.484 -86.286,76 -13.98,16.828 -28.574,28.57 -24.574,73.14"
           inkscape:connector-curvature="0"
           id="path190"
           style="fill:none;stroke:#000000;stroke-width:0.80000001;stroke-linecap:butt;stroke-linejoin:miter;stroke-miterlimit:4;stroke-opacity:1;stroke-dasharray:0.8, 0.8;stroke-dashoffset:0" /></g><path
         d="m 140.043,66.044 -1.453,-5.394 -2.387,5.05 c 1.207,-0.734 2.758,-0.59 3.84,0.344 z"
         inkscape:connector-curvature="0"
         id="path192"
         style="fill:#000000;fill-opacity:1;fill-rule:evenodd;stroke:none" /><g
         transform="matrix(1,0,0,-1,0,250.27451)"
         id="g194"><path
           d="m 331.062,174.285 0,76"
           inkscape:connector-curvature="0"
           id="path196"
           style="fill:none;stroke:#cc4a00;stroke-width:2.4000001;stroke-linecap:butt;stroke-linejoin:miter;stroke-miterlimit:4;stroke-opacity:1;stroke-dasharray:4.8, 2.4;stroke-dashoffset:0" /></g><g
         transform="matrix(1,0,0,-1,0,250.27451)"
         id="g198"><path
           d="m 137.461,206.285 0,44"
           inkscape:connector-curvature="0"
           id="path200"
           style="fill:none;stroke:#00c900;stroke-width:2.4000001;stroke-linecap:butt;stroke-linejoin:miter;stroke-miterlimit:4;stroke-opacity:1;stroke-dasharray:4.8, 2.4;stroke-dashoffset:0" /></g><path
         d="m 6.352,238.63 -2.547,-6.891 5.093,0 -2.546,6.891 z m -1.063,1.844 2.125,0 5.281,-13.844 -1.953,0 -1.265,3.547 -6.235,0 -1.265,-3.547 -1.969,0 5.281,13.844 z m 9.203,0.578 1.485,0 c 0.925,-1.461 1.617,-2.891 2.078,-4.297 0.468,-1.398 0.703,-2.781 0.703,-4.156 0,-1.387 -0.235,-2.782 -0.703,-4.188 -0.461,-1.406 -1.153,-2.832 -2.078,-4.281 l -1.485,0 c 0.82,1.418 1.438,2.82 1.844,4.219 0.406,1.406 0.609,2.82 0.609,4.25 0,1.426 -0.203,2.832 -0.609,4.218 -0.406,1.395 -1.024,2.805 -1.844,4.235 z"
         inkscape:connector-curvature="0"
         id="path202"
         style="fill:#000000;fill-opacity:1;fill-rule:nonzero;stroke:none" /><path
         d="m 0.02,248.571 21.145,0 0,-32.57 -21.145,0 0,32.57 z"
         inkscape:connector-curvature="0"
         id="path204"
         style="fill:#ffffff;fill-opacity:1;fill-rule:nonzero;stroke:none" /><g
         id="g206"><g
           id="g208" /><g
           mask="url(#mask214)"
           id="g222"><g
             id="g224" /><g
             id="g234"><g
               clip-path="url(#clipPath226)"
               id="g236"><g
                 transform="translate(0,-0.725494)"
                 id="g238"><g
                   id="g240" /><g
                   id="g242"><g
                     clip-path="url(#clipPath230)"
                     id="g244"><g
                       id="g246"><path
                         d="m 79.633,251 94.855,0 0,-136 -94.855,0 0,136 z"
                         inkscape:connector-curvature="0"
                         id="path248"
                         style="fill:#ffffff;fill-opacity:1;fill-rule:nonzero;stroke:none" /></g></g></g></g></g></g></g></g><g
         id="g250"><g
           id="g252" /><g
           mask="url(#mask258)"
           id="g266"><g
             id="g268" /><g
             id="g278"><g
               clip-path="url(#clipPath270)"
               id="g280"><g
                 transform="translate(0,-0.725494)"
                 id="g282"><g
                   id="g284" /><g
                   id="g286"><g
                     clip-path="url(#clipPath274)"
                     id="g288"><g
                       id="g290"><path
                         d="m 230.031,250.43 94.859,0 0,-135.43 -94.859,0 0,135.43 z"
                         inkscape:connector-curvature="0"
                         id="path292"
                         style="fill:#ffffff;fill-opacity:1;fill-rule:nonzero;stroke:none" /></g></g></g></g></g></g></g></g><g
         transform="matrix(1,0,0,-1,0,250.27451)"
         id="g294"><path
           d="m 188.82,13.93 10.285,0 0,33 -10.285,0 0,-33 z"
           inkscape:connector-curvature="0"
           id="path296"
           style="fill:#f200f2;fill-opacity:1;fill-rule:nonzero;stroke:#999999;stroke-width:0.80000001;stroke-linecap:butt;stroke-linejoin:miter;stroke-miterlimit:4;stroke-opacity:1;stroke-dasharray:none" /></g><g
         transform="matrix(1,0,0,-1,0,250.27451)"
         id="g298"><path
           d="m 204.82,13.93 10.285,0 0,33 -10.285,0 0,-33 z"
           inkscape:connector-curvature="0"
           id="path300"
           style="fill:#00f2f2;fill-opacity:1;fill-rule:nonzero;stroke:#999999;stroke-width:0.80000001;stroke-linecap:butt;stroke-linejoin:miter;stroke-miterlimit:4;stroke-opacity:1;stroke-dasharray:none" /></g><g
         transform="matrix(1,0,0,-1,0,250.27451)"
         id="g302"><path
           d="m 337.805,13.93 10.289,0 0,33 -10.289,0 0,-33 z"
           inkscape:connector-curvature="0"
           id="path304"
           style="fill:#4206f2;fill-opacity:1;fill-rule:nonzero;stroke:#999999;stroke-width:0.80000001;stroke-linecap:butt;stroke-linejoin:miter;stroke-miterlimit:4;stroke-opacity:1;stroke-dasharray:none" /></g><g
         transform="matrix(1,0,0,-1,0,250.27451)"
         id="g306"><path
           d="m 353.805,13.93 10.289,0 0,33 -10.289,0 0,-33 z"
           inkscape:connector-curvature="0"
           id="path308"
           style="fill:#f2006b;fill-opacity:1;fill-rule:nonzero;stroke:#999999;stroke-width:0.80000001;stroke-linecap:butt;stroke-linejoin:miter;stroke-miterlimit:4;stroke-opacity:1;stroke-dasharray:none" /></g><g
         transform="matrix(-1,0,0,-1,0,250.27451)"
         id="g310"><path
           d="m -54.801,13.93 -10.285,0 0,33 10.285,0 0,-33 z"
           inkscape:connector-curvature="0"
           id="path312"
           style="fill:#fd843c;fill-opacity:1;fill-rule:nonzero;stroke:#999999;stroke-width:0.80000001;stroke-linecap:butt;stroke-linejoin:miter;stroke-miterlimit:4;stroke-opacity:1;stroke-dasharray:none" /></g><g
         transform="matrix(-1,0,0,-1,0,250.27451)"
         id="g314"><path
           d="m -38.801,13.93 -10.285,0 0,33 10.285,0 0,-33 z"
           inkscape:connector-curvature="0"
           id="path316"
           style="fill:#f2f200;fill-opacity:1;fill-rule:nonzero;stroke:#999999;stroke-width:0.80000001;stroke-linecap:butt;stroke-linejoin:miter;stroke-miterlimit:4;stroke-opacity:1;stroke-dasharray:none" /></g><path
         d="m 94.074,51.989 58.145,0 0,-9.711 -58.145,0 0,9.711 z"
         inkscape:connector-curvature="0"
         id="path318"
         style="fill:#4d4dc5;fill-opacity:1;fill-rule:nonzero;stroke:none" /><path
         d="m 94.074,51.989 58.145,0 0,-9.711 -58.145,0 0,9.711 z"
         inkscape:connector-curvature="0"
         id="path320"
         style="fill:#f2f200;fill-opacity:1;fill-rule:nonzero;stroke:none" /><path
         d="m 237.848,51.989 133.57,0 0,-9.711 -133.57,0 0,9.711 z"
         inkscape:connector-curvature="0"
         id="path322"
         style="fill:#4d4dc5;fill-opacity:1;fill-rule:nonzero;stroke:none" /><path
         d="m 330.418,51.989 41,0 0,-9.711 -41,0 0,9.711 z"
         inkscape:connector-curvature="0"
         id="path324"
         style="fill:#f200f2;fill-opacity:1;fill-rule:nonzero;stroke:none" /><path
         d="m 330.988,26.392 40.43,0 0,-9.715 -40.43,0 0,9.715 z"
         inkscape:connector-curvature="0"
         id="path326"
         style="fill:#f200f2;fill-opacity:1;fill-rule:nonzero;stroke:none" /><path
         d="m 34.305,26.392 75.285,0 0,-9.715 -75.285,0 0,9.715 z"
         inkscape:connector-curvature="0"
         id="path328"
         style="fill:#00f2f2;fill-opacity:1;fill-rule:nonzero;stroke:none" /><path
         d="m 180.477,51.989 58.141,0 0,-9.711 -58.141,0 0,9.711 z"
         inkscape:connector-curvature="0"
         id="path330"
         style="fill:#00f2f2;fill-opacity:1;fill-rule:nonzero;stroke:none" /><path
         d="m 108.477,26.392 29.57,0 0,-9.715 -29.57,0 0,9.715 z"
         inkscape:connector-curvature="0"
         id="path332"
         style="fill:#f200f2;fill-opacity:1;fill-rule:nonzero;stroke:none" /><path
         d="m 165.391,26.392 49.57,0 0,-9.715 -49.57,0 0,9.715 z"
         inkscape:connector-curvature="0"
         id="path334"
         style="fill:#4206f2;fill-opacity:1;fill-rule:nonzero;stroke:none" /><path
         d="m 137.617,26.392 29,0 0,-9.715 -29,0 0,9.715 z"
         inkscape:connector-curvature="0"
         id="path336"
         style="fill:#00f2f2;fill-opacity:1;fill-rule:nonzero;stroke:none" /><path
         d="m 237.848,51.989 92.426,0 0,-9.711 -92.426,0 0,9.711 z"
         inkscape:connector-curvature="0"
         id="path338"
         style="fill:#00f2f2;fill-opacity:1;fill-rule:nonzero;stroke:none" /><path
         d="m 296.133,26.392 34.141,0 0,-9.715 -34.141,0 0,9.715 z"
         inkscape:connector-curvature="0"
         id="path340"
         style="fill:#00f2f2;fill-opacity:1;fill-rule:nonzero;stroke:none" /><path
         d="m 3.586,233.239 0,-5.062 3.016,0 c 1,0 1.742,0.207 2.234,0.625 0.488,0.414 0.734,1.051 0.734,1.906 0,0.863 -0.246,1.5 -0.734,1.906 -0.492,0.414 -1.234,0.625 -2.234,0.625 l -3.016,0 z m 0,5.703 0,-4.171 2.781,0 c 0.914,0 1.598,0.171 2.047,0.515 0.445,0.344 0.672,0.864 0.672,1.563 0,0.695 -0.227,1.218 -0.672,1.562 -0.449,0.352 -1.133,0.531 -2.047,0.531 l -2.781,0 z m -1.875,1.532 4.797,0 c 1.426,0 2.523,-0.297 3.297,-0.891 0.769,-0.594 1.156,-1.437 1.156,-2.531 0,-0.844 -0.199,-1.516 -0.594,-2.016 -0.398,-0.5 -0.976,-0.812 -1.734,-0.937 0.914,-0.199 1.629,-0.617 2.14,-1.25 0.508,-0.625 0.766,-1.407 0.766,-2.344 0,-1.242 -0.422,-2.199 -1.266,-2.875 -0.835,-0.668 -2.027,-1 -3.578,-1 l -4.984,0 0,13.844 z m 12.816,0.578 1.485,0 c 0.926,-1.461 1.617,-2.891 2.078,-4.297 0.469,-1.398 0.703,-2.781 0.703,-4.156 0,-1.387 -0.234,-2.782 -0.703,-4.188 -0.461,-1.406 -1.152,-2.832 -2.078,-4.281 l -1.485,0 c 0.821,1.418 1.438,2.82 1.844,4.219 0.406,1.406 0.609,2.82 0.609,4.25 0,1.426 -0.203,2.832 -0.609,4.218 -0.406,1.395 -1.023,2.805 -1.844,4.235 z"
         inkscape:connector-curvature="0"
         id="path342"
         style="fill:#000000;fill-opacity:1;fill-rule:nonzero;stroke:none" /></g></g></svg>