<?xml version="1.0" encoding="UTF-8" standalone="no"?>
<!-- Created with Inkscape (http://www.inkscape.org/) -->

<svg
   xmlns:dc="http://purl.org/dc/elements/1.1/"
   xmlns:cc="http://creativecommons.org/ns#"
   xmlns:rdf="http://www.w3.org/1999/02/22-rdf-syntax-ns#"
   xmlns:svg="http://www.w3.org/2000/svg"
   xmlns="http://www.w3.org/2000/svg"
   xmlns:inkscape="http://www.inkscape.org/namespaces/inkscape"
   version="1.1"
   width="585"
   height="270"
   id="svg2"
   xml:space="preserve"><metadata
     id="metadata8"><rdf:RDF><cc:Work
         rdf:about=""><dc:format>image/svg+xml</dc:format><dc:type
           rdf:resource="http://purl.org/dc/dcmitype/StillImage" /></cc:Work></rdf:RDF></metadata><defs
     id="defs6"><clipPath
       id="clipPath100"><path
         d="M 0,0 234,0 234,216 0,216 0,0 z"
         inkscape:connector-curvature="0"
         id="path102" /></clipPath><clipPath
       id="clipPath116"><path
         d="m 49.2,49.2 171.6,0 0,153.6 -171.6,0 0,-153.6 z"
         inkscape:connector-curvature="0"
         id="path118" /></clipPath><clipPath
       id="clipPath132"><path
         d="m 283.2,49.2 171.6,0 0,153.6 -171.6,0 0,-153.6 z"
         inkscape:connector-curvature="0"
         id="path134" /></clipPath><clipPath
       id="clipPath208"><path
         d="m 234,0 234,0 0,216 -234,0 0,-216 z"
         inkscape:connector-curvature="0"
         id="path210" /></clipPath><clipPath
       id="clipPath224"><path
         d="m 283.2,49.2 171.6,0 0,153.6 -171.6,0 0,-153.6 z"
         inkscape:connector-curvature="0"
         id="path226" /></clipPath></defs><g
     transform="matrix(1.25,0,0,-1.25,0,270)"
     id="g10"><g
       id="g12" /><g
       id="g14"><path
         d="m 55.56,49.2 158.88,0"
         inkscape:connector-curvature="0"
         id="path16"
         style="fill:none;stroke:#000000;stroke-width:0.75;stroke-linecap:round;stroke-linejoin:round;stroke-miterlimit:10;stroke-opacity:1;stroke-dasharray:none" /><path
         d="m 55.56,49.2 0,-6"
         inkscape:connector-curvature="0"
         id="path18"
         style="fill:none;stroke:#000000;stroke-width:0.75;stroke-linecap:round;stroke-linejoin:round;stroke-miterlimit:10;stroke-opacity:1;stroke-dasharray:none" /><path
         d="m 82.04,49.2 0,-6"
         inkscape:connector-curvature="0"
         id="path20"
         style="fill:none;stroke:#000000;stroke-width:0.75;stroke-linecap:round;stroke-linejoin:round;stroke-miterlimit:10;stroke-opacity:1;stroke-dasharray:none" /><path
         d="m 108.52,49.2 0,-6"
         inkscape:connector-curvature="0"
         id="path22"
         style="fill:none;stroke:#000000;stroke-width:0.75;stroke-linecap:round;stroke-linejoin:round;stroke-miterlimit:10;stroke-opacity:1;stroke-dasharray:none" /><path
         d="m 135,49.2 0,-6"
         inkscape:connector-curvature="0"
         id="path24"
         style="fill:none;stroke:#000000;stroke-width:0.75;stroke-linecap:round;stroke-linejoin:round;stroke-miterlimit:10;stroke-opacity:1;stroke-dasharray:none" /><path
         d="m 161.48,49.2 0,-6"
         inkscape:connector-curvature="0"
         id="path26"
         style="fill:none;stroke:#000000;stroke-width:0.75;stroke-linecap:round;stroke-linejoin:round;stroke-miterlimit:10;stroke-opacity:1;stroke-dasharray:none" /><path
         d="m 187.96,49.2 0,-6"
         inkscape:connector-curvature="0"
         id="path28"
         style="fill:none;stroke:#000000;stroke-width:0.75;stroke-linecap:round;stroke-linejoin:round;stroke-miterlimit:10;stroke-opacity:1;stroke-dasharray:none" /><path
         d="m 214.44,49.2 0,-6"
         inkscape:connector-curvature="0"
         id="path30"
         style="fill:none;stroke:#000000;stroke-width:0.75;stroke-linecap:round;stroke-linejoin:round;stroke-miterlimit:10;stroke-opacity:1;stroke-dasharray:none" /><text
         transform="matrix(1,0,0,-1,52.78,27.6)"
         id="text32"><tspan
           x="0"
           y="0"
           id="tspan34"
           style="font-size:10px;font-variant:normal;font-weight:normal;writing-mode:lr-tb;fill:#000000;fill-opacity:1;fill-rule:nonzero;stroke:none;font-family:Helvetica;-inkscape-font-specification:Helvetica">0</tspan></text>
<text
         transform="matrix(1,0,0,-1,76.48,27.6)"
         id="text36"><tspan
           x="0 5.5599999"
           y="0"
           id="tspan38"
           style="font-size:10px;font-variant:normal;font-weight:normal;writing-mode:lr-tb;fill:#000000;fill-opacity:1;fill-rule:nonzero;stroke:none;font-family:Helvetica;-inkscape-font-specification:Helvetica">50</tspan></text>
<text
         transform="matrix(1,0,0,-1,100.18,27.6)"
         id="text40"><tspan
           x="0 5.5599999 11.12"
           y="0"
           id="tspan42"
           style="font-size:10px;font-variant:normal;font-weight:normal;writing-mode:lr-tb;fill:#000000;fill-opacity:1;fill-rule:nonzero;stroke:none;font-family:Helvetica;-inkscape-font-specification:Helvetica">100</tspan></text>
<text
         transform="matrix(1,0,0,-1,126.66,27.6)"
         id="text44"><tspan
           x="0 5.5599999 11.12"
           y="0"
           id="tspan46"
           style="font-size:10px;font-variant:normal;font-weight:normal;writing-mode:lr-tb;fill:#000000;fill-opacity:1;fill-rule:nonzero;stroke:none;font-family:Helvetica;-inkscape-font-specification:Helvetica">150</tspan></text>
<text
         transform="matrix(1,0,0,-1,153.14,27.6)"
         id="text48"><tspan
           x="0 5.5599999 11.12"
           y="0"
           id="tspan50"
           style="font-size:10px;font-variant:normal;font-weight:normal;writing-mode:lr-tb;fill:#000000;fill-opacity:1;fill-rule:nonzero;stroke:none;font-family:Helvetica;-inkscape-font-specification:Helvetica">200</tspan></text>
<text
         transform="matrix(1,0,0,-1,179.62,27.6)"
         id="text52"><tspan
           x="0 5.5599999 11.12"
           y="0"
           id="tspan54"
           style="font-size:10px;font-variant:normal;font-weight:normal;writing-mode:lr-tb;fill:#000000;fill-opacity:1;fill-rule:nonzero;stroke:none;font-family:Helvetica;-inkscape-font-specification:Helvetica">250</tspan></text>
<text
         transform="matrix(1,0,0,-1,206.1,27.6)"
         id="text56"><tspan
           x="0 5.5599999 11.12"
           y="0"
           id="tspan58"
           style="font-size:10px;font-variant:normal;font-weight:normal;writing-mode:lr-tb;fill:#000000;fill-opacity:1;fill-rule:nonzero;stroke:none;font-family:Helvetica;-inkscape-font-specification:Helvetica">300</tspan></text>
<path
         d="m 49.2,59.77 0,142.24"
         inkscape:connector-curvature="0"
         id="path60"
         style="fill:none;stroke:#000000;stroke-width:0.75;stroke-linecap:round;stroke-linejoin:round;stroke-miterlimit:10;stroke-opacity:1;stroke-dasharray:none" /><path
         d="m 49.2,59.77 -6,0"
         inkscape:connector-curvature="0"
         id="path62"
         style="fill:none;stroke:#000000;stroke-width:0.75;stroke-linecap:round;stroke-linejoin:round;stroke-miterlimit:10;stroke-opacity:1;stroke-dasharray:none" /><path
         d="m 49.2,78.38 -6,0"
         inkscape:connector-curvature="0"
         id="path64"
         style="fill:none;stroke:#000000;stroke-width:0.75;stroke-linecap:round;stroke-linejoin:round;stroke-miterlimit:10;stroke-opacity:1;stroke-dasharray:none" /><path
         d="m 49.2,102.98 -6,0"
         inkscape:connector-curvature="0"
         id="path66"
         style="fill:none;stroke:#000000;stroke-width:0.75;stroke-linecap:round;stroke-linejoin:round;stroke-miterlimit:10;stroke-opacity:1;stroke-dasharray:none" /><path
         d="m 49.2,121.58 -6,0"
         inkscape:connector-curvature="0"
         id="path68"
         style="fill:none;stroke:#000000;stroke-width:0.75;stroke-linecap:round;stroke-linejoin:round;stroke-miterlimit:10;stroke-opacity:1;stroke-dasharray:none" /><path
         d="m 49.2,140.19 -6,0"
         inkscape:connector-curvature="0"
         id="path70"
         style="fill:none;stroke:#000000;stroke-width:0.75;stroke-linecap:round;stroke-linejoin:round;stroke-miterlimit:10;stroke-opacity:1;stroke-dasharray:none" /><path
         d="m 49.2,164.79 -6,0"
         inkscape:connector-curvature="0"
         id="path72"
         style="fill:none;stroke:#000000;stroke-width:0.75;stroke-linecap:round;stroke-linejoin:round;stroke-miterlimit:10;stroke-opacity:1;stroke-dasharray:none" /><path
         d="m 49.2,183.4 -6,0"
         inkscape:connector-curvature="0"
         id="path74"
         style="fill:none;stroke:#000000;stroke-width:0.75;stroke-linecap:round;stroke-linejoin:round;stroke-miterlimit:10;stroke-opacity:1;stroke-dasharray:none" /><path
         d="m 49.2,202.01 -6,0"
         inkscape:connector-curvature="0"
         id="path76"
         style="fill:none;stroke:#000000;stroke-width:0.75;stroke-linecap:round;stroke-linejoin:round;stroke-miterlimit:10;stroke-opacity:1;stroke-dasharray:none" /><text
         transform="matrix(0,1,1,0,34.8,45.73)"
         id="text78"><tspan
           x="0 5.5599999 11.12 16.959999 22.52"
           y="0"
           id="tspan80"
           style="font-size:10px;font-variant:normal;font-weight:normal;writing-mode:lr-tb;fill:#000000;fill-opacity:1;fill-rule:nonzero;stroke:none;font-family:Helvetica;-inkscape-font-specification:Helvetica">1e−07</tspan></text>
<text
         transform="matrix(0,1,1,0,34.8,88.94)"
         id="text82"><tspan
           x="0 5.5599999 11.12 16.959999 22.52"
           y="0"
           id="tspan84"
           style="font-size:10px;font-variant:normal;font-weight:normal;writing-mode:lr-tb;fill:#000000;fill-opacity:1;fill-rule:nonzero;stroke:none;font-family:Helvetica;-inkscape-font-specification:Helvetica">5e−07</tspan></text>
<text
         transform="matrix(0,1,1,0,34.8,126.15)"
         id="text86"><tspan
           x="0 5.5599999 11.12 16.959999 22.52"
           y="0"
           id="tspan88"
           style="font-size:10px;font-variant:normal;font-weight:normal;writing-mode:lr-tb;fill:#000000;fill-opacity:1;fill-rule:nonzero;stroke:none;font-family:Helvetica;-inkscape-font-specification:Helvetica">2e−06</tspan></text>
<text
         transform="matrix(0,1,1,0,34.8,169.36)"
         id="text90"><tspan
           x="0 5.5599999 11.12 16.959999 22.52"
           y="0"
           id="tspan92"
           style="font-size:10px;font-variant:normal;font-weight:normal;writing-mode:lr-tb;fill:#000000;fill-opacity:1;fill-rule:nonzero;stroke:none;font-family:Helvetica;-inkscape-font-specification:Helvetica">1e−05</tspan></text>
<path
         d="m 49.2,49.2 171.6,0 0,153.6 -171.6,0 0,-153.6"
         inkscape:connector-curvature="0"
         id="path94"
         style="fill:none;stroke:#000000;stroke-width:0.75;stroke-linecap:round;stroke-linejoin:round;stroke-miterlimit:10;stroke-opacity:1;stroke-dasharray:none" /></g><g
       id="g96"><g
         clip-path="url(#clipPath100)"
         id="g98"><text
           transform="matrix(1,0,0,-1,99.2,3.6)"
           id="text104"><tspan
             x="0 5.5599999 11.12 16.68 22.24 25.469999 31.030001 33.810001 36.029999 41.59 47.150002 52.150002 54.93 60.490002 66.050003"
             y="0"
             id="tspan106"
             style="font-size:10px;font-variant:normal;font-weight:normal;writing-mode:lr-tb;fill:#000000;fill-opacity:1;fill-rule:nonzero;stroke:none;font-family:Helvetica;-inkscape-font-specification:Helvetica">generations ago</tspan></text>
<text
           transform="matrix(0,1,1,0,10.8,92.15)"
           id="text108"><tspan
             x="0 5 10.56 16.120001 18.34 23.9 28.9 33.900002 39.459999 45.02 47.799999 50.580002 53.810001 59.369999 62.150002"
             y="0"
             id="tspan110"
             style="font-size:10px;font-variant:normal;font-weight:normal;writing-mode:lr-tb;fill:#000000;fill-opacity:1;fill-rule:nonzero;stroke:none;font-family:Helvetica;-inkscape-font-specification:Helvetica">coalescent rate</tspan></text>
</g></g><g
       id="g112"><g
         clip-path="url(#clipPath116)"
         id="g114"><path
           d="m 56.61,146.18 0.53,0 0.53,0 0.53,0 0.53,0 0.53,0 0.53,0 0.53,0 0.53,0 0.53,0 0.53,0 0.53,0 0.53,0 0.53,0 0.53,0 0.53,0 0.53,0 0.53,0 0.53,0 0.53,0 0.53,0 0.53,0 0.53,0 0.53,0 0.53,0 0.53,0 0.53,0 0.52,0 0.53,0 0.53,0 0.53,0 0.53,0 0.53,0 0.53,0 0.53,0 0.53,0 0.53,0 0.53,0 0.53,0 0.53,0 0.53,0 0.53,0 0.53,0 0.53,0 0.53,0 0.53,0 0.53,0 0.53,0 0.53,0 0.53,0 0.53,0 0.53,0 0.53,0 0.53,0 0.52,0 0.53,0 0.53,0 0.53,0 0.53,0 0.53,0 0.53,0 0.53,0 0.53,0 0.53,0 0.53,0 0.53,0 0.53,0 0.53,0 0.53,0 0.53,0 0.53,0 0.53,0 0.53,0 0.53,0 0.53,0 0.53,0 0.53,0 0.53,0 0.53,0 0.53,0 0.53,0 0.52,0 0.53,0 0.53,0 0.53,0 0.53,0 0.53,0 0.53,0 0.53,0 0.53,0 0.53,0 0.53,0 0.53,0 0.53,0 0.53,0 0.53,0 0.53,0 0.53,0 0.53,0 0.53,0 0.53,0 0.53,0 0.53,0 0.53,0 0.53,0 0.53,0 0.53,0 0.53,0 0.52,0 0.53,0 0.53,0 0.53,0 0.53,-0.01 0.53,0 0.53,0 0.53,0 0.53,0 0.53,0 0.53,0 0.53,0 0.53,0 0.53,0 0.53,0 0.53,0 0.53,0 0.53,0 0.53,0 0.53,0 0.53,0 0.53,0 0.53,0 0.53,0 0.53,0 0.53,0 0.53,0 0.52,0 0.53,0 0.53,0 0.53,0 0.53,0 0.53,0 0.53,0 0.53,0 0.53,0 0.53,0 0.53,0 0.53,0 0.53,0 0.53,0 0.53,0 0.53,0 0.53,0 0.53,0 0.53,0 0.53,0 0.53,0 0.53,0 0.53,0 0.53,0 0.53,0 0.53,0 0.53,0 0.52,0 0.53,0 0.53,0 0.53,0 0.53,0 0.53,0 0.53,0 0.53,0 0.53,0 0.53,0 0.53,0 0.53,0 0.53,0 0.53,0 0.53,0 0.53,0 0.53,0 0.53,0 0.53,0 0.53,0 0.53,0 0.53,0 0.53,0 0.53,0 0.53,0 0.53,0 0.53,0 0.52,0 0.53,0 0.53,0 0.53,0 0.53,0 0.53,0 0.53,0 0.53,0 0.53,0 0.53,0 0.53,0 0.53,0 0.53,0 0.53,0 0.53,0 0.53,0 0.53,0 0.53,0 0.53,0 0.53,0 0.53,0 0.53,0 0.53,0 0.53,0 0.53,0 0.53,0 0.53,0 0.52,0 0.53,0 0.53,0 0.53,0 0.53,0 0.53,0 0.53,0 0.53,0 0.53,0 0.53,0 0.53,0 0.53,0 0.53,0 0.53,0 0.53,0 0.53,0 0.53,0 0.53,0 0.53,0 0.53,0 0.53,0 0.53,0 0.53,0 0.53,0 0.53,0 0.53,0 0.53,0 0.52,0 0.53,0 0.53,0 0.53,0 0.53,0 0.53,0 0.53,0 0.53,0 0.53,0 0.53,0 0.53,0 0.53,0 0.53,0 0.53,0 0.53,0 0.53,0 0.53,0 0.53,0 0.53,0 0.53,-0.01 0.53,0 0.53,0 0.53,0 0.53,0 0.53,0 0.53,0 0.53,0 0.52,0 0.53,0 0.53,0 0.53,0 0.53,0 0.53,0 0.53,0 0.53,0 0.53,0 0.53,0 0.53,0 0.53,0 0.53,0 0.53,0 0.53,0 0.53,0 0.53,0 0.53,0 0.53,0 0.53,0 0.53,0 0.53,0 0.53,0 0.53,0 0.53,0 0.53,0 0.53,0 0.52,0 0.53,0 0.53,0 0.53,0 0.53,0 0.53,0 0.53,0 0.53,0 0.53,0 0.53,0 0.53,0 0.53,0 0.53,0 0.53,0 0.53,0 0.53,0 0.53,0 0.53,0 0.53,0 0.53,0 0.53,0 0.53,0 0.53,0 0.53,0 0.53,0 0.53,0 0.53,0 0.52,0 0.53,0 0.53,0 0.53,0 0.53,0 0.53,0 0.53,0 0.53,0 0.53,0 0.53,0 0.53,0 0.53,0 0.53,0 0.53,0 0.53,0 0.53,0 0.53,0 0.53,0 0.53,0 0.53,0 0.53,0 0.53,0 0.53,0 0.53,0 0.53,0 0.53,0 0.53,0 0.52,0 0.53,0 0.53,0 0.53,0 0.53,0 0.53,0 0.53,0 0.53,0 0.53,0 0.53,0 0.53,0 0.53,0 0.53,0 0.53,0 0.53,0 0.53,0 0.53,0 0.53,0 0.53,0 0.53,0 0.53,0 0.53,0 0.53,0 0.53,0 0.53,0 0.53,0 0.53,0 0.52,0 0.53,0 0.53,0 0.53,0 0.53,0 0.53,0 0.53,0 0.53,0 0.53,0 0.53,0 0.53,0 0.53,0 0.53,0 0.53,0 0.53,0 0.53,0 0.53,0 0.53,0 0.53,0 0.53,0 0.53,0 0.53,0 0.53,0 0.53,0 0.53,0 0.53,0 0.53,0 0.52,0 0.53,0 0.53,0 0.53,0 0.53,0 0.53,-0.01 0.53,0 0.53,0 0.53,0 0.53,0 0.53,0 0.53,0 0.53,0 0.53,0 0.53,0 0.53,0 0.53,0 0.53,0 0.53,0 0.53,0 0.53,0 0.53,0 0.53,0 0.53,0 0.53,0 0.53,0 0.53,0 0.52,0 0.53,0 0.53,0 0.53,0 0.53,0 0.53,0 0.53,0 0.53,0 0.53,0 0.53,0 0.53,0 0.53,0 0.53,0 0.53,0 0.53,0 0.53,0 0.53,0 0.53,0 0.53,0 0.53,0 0.53,0 0.53,0 0.53,0 0.53,0 0.53,0 0.53,0 0.53,0 0.52,0 0.53,0 0.53,0 0.53,0 0.53,0 0.53,0 0.53,0 0.53,0 0.53,0 0.53,0 0.53,0 0.53,0 0.53,0 0.53,0 0.53,0 0.53,0 0.53,0 0.53,0 0.53,0 0.53,0 0.53,0 0.53,0 0.53,0 0.53,0 0.53,0 0.53,0 0.53,0 0.52,0 0.53,0 0.53,0 0.53,0 0.53,0 0.53,0 0.53,0 0.53,0 0.53,0 0.53,0 0.53,0 0.53,0 0.53,0 0.53,0 0.53,0 0.53,0 0.53,0 0.53,0 0.53,0 0.53,0 0.53,0 0.53,0 0.53,0 0.53,0 0.53,0 0.53,0 0.53,0 0.52,0 0.53,0 0.53,0 0.53,0 0.53,0 0.53,0 0.53,0 0.53,0 0.53,0 0.53,0 0.53,0 0.53,0 0.53,0 0.53,0 0.53,0 0.53,0 0.53,0 0.53,0 0.53,0 0.53,0 0.53,0 0.53,0 0.53,0 0.53,0 0.53,0 0.53,0 0.53,0 0.52,0 0.53,0 0.53,0 0.53,0 0.53,0 0.53,0 0.53,0 0.53,0 0.53,0 0.53,0 0.53,0 0.53,0 0.53,0 0.53,0 0.53,0 0.53,0 0.53,0 0.53,0 0.53,0 0.53,0 0.53,-0.01 0.53,0 0.53,0 0.53,0 0.53,0 0.53,0 0.53,0 0.52,0 0.53,0 0.53,0 0.53,0 0.53,0 0.53,0 0.53,0 0.53,0 0.53,0 0.53,0 0.53,0 0.53,0 0.53,0 0.53,0 0.53,0 0.53,0 0.53,0 0.53,0 0.53,0 0.53,0 0.53,0 0.53,0 0.53,0 0.53,0 0.53,0 0.53,0 0.53,0 0.52,0 0.53,0 0.53,0 0.53,0 0.53,0"
           inkscape:connector-curvature="0"
           id="path120"
           style="fill:none;stroke:#e495a5;stroke-width:1.5;stroke-linecap:round;stroke-linejoin:round;stroke-miterlimit:10;stroke-opacity:1;stroke-dasharray:none" /><path
           d="m 56.61,54.89 0.53,0 0.53,0 0.53,0 0.53,0 0.53,0 0.53,0 0.53,0 0.53,0 0.53,0 0.53,0.01 0.53,0 0.53,0 0.53,0 0.53,0 0.53,0 0.53,0 0.53,0 0.53,0 0.53,0 0.53,0 0.53,0 0.53,0.01 0.53,0 0.53,0 0.53,0 0.53,0 0.52,0 0.53,0 0.53,0 0.53,0.01 0.53,0 0.53,0 0.53,0 0.53,0 0.53,0 0.53,0.01 0.53,0 0.53,0 0.53,0 0.53,0.01 0.53,0 0.53,0 0.53,0 0.53,0.01 0.53,0 0.53,0 0.53,0 0.53,0.01 0.53,0 0.53,0.01 0.53,0 0.53,0 0.53,0 0.52,0.01 0.53,0 0.53,0.01 0.53,0 0.53,0.01 0.53,0 0.53,0.01 0.53,0 0.53,0.01 0.53,0 0.53,0.01 0.53,0 0.53,0.01 0.53,0 0.53,0.02 0.53,0 0.53,0.01 0.53,0 0.53,0.02 0.53,0 0.53,0.02 0.53,0 0.53,0.01 0.53,0 0.53,0.02 0.53,0 0.53,0.03 0.52,0 0.53,0.02 0.53,0 0.53,0.02 0.53,0 0.53,0.03 0.53,0 0.53,0.03 0.53,0 0.53,0.03 0.53,0 0.53,0.04 0.53,0 0.53,0.03 0.53,0 0.53,0.04 0.53,0 0.53,0.05 0.53,0 0.53,0.04 0.53,0 0.53,0.05 0.53,0 0.53,0.06 0.53,0 0.53,0.06 0.53,0 0.52,0.06 0.53,0 0.53,0.07 0.53,0 0.53,0.08 0.53,0 0.53,0.08 0.53,0 0.53,0.09 0.53,0 0.53,0.09 0.53,0 0.53,0.11 0.53,0 0.53,0.11 0.53,0 0.53,0.12 0.53,0 0.53,0.14 0.53,0 0.53,0.14 0.53,0 0.53,0.16 0.53,0 0.53,0.17 0.53,0 0.53,0.18 0.52,0 0.53,0.2 0.53,0 0.53,0.22 0.53,0 0.53,0.24 0.53,0 0.53,0.26 0.53,0 0.53,0.28 0.53,0 0.53,0.31 0.53,0 0.53,0.33 0.53,0 0.53,0.37 0.53,0 0.53,0.41 0.53,0 0.53,0.44 0.53,0 0.53,0.49 0.53,0 0.53,0.53 0.53,0 0.53,0.59 0.53,0 0.52,0.66 0.53,0 0.53,0.72 0.53,0 0.53,0.8 0.53,0 0.53,0.9 0.53,0 0.53,1 0.53,0 0.53,1.12 0.53,0 0.53,1.28 0.53,0 0.53,1.44 0.53,0 0.53,1.65 0.53,0 0.53,1.9 0.53,0 0.53,2.22 0.53,0 0.53,2.62 0.53,0 0.53,3.16 0.53,0 0.53,3.88 0.52,0 0.53,4.93 0.53,0 0.53,6.6 0.53,0 0.53,9.6 0.53,0 0.53,16.76 0.53,0 0.53,73.93 0.53,0 0.53,0 0.53,0 0.53,0 0.53,0 0.53,0 0.53,0 0.53,0 0.53,0 0.53,0 0.53,0 0.53,0 0.53,0 0.53,-0.01 0.53,0 0.53,0 0.53,0 0.52,0 0.53,0 0.53,0 0.53,0 0.53,0 0.53,0 0.53,0 0.53,0 0.53,0 0.53,0 0.53,0 0.53,0 0.53,0 0.53,0 0.53,0 0.53,0 0.53,0 0.53,0 0.53,0 0.53,0 0.53,-0.01 0.53,0 0.53,0 0.53,0 0.53,0 0.53,0 0.53,0 0.52,0 0.53,0 0.53,0 0.53,0 0.53,0 0.53,0 0.53,0 0.53,0 0.53,0 0.53,0 0.53,0 0.53,0 0.53,0 0.53,0 0.53,0 0.53,-0.01 0.53,0 0.53,0 0.53,0 0.53,0 0.53,0 0.53,0 0.53,0 0.53,0 0.53,0 0.53,0 0.53,0 0.52,0 0.53,0 0.53,0 0.53,0 0.53,0 0.53,0 0.53,0 0.53,0 0.53,0 0.53,0 0.53,-0.01 0.53,0 0.53,0 0.53,0 0.53,0 0.53,0 0.53,0 0.53,0 0.53,0 0.53,0 0.53,0 0.53,0 0.53,0 0.53,0 0.53,0 0.53,0 0.53,0 0.52,0 0.53,0 0.53,0 0.53,0 0.53,0 0.53,-0.01 0.53,0 0.53,0 0.53,0 0.53,0 0.53,0 0.53,0 0.53,0 0.53,0 0.53,0 0.53,0 0.53,0 0.53,0 0.53,0 0.53,0 0.53,0 0.53,0 0.53,0 0.53,0 0.53,0 0.53,0 0.53,0 0.52,-0.01 0.53,0 0.53,0 0.53,0 0.53,0 0.53,0 0.53,0 0.53,0 0.53,0 0.53,0 0.53,0 0.53,0 0.53,0 0.53,0 0.53,0 0.53,0 0.53,0 0.53,0 0.53,0 0.53,0 0.53,0 0.53,0 0.53,-0.01 0.53,0 0.53,0 0.53,0 0.53,0 0.52,0 0.53,0 0.53,0 0.53,0 0.53,0 0.53,0 0.53,0 0.53,0 0.53,0 0.53,0 0.53,0 0.53,0 0.53,0 0.53,0 0.53,0 0.53,0 0.53,0 0.53,0 0.53,0 0.53,-0.01 0.53,0 0.53,0 0.53,0 0.53,0 0.53,0 0.53,0 0.53,0 0.52,0 0.53,0 0.53,0 0.53,0 0.53,0 0.53,0 0.53,0 0.53,0 0.53,0 0.53,0 0.53,0 0.53,0 0.53,0 0.53,0 0.53,-0.01 0.53,0 0.53,0 0.53,0 0.53,0 0.53,0 0.53,0 0.53,0 0.53,0 0.53,0 0.53,0 0.53,0 0.53,0 0.52,0 0.53,0 0.53,0 0.53,0 0.53,0 0.53,0 0.53,0 0.53,0 0.53,0 0.53,-0.01 0.53,0 0.53,0 0.53,0 0.53,0 0.53,0 0.53,0 0.53,0 0.53,0 0.53,0 0.53,0 0.53,0 0.53,0 0.53,0 0.53,0 0.53,0 0.53,0 0.53,0 0.52,0 0.53,0 0.53,0 0.53,0 0.53,-0.01 0.53,0 0.53,0 0.53,0 0.53,0 0.53,0 0.53,0 0.53,0 0.53,0 0.53,0 0.53,0 0.53,0 0.53,0 0.53,0 0.53,0 0.53,0 0.53,0 0.53,0 0.53,0 0.53,0 0.53,0 0.53,0 0.53,-0.01 0.52,0 0.53,0 0.53,0 0.53,0 0.53,0 0.53,0 0.53,0 0.53,0 0.53,0 0.53,0 0.53,0 0.53,0 0.53,0 0.53,0 0.53,0 0.53,0 0.53,0 0.53,0 0.53,0 0.53,0 0.53,0 0.53,-0.01 0.53,0 0.53,0 0.53,0 0.53,0 0.53,0 0.52,0 0.53,0 0.53,0 0.53,0 0.53,0 0.53,0 0.53,0 0.53,0 0.53,0 0.53,0 0.53,0 0.53,0 0.53,0 0.53,0 0.53,0 0.53,0 0.53,0 0.53,0 0.53,-0.01 0.53,0 0.53,0 0.53,0 0.53,0 0.53,0 0.53,0 0.53,0 0.53,0 0.52,0 0.53,0 0.53,0 0.53,0 0.53,0 0.53,0 0.53,0 0.53,0 0.53,0 0.53,0 0.53,0 0.53,0 0.53,0 0.53,-0.01 0.53,0 0.53,0 0.53,0 0.53,0 0.53,0 0.53,0 0.53,0 0.53,0 0.53,0 0.53,0 0.53,0 0.53,0 0.53,0 0.52,0 0.53,0 0.53,0 0.53,0 0.53,0 0.53,0 0.53,0 0.53,0 0.53,-0.01 0.53,0 0.53,0 0.53,0 0.53,0 0.53,0 0.53,0 0.53,0 0.53,0 0.53,0 0.53,0 0.53,0 0.53,0 0.53,0 0.53,0 0.53,0 0.53,0 0.53,0 0.53,0 0.52,0 0.53,0 0.53,0 0.53,-0.01 0.53,0 0.53,0 0.53,0 0.53,0 0.53,0 0.53,0 0.53,0 0.53,0 0.53,0 0.53,0 0.53,0 0.53,0 0.53,0 0.53,0 0.53,0 0.53,0 0.53,0 0.53,0 0.53,0 0.53,0 0.53,0 0.53,-0.01 0.53,0 0.52,0 0.53,0 0.53,0 0.53,0 0.53,0"
           inkscape:connector-curvature="0"
           id="path122"
           style="fill:none;stroke:#abb065;stroke-width:1.5;stroke-linecap:round;stroke-linejoin:round;stroke-miterlimit:10;stroke-opacity:1;stroke-dasharray:none" /><path
           d="m 56.61,55.5 0.53,0 0.53,0.05 0.53,0 0.53,0.06 0.53,0 0.53,0.06 0.53,0 0.53,0.06 0.53,0 0.53,0.07 0.53,0 0.53,0.07 0.53,0 0.53,0.08 0.53,0 0.53,0.09 0.53,0 0.53,0.1 0.53,0 0.53,0.1 0.53,0 0.53,0.11 0.53,0 0.53,0.13 0.53,0 0.53,0.13 0.52,0 0.53,0.14 0.53,0 0.53,0.16 0.53,0 0.53,0.16 0.53,0 0.53,0.19 0.53,0 0.53,0.2 0.53,0 0.53,0.21 0.53,0 0.53,0.24 0.53,0 0.53,0.26 0.53,0 0.53,0.28 0.53,0 0.53,0.31 0.53,0 0.53,0.33 0.53,0 0.53,0.37 0.53,0 0.53,0.4 0.53,0 0.52,0.44 0.53,0 0.53,0.48 0.53,0 0.53,0.54 0.53,0 0.53,0.58 0.53,0 0.53,0.65 0.53,0 0.53,0.72 0.53,0 0.53,0.8 0.53,0 0.53,0.89 0.53,0 0.53,0.99 0.53,0 0.53,1.12 0.53,0 0.53,1.26 0.53,0 0.53,1.43 0.53,0 0.53,1.63 0.53,0 0.53,1.89 0.52,0 0.53,2.2 0.53,0 0.53,2.59 0.53,0 0.53,3.11 0.53,0 0.53,3.82 0.53,0 0.53,4.86 0.53,0 0.53,6.45 0.53,0 0.53,9.34 0.53,0 0.53,16 0.53,0 0.53,56.85 0.53,0 0.53,0 0.53,0 0.53,0 0.53,0 0.53,0 0.53,0 0.53,0 0.53,0 0.52,0 0.53,0 0.53,0 0.53,0 0.53,0 0.53,0 0.53,0 0.53,0 0.53,0 0.53,0 0.53,0 0.53,0 0.53,0 0.53,0 0.53,0 0.53,0 0.53,0 0.53,0 0.53,0 0.53,0 0.53,0 0.53,0 0.53,0 0.53,0 0.53,0 0.53,0 0.53,0 0.52,0 0.53,-0.01 0.53,0 0.53,0 0.53,0 0.53,0 0.53,0 0.53,0 0.53,0 0.53,0 0.53,0 0.53,0 0.53,0 0.53,0 0.53,0 0.53,0 0.53,0 0.53,0 0.53,0 0.53,0 0.53,0 0.53,0 0.53,0 0.53,0 0.53,0 0.53,0 0.53,0 0.52,0 0.53,0 0.53,0 0.53,0 0.53,0 0.53,0 0.53,0 0.53,0 0.53,0 0.53,0 0.53,0 0.53,0 0.53,0 0.53,0 0.53,0 0.53,0 0.53,0 0.53,0 0.53,0 0.53,0 0.53,-0.01 0.53,0 0.53,0 0.53,0 0.53,0 0.53,0 0.53,0 0.52,0 0.53,0 0.53,0 0.53,0 0.53,0 0.53,0 0.53,0 0.53,0 0.53,0 0.53,0 0.53,0 0.53,0 0.53,0 0.53,0 0.53,0 0.53,0 0.53,0 0.53,0 0.53,0 0.53,0 0.53,0 0.53,0 0.53,0 0.53,0 0.53,0 0.53,0 0.53,0 0.52,0 0.53,0 0.53,0 0.53,0 0.53,0 0.53,0 0.53,0 0.53,0 0.53,0 0.53,0 0.53,-0.01 0.53,0 0.53,0 0.53,0 0.53,0 0.53,0 0.53,0 0.53,0 0.53,0 0.53,0 0.53,0 0.53,0 0.53,0 0.53,0 0.53,0 0.53,0 0.53,0 0.52,0 0.53,0 0.53,0 0.53,0 0.53,0 0.53,0 0.53,0 0.53,0 0.53,0 0.53,0 0.53,0 0.53,0 0.53,0 0.53,0 0.53,0 0.53,0 0.53,0 0.53,0 0.53,0 0.53,0 0.53,0 0.53,0 0.53,0 0.53,0 0.53,0 0.53,0 0.53,0 0.52,-0.01 0.53,0 0.53,0 0.53,0 0.53,0 0.53,0 0.53,0 0.53,0 0.53,0 0.53,0 0.53,0 0.53,0 0.53,0 0.53,0 0.53,0 0.53,0 0.53,0 0.53,0 0.53,0 0.53,0 0.53,0 0.53,0 0.53,0 0.53,0 0.53,0 0.53,0 0.53,0 0.52,0 0.53,0 0.53,0 0.53,0 0.53,0 0.53,0 0.53,0 0.53,0 0.53,0 0.53,0 0.53,0 0.53,0 0.53,0 0.53,0 0.53,0 0.53,0 0.53,0 0.53,0 0.53,0 0.53,-0.01 0.53,0 0.53,0 0.53,0 0.53,0 0.53,0 0.53,0 0.53,0 0.52,0 0.53,0 0.53,0 0.53,0 0.53,0 0.53,0 0.53,0 0.53,0 0.53,0 0.53,0 0.53,0 0.53,0 0.53,0 0.53,0 0.53,0 0.53,0 0.53,0 0.53,0 0.53,0 0.53,0 0.53,0 0.53,0 0.53,0 0.53,0 0.53,0 0.53,0 0.53,0 0.52,0 0.53,0 0.53,0 0.53,0 0.53,0 0.53,0 0.53,0 0.53,0 0.53,0 0.53,-0.01 0.53,0 0.53,0 0.53,0 0.53,0 0.53,0 0.53,0 0.53,0 0.53,0 0.53,0 0.53,0 0.53,0 0.53,0 0.53,0 0.53,0 0.53,0 0.53,0 0.53,0 0.52,0 0.53,0 0.53,0 0.53,0 0.53,0 0.53,0 0.53,0 0.53,0 0.53,0 0.53,0 0.53,0 0.53,0 0.53,0 0.53,0 0.53,0 0.53,0 0.53,0 0.53,0 0.53,0 0.53,0 0.53,0 0.53,0 0.53,0 0.53,0 0.53,0 0.53,0 0.53,-0.01 0.52,0 0.53,0 0.53,0 0.53,0 0.53,0 0.53,0 0.53,0 0.53,0 0.53,0 0.53,0 0.53,0 0.53,0 0.53,0 0.53,0 0.53,0 0.53,0 0.53,0 0.53,0 0.53,0 0.53,0 0.53,0 0.53,0 0.53,0 0.53,0 0.53,0 0.53,0 0.53,0 0.52,0 0.53,0 0.53,0 0.53,0 0.53,0 0.53,0 0.53,0 0.53,0 0.53,0 0.53,0 0.53,0 0.53,0 0.53,0 0.53,0 0.53,0 0.53,0 0.53,0 0.53,0 0.53,-0.01 0.53,0 0.53,0 0.53,0 0.53,0 0.53,0 0.53,0 0.53,0 0.53,0 0.52,0 0.53,0 0.53,0 0.53,0 0.53,0 0.53,0 0.53,0 0.53,0 0.53,0 0.53,0 0.53,0 0.53,0 0.53,0 0.53,0 0.53,0 0.53,0 0.53,0 0.53,0 0.53,0 0.53,0 0.53,0 0.53,0 0.53,0 0.53,0 0.53,0 0.53,0 0.53,0 0.52,0 0.53,0 0.53,0 0.53,0 0.53,0 0.53,0 0.53,0 0.53,0 0.53,-0.01 0.53,0 0.53,0 0.53,0 0.53,0 0.53,0 0.53,0 0.53,0 0.53,0 0.53,0 0.53,0 0.53,0 0.53,0 0.53,0 0.53,0 0.53,0 0.53,0 0.53,0 0.53,0 0.52,0 0.53,0 0.53,0 0.53,0 0.53,0 0.53,0 0.53,0 0.53,0 0.53,0 0.53,0 0.53,0 0.53,0 0.53,0 0.53,0 0.53,0 0.53,0 0.53,0 0.53,0 0.53,0 0.53,0 0.53,0 0.53,0 0.53,0 0.53,0 0.53,0 0.53,-0.01 0.53,0 0.52,0 0.53,0 0.53,0 0.53,0 0.53,0 0.53,0 0.53,0 0.53,0 0.53,0 0.53,0 0.53,0 0.53,0 0.53,0 0.53,0 0.53,0 0.53,0 0.53,0 0.53,0 0.53,0 0.53,0 0.53,0 0.53,0 0.53,0 0.53,0 0.53,0 0.53,0 0.53,0 0.52,0 0.53,0 0.53,0 0.53,0 0.53,0 0.53,0 0.53,0 0.53,0 0.53,0 0.53,0 0.53,0 0.53,0 0.53,0 0.53,0 0.53,0 0.53,0 0.53,0 0.53,-0.01 0.53,0 0.53,0 0.53,0 0.53,0 0.53,0 0.53,0 0.53,0 0.53,0 0.53,0 0.52,0 0.53,0 0.53,0 0.53,0 0.53,0"
           inkscape:connector-curvature="0"
           id="path124"
           style="fill:none;stroke:#39beb1;stroke-width:1.5;stroke-linecap:round;stroke-linejoin:round;stroke-miterlimit:10;stroke-opacity:1;stroke-dasharray:none" /><path
           d="m 56.61,71.12 0.53,0 0.53,26.85 0.53,0 0.53,26.84 0.53,0 0.53,26.85 0.53,0 0.53,26.84 0.53,0 0.53,0 0.53,0 0.53,0 0.53,0 0.53,0 0.53,0 0.53,0 0.53,0 0.53,0 0.53,0 0.53,0 0.53,0 0.53,0 0.53,0 0.53,0 0.53,0 0.53,0 0.52,0 0.53,-6.68 0.53,0 0.53,-5.37 0.53,0 0.53,-5.36 0.53,0 0.53,-5.36 0.53,0 0.53,-5.37 0.53,0 0.53,-5.36 0.53,0 0.53,-5.36 0.53,0 0.53,-5.36 0.53,0 0.53,-5.37 0.53,0 0.53,-5.36 0.53,0 0.53,-5.36 0.53,0 0.53,-5.36 0.53,0 0.53,-5.36 0.53,0 0.52,-5.37 0.53,0 0.53,-5.36 0.53,0 0.53,-5.49 0.53,0 0.53,0.1 0.53,0 0.53,0.13 0.53,0 0.53,0.13 0.53,0 0.53,0.16 0.53,0 0.53,0.17 0.53,0 0.53,0.19 0.53,0 0.53,0.22 0.53,0 0.53,0.25 0.53,0 0.53,0.28 0.53,0 0.53,0.32 0.53,0 0.53,0.36 0.52,0 0.53,0.41 0.53,0 0.53,0.46 0.53,0 0.53,0.53 0.53,0 0.53,0.6 0.53,0 0.53,0.69 0.53,0 0.53,0.8 0.53,0 0.53,0.92 0.53,0 0.53,1.07 0.53,0 0.53,1.24 0.53,0 0.53,1.47 0.53,0 0.53,1.74 0.53,0 0.53,2.09 0.53,0 0.53,2.56 0.53,0 0.52,3.17 0.53,0 0.53,4.07 0.53,0 0.53,5.43 0.53,0 0.53,7.74 0.53,0 0.53,12.58 0.53,0 0.53,29.64 0.53,0 0.53,0 0.53,0 0.53,0 0.53,0 0.53,0 0.53,0 0.53,0 0.53,0 0.53,0 0.53,0 0.53,0 0.53,0 0.53,0 0.53,0 0.53,0 0.52,0 0.53,0 0.53,0 0.53,0 0.53,0 0.53,0 0.53,0 0.53,0 0.53,0 0.53,0 0.53,0 0.53,0 0.53,0 0.53,0 0.53,0 0.53,0 0.53,0 0.53,0 0.53,0 0.53,0 0.53,0 0.53,0 0.53,0 0.53,0 0.53,0 0.53,0 0.53,0 0.52,0 0.53,0 0.53,0 0.53,0 0.53,0 0.53,0 0.53,0 0.53,0 0.53,-0.01 0.53,0 0.53,0 0.53,0 0.53,0 0.53,0 0.53,0 0.53,0 0.53,0 0.53,0 0.53,0 0.53,0 0.53,0 0.53,0 0.53,0 0.53,0 0.53,0 0.53,0 0.53,0 0.52,0 0.53,0 0.53,0 0.53,0 0.53,0 0.53,0 0.53,0 0.53,0 0.53,0 0.53,0 0.53,0 0.53,0 0.53,0 0.53,0 0.53,0 0.53,0 0.53,0 0.53,0 0.53,0 0.53,0 0.53,0 0.53,0 0.53,0 0.53,0 0.53,0 0.53,0 0.53,0 0.52,0 0.53,0 0.53,0 0.53,0 0.53,0 0.53,0 0.53,0 0.53,0 0.53,0 0.53,0 0.53,0 0.53,0 0.53,-0.01 0.53,0 0.53,0 0.53,0 0.53,0 0.53,0 0.53,0 0.53,0 0.53,0 0.53,0 0.53,0 0.53,0 0.53,0 0.53,0 0.53,0 0.52,0 0.53,0 0.53,0 0.53,0 0.53,0 0.53,0 0.53,0 0.53,0 0.53,0 0.53,0 0.53,0 0.53,0 0.53,0 0.53,0 0.53,0 0.53,0 0.53,0 0.53,0 0.53,0 0.53,0 0.53,0 0.53,0 0.53,0 0.53,0 0.53,0 0.53,0 0.53,0 0.52,0 0.53,0 0.53,0 0.53,0 0.53,0 0.53,0 0.53,0 0.53,0 0.53,0 0.53,0 0.53,0 0.53,0 0.53,0 0.53,0 0.53,0 0.53,0 0.53,0 0.53,0 0.53,-0.01 0.53,0 0.53,0 0.53,0 0.53,0 0.53,0 0.53,0 0.53,0 0.53,0 0.52,0 0.53,0 0.53,0 0.53,0 0.53,0 0.53,0 0.53,0 0.53,0 0.53,0 0.53,0 0.53,0 0.53,0 0.53,0 0.53,0 0.53,0 0.53,0 0.53,0 0.53,0 0.53,0 0.53,0 0.53,0 0.53,0 0.53,0 0.53,0 0.53,0 0.53,0 0.53,0 0.52,0 0.53,0 0.53,0 0.53,0 0.53,0 0.53,0 0.53,0 0.53,0 0.53,0 0.53,0 0.53,0 0.53,0 0.53,0 0.53,0 0.53,0 0.53,0 0.53,0 0.53,0 0.53,0 0.53,0 0.53,0 0.53,0 0.53,0 0.53,0 0.53,-0.01 0.53,0 0.53,0 0.52,0 0.53,0 0.53,0 0.53,0 0.53,0 0.53,0 0.53,0 0.53,0 0.53,0 0.53,0 0.53,0 0.53,0 0.53,0 0.53,0 0.53,0 0.53,0 0.53,0 0.53,0 0.53,0 0.53,0 0.53,0 0.53,0 0.53,0 0.53,0 0.53,0 0.53,0 0.53,0 0.52,0 0.53,0 0.53,0 0.53,0 0.53,0 0.53,0 0.53,0 0.53,0 0.53,0 0.53,0 0.53,0 0.53,0 0.53,0 0.53,0 0.53,0 0.53,0 0.53,0 0.53,0 0.53,0 0.53,0 0.53,0 0.53,0 0.53,0 0.53,0 0.53,0 0.53,0 0.53,0 0.52,0 0.53,0 0.53,0 0.53,-0.01 0.53,0 0.53,0 0.53,0 0.53,0 0.53,0 0.53,0 0.53,0 0.53,0 0.53,0 0.53,0 0.53,0 0.53,0 0.53,0 0.53,0 0.53,0 0.53,0 0.53,0 0.53,0 0.53,0 0.53,0 0.53,0 0.53,0 0.53,0 0.52,0 0.53,0 0.53,0 0.53,0 0.53,0 0.53,0 0.53,0 0.53,0 0.53,0 0.53,0 0.53,0 0.53,0 0.53,0 0.53,0 0.53,0 0.53,0 0.53,0 0.53,0 0.53,0 0.53,0 0.53,0 0.53,0 0.53,0 0.53,0 0.53,0 0.53,0 0.53,0 0.52,0 0.53,0 0.53,0 0.53,0 0.53,0 0.53,0 0.53,0 0.53,0 0.53,0 0.53,-0.01 0.53,0 0.53,0 0.53,0 0.53,0 0.53,0 0.53,0 0.53,0 0.53,0 0.53,0 0.53,0 0.53,0 0.53,0 0.53,0 0.53,0 0.53,0 0.53,0 0.53,0 0.52,0 0.53,0 0.53,0 0.53,0 0.53,0 0.53,0 0.53,0 0.53,0 0.53,0 0.53,0 0.53,0 0.53,0 0.53,0 0.53,0 0.53,0 0.53,0 0.53,0 0.53,0 0.53,0 0.53,0 0.53,0 0.53,0 0.53,0 0.53,0 0.53,0 0.53,0 0.53,0 0.52,0 0.53,0 0.53,0 0.53,0 0.53,0 0.53,0 0.53,0 0.53,0 0.53,0 0.53,0 0.53,0 0.53,0 0.53,0 0.53,-0.01 0.53,0 0.53,0 0.53,0 0.53,0 0.53,0 0.53,0 0.53,0 0.53,0 0.53,0 0.53,0 0.53,0 0.53,0 0.53,0 0.52,0 0.53,0 0.53,0 0.53,0 0.53,0 0.53,0 0.53,0 0.53,0 0.53,0 0.53,0 0.53,0 0.53,0 0.53,0 0.53,0 0.53,0 0.53,0 0.53,0 0.53,0 0.53,0 0.53,0 0.53,0 0.53,0 0.53,0 0.53,0 0.53,0 0.53,0 0.53,0 0.52,0 0.53,0 0.53,0 0.53,0 0.53,0 0.53,0 0.53,0 0.53,0 0.53,0 0.53,0 0.53,0 0.53,0 0.53,0 0.53,0 0.53,0 0.53,0 0.53,0 0.53,0 0.53,0 0.53,-0.01 0.53,0 0.53,0 0.53,0 0.53,0 0.53,0 0.53,0 0.53,0 0.52,0 0.53,0 0.53,0 0.53,0 0.53,0"
           inkscape:connector-curvature="0"
           id="path126"
           style="fill:none;stroke:#aca4e2;stroke-width:1.5;stroke-linecap:round;stroke-linejoin:round;stroke-miterlimit:10;stroke-opacity:1;stroke-dasharray:none" /></g></g><g
       id="g128"><g
         clip-path="url(#clipPath132)"
         id="g130" /></g><g
       id="g136"><path
         d="m 289.56,49.2 162.6,0"
         inkscape:connector-curvature="0"
         id="path138"
         style="fill:none;stroke:#000000;stroke-width:0.75;stroke-linecap:round;stroke-linejoin:round;stroke-miterlimit:10;stroke-opacity:1;stroke-dasharray:none" /><path
         d="m 289.56,49.2 0,-6"
         inkscape:connector-curvature="0"
         id="path140"
         style="fill:none;stroke:#000000;stroke-width:0.75;stroke-linecap:round;stroke-linejoin:round;stroke-miterlimit:10;stroke-opacity:1;stroke-dasharray:none" /><path
         d="m 314.03,49.2 0,-6"
         inkscape:connector-curvature="0"
         id="path142"
         style="fill:none;stroke:#000000;stroke-width:0.75;stroke-linecap:round;stroke-linejoin:round;stroke-miterlimit:10;stroke-opacity:1;stroke-dasharray:none" /><path
         d="m 338.51,49.2 0,-6"
         inkscape:connector-curvature="0"
         id="path144"
         style="fill:none;stroke:#000000;stroke-width:0.75;stroke-linecap:round;stroke-linejoin:round;stroke-miterlimit:10;stroke-opacity:1;stroke-dasharray:none" /><path
         d="m 370.86,49.2 0,-6"
         inkscape:connector-curvature="0"
         id="path146"
         style="fill:none;stroke:#000000;stroke-width:0.75;stroke-linecap:round;stroke-linejoin:round;stroke-miterlimit:10;stroke-opacity:1;stroke-dasharray:none" /><path
         d="m 395.34,49.2 0,-6"
         inkscape:connector-curvature="0"
         id="path148"
         style="fill:none;stroke:#000000;stroke-width:0.75;stroke-linecap:round;stroke-linejoin:round;stroke-miterlimit:10;stroke-opacity:1;stroke-dasharray:none" /><path
         d="m 419.81,49.2 0,-6"
         inkscape:connector-curvature="0"
         id="path150"
         style="fill:none;stroke:#000000;stroke-width:0.75;stroke-linecap:round;stroke-linejoin:round;stroke-miterlimit:10;stroke-opacity:1;stroke-dasharray:none" /><path
         d="m 452.16,49.2 0,-6"
         inkscape:connector-curvature="0"
         id="path152"
         style="fill:none;stroke:#000000;stroke-width:0.75;stroke-linecap:round;stroke-linejoin:round;stroke-miterlimit:10;stroke-opacity:1;stroke-dasharray:none" /><text
         transform="matrix(1,0,0,-1,282.61,27.6)"
         id="text154"><tspan
           x="0 5.5599999 8.3400002"
           y="0"
           id="tspan156"
           style="font-size:10px;font-variant:normal;font-weight:normal;writing-mode:lr-tb;fill:#000000;fill-opacity:1;fill-rule:nonzero;stroke:none;font-family:Helvetica;-inkscape-font-specification:Helvetica">0.5</tspan></text>
<text
         transform="matrix(1,0,0,-1,307.08,27.6)"
         id="text158"><tspan
           x="0 5.5599999 8.3400002"
           y="0"
           id="tspan160"
           style="font-size:10px;font-variant:normal;font-weight:normal;writing-mode:lr-tb;fill:#000000;fill-opacity:1;fill-rule:nonzero;stroke:none;font-family:Helvetica;-inkscape-font-specification:Helvetica">1.0</tspan></text>
<text
         transform="matrix(1,0,0,-1,331.56,27.6)"
         id="text162"><tspan
           x="0 5.5599999 8.3400002"
           y="0"
           id="tspan164"
           style="font-size:10px;font-variant:normal;font-weight:normal;writing-mode:lr-tb;fill:#000000;fill-opacity:1;fill-rule:nonzero;stroke:none;font-family:Helvetica;-inkscape-font-specification:Helvetica">2.0</tspan></text>
<text
         transform="matrix(1,0,0,-1,363.91,27.6)"
         id="text166"><tspan
           x="0 5.5599999 8.3400002"
           y="0"
           id="tspan168"
           style="font-size:10px;font-variant:normal;font-weight:normal;writing-mode:lr-tb;fill:#000000;fill-opacity:1;fill-rule:nonzero;stroke:none;font-family:Helvetica;-inkscape-font-specification:Helvetica">5.0</tspan></text>
<text
         transform="matrix(1,0,0,-1,410.08,27.6)"
         id="text170"><tspan
           x="0 5.5599999 11.12 13.9"
           y="0"
           id="tspan172"
           style="font-size:10px;font-variant:normal;font-weight:normal;writing-mode:lr-tb;fill:#000000;fill-opacity:1;fill-rule:nonzero;stroke:none;font-family:Helvetica;-inkscape-font-specification:Helvetica">20.0</tspan></text>
<text
         transform="matrix(1,0,0,-1,442.43,27.6)"
         id="text174"><tspan
           x="0 5.5599999 11.12 13.9"
           y="0"
           id="tspan176"
           style="font-size:10px;font-variant:normal;font-weight:normal;writing-mode:lr-tb;fill:#000000;fill-opacity:1;fill-rule:nonzero;stroke:none;font-family:Helvetica;-inkscape-font-specification:Helvetica">50.0</tspan></text>
<path
         d="m 283.2,59.64 0,133.71"
         inkscape:connector-curvature="0"
         id="path178"
         style="fill:none;stroke:#000000;stroke-width:0.75;stroke-linecap:round;stroke-linejoin:round;stroke-miterlimit:10;stroke-opacity:1;stroke-dasharray:none" /><path
         d="m 283.2,59.64 -6,0"
         inkscape:connector-curvature="0"
         id="path180"
         style="fill:none;stroke:#000000;stroke-width:0.75;stroke-linecap:round;stroke-linejoin:round;stroke-miterlimit:10;stroke-opacity:1;stroke-dasharray:none" /><path
         d="m 283.2,93.07 -6,0"
         inkscape:connector-curvature="0"
         id="path182"
         style="fill:none;stroke:#000000;stroke-width:0.75;stroke-linecap:round;stroke-linejoin:round;stroke-miterlimit:10;stroke-opacity:1;stroke-dasharray:none" /><path
         d="m 283.2,126.5 -6,0"
         inkscape:connector-curvature="0"
         id="path184"
         style="fill:none;stroke:#000000;stroke-width:0.75;stroke-linecap:round;stroke-linejoin:round;stroke-miterlimit:10;stroke-opacity:1;stroke-dasharray:none" /><path
         d="m 283.2,159.92 -6,0"
         inkscape:connector-curvature="0"
         id="path186"
         style="fill:none;stroke:#000000;stroke-width:0.75;stroke-linecap:round;stroke-linejoin:round;stroke-miterlimit:10;stroke-opacity:1;stroke-dasharray:none" /><path
         d="m 283.2,193.35 -6,0"
         inkscape:connector-curvature="0"
         id="path188"
         style="fill:none;stroke:#000000;stroke-width:0.75;stroke-linecap:round;stroke-linejoin:round;stroke-miterlimit:10;stroke-opacity:1;stroke-dasharray:none" /><text
         transform="matrix(0,1,1,0,268.8,45.6)"
         id="text190"><tspan
           x="0 5.5599999 11.12 16.959999 22.52"
           y="0"
           id="tspan192"
           style="font-size:10px;font-variant:normal;font-weight:normal;writing-mode:lr-tb;fill:#000000;fill-opacity:1;fill-rule:nonzero;stroke:none;font-family:Helvetica;-inkscape-font-specification:Helvetica">1e−06</tspan></text>
<text
         transform="matrix(0,1,1,0,268.8,112.46)"
         id="text194"><tspan
           x="0 5.5599999 11.12 16.959999 22.52"
           y="0"
           id="tspan196"
           style="font-size:10px;font-variant:normal;font-weight:normal;writing-mode:lr-tb;fill:#000000;fill-opacity:1;fill-rule:nonzero;stroke:none;font-family:Helvetica;-inkscape-font-specification:Helvetica">1e−02</tspan></text>
<text
         transform="matrix(0,1,1,0,268.8,179.31)"
         id="text198"><tspan
           x="0 5.5599999 11.12 16.959999 22.52"
           y="0"
           id="tspan200"
           style="font-size:10px;font-variant:normal;font-weight:normal;writing-mode:lr-tb;fill:#000000;fill-opacity:1;fill-rule:nonzero;stroke:none;font-family:Helvetica;-inkscape-font-specification:Helvetica">1e+02</tspan></text>
<path
         d="m 283.2,49.2 171.6,0 0,153.6 -171.6,0 0,-153.6"
         inkscape:connector-curvature="0"
         id="path202"
         style="fill:none;stroke:#000000;stroke-width:0.75;stroke-linecap:round;stroke-linejoin:round;stroke-miterlimit:10;stroke-opacity:1;stroke-dasharray:none" /></g><g
       id="g204"><g
         clip-path="url(#clipPath208)"
         id="g206"><text
           transform="matrix(1,0,0,-1,331.04,3.6)"
           id="text212"><tspan
             x="0 5.3600001 7.5799999 13.14 18.139999 23.139999 25.92 28.139999 33.700001 39.259998 44.82 47.599998 53.16 55.939999 59.27 64.269997 72.599998"
             y="0"
             id="tspan214"
             style="font-size:10px;font-variant:normal;font-weight:normal;writing-mode:lr-tb;fill:#000000;fill-opacity:1;fill-rule:nonzero;stroke:none;font-family:Helvetica;-inkscape-font-specification:Helvetica">block length (cM)</tspan></text>
<text
           transform="matrix(0,1,1,0,244.8,110.16)"
           id="text216"><tspan
             x="0 5.5599999 11.12 16.68 21.68 23.9 26.68"
             y="0"
             id="tspan218"
             style="font-size:10px;font-variant:normal;font-weight:normal;writing-mode:lr-tb;fill:#000000;fill-opacity:1;fill-rule:nonzero;stroke:none;font-family:Helvetica;-inkscape-font-specification:Helvetica">density</tspan></text>
</g></g><g
       id="g220"><g
         clip-path="url(#clipPath224)"
         id="g222"><path
           d="m 289.69,183.86 0.27,0.29 0.26,-0.2 0.27,-0.48 0.26,0.93 0.25,-0.24 0.24,0.55 0.24,-0.8 0.26,-0.16 0.26,-0.33 0.27,0.15 0.25,0.23 0.26,-0.14 0.25,0.06 0.26,-0.47 0.27,-0.35 0.27,0.24 0.27,-0.1 0.27,-0.19 0.28,-0.69 0.28,0.93 0.28,-0.87 0.29,-0.17 0.29,0.3 0.29,-0.65 0.3,0.27 0.3,-0.57 0.31,0.06 0.31,-0.48 0.33,-0.24 0.33,-0.19 0.33,0.49 0.32,-0.19 0.31,0.25 0.29,0.34 0.32,-1.11 0.32,0.35 0.33,-0.76 0.34,0.02 0.34,0.2 0.33,-0.01 0.33,-0.18 0.34,-0.41 0.34,0.02 0.36,-0.65 0.37,-0.01 0.38,-0.45 0.38,0.21 0.39,-0.8 0.43,-0.6 0.42,0.51 0.42,-0.37 0.42,-0.12 0.44,-0.42 0.43,0.28 0.43,-0.29 0.46,-1.1 0.5,-0.06 0.48,0.5 0.47,-0.39 0.47,0.02 0.47,-0.24 0.49,-0.35 0.5,-0.33 0.52,-0.4 0.52,0.27 0.52,-0.66 0.56,-0.4 0.57,-0.41 0.59,-0.03 0.64,-1.48 0.66,0.76 0.63,-0.4 0.66,-0.49 0.7,-0.55 0.75,-0.9 0.79,-0.29 0.82,-0.29 0.83,-0.36 0.84,-0.19 0.91,-1.34 1,-0.34 0.99,0.01 1.01,-0.71 1.1,-0.93 1.19,-0.72 1.28,-0.76 1.33,-0.45 1.5,-1.73 1.69,-0.7 1.81,-1.09 1.98,-0.92 2.12,-0.94 2.51,-2.29 2.99,-1.49 3.48,-2.01 4.29,-2.56 5.96,-3.98 7.58,-4.74 7.25,-4.72 6.02,-2.84 5.13,-4.13 4.49,-3.13 3.98,-2.19 3.57,-0.83 3.25,-5.25 2.97,0.44 2.74,-1.41 2.55,0 2.37,-3.21 2.22,-7.97 2.09,0 1.98,2.09 1.87,1.62 1.77,-1.62 1.7,-10.07 1.61,7.98 1.54,2.09 1.48,0"
           inkscape:connector-curvature="0"
           id="path228"
           style="fill:none;stroke:#e495a5;stroke-width:1.5;stroke-linecap:round;stroke-linejoin:round;stroke-miterlimit:10;stroke-opacity:1;stroke-dasharray:none" /><path
           d="m 437.9,98.17 1.05,0"
           inkscape:connector-curvature="0"
           id="path230"
           style="fill:none;stroke:#e495a5;stroke-width:1.5;stroke-linecap:round;stroke-linejoin:round;stroke-miterlimit:10;stroke-opacity:1;stroke-dasharray:none" /><path
           d="m 447.15,98.17 0.81,0"
           inkscape:connector-curvature="0"
           id="path232"
           style="fill:none;stroke:#e495a5;stroke-width:1.5;stroke-linecap:round;stroke-linejoin:round;stroke-miterlimit:10;stroke-opacity:1;stroke-dasharray:none" /><path
           d="m 289.69,184.42 0.27,-0.1 0.26,-0.1 0.27,-0.11 0.26,-0.1 0.25,-0.09 0.24,-0.1 0.24,-0.09 0.26,-0.11 0.26,-0.1 0.27,-0.11 0.25,-0.1 0.26,-0.1 0.25,-0.1 0.26,-0.11 0.27,-0.11 0.27,-0.11 0.27,-0.11 0.27,-0.11 0.28,-0.12 0.28,-0.12 0.28,-0.11 0.29,-0.13 0.29,-0.12 0.29,-0.13 0.3,-0.13 0.3,-0.13 0.31,-0.13 0.31,-0.14 0.33,-0.14 0.33,-0.15 0.33,-0.15 0.32,-0.14 0.31,-0.14 0.29,-0.14 0.32,-0.14 0.32,-0.15 0.33,-0.15 0.34,-0.16 0.34,-0.16 0.33,-0.15 0.33,-0.15 0.34,-0.17 0.34,-0.16 0.36,-0.17 0.37,-0.18 0.38,-0.18 0.38,-0.19 0.39,-0.19 0.43,-0.21 0.42,-0.22 0.42,-0.2 0.42,-0.22 0.44,-0.22 0.43,-0.22 0.43,-0.22 0.46,-0.24 0.5,-0.26 0.48,-0.25 0.47,-0.24 0.47,-0.25 0.47,-0.26 0.49,-0.26 0.5,-0.27 0.52,-0.28 0.52,-0.28 0.52,-0.29 0.56,-0.3 0.57,-0.32 0.59,-0.33 0.64,-0.36 0.66,-0.37 0.63,-0.36 0.66,-0.38 0.7,-0.4 0.75,-0.43 0.79,-0.46 0.82,-0.48 0.83,-0.48 0.84,-0.5 0.91,-0.54 1,-0.59 0.99,-0.6 1.01,-0.6 1.1,-0.67 1.19,-0.72 1.28,-0.77 1.33,-0.81 1.5,-0.92 1.69,-1.03 1.81,-1.11 1.98,-1.22 2.12,-1.3 2.51,-1.54 2.99,-1.83 3.48,-2.13 4.29,-2.63 5.96,-3.59 7.58,-4.63 7.25,-4.54 6.02,-3.75 5.13,-3.19 4.49,-2.78 3.98,-2.46 3.57,-2.21 3.25,-2.01 2.97,-1.84 2.74,-1.69 2.55,-1.58 2.37,-1.46 2.22,-1.38 2.09,-1.29 1.98,-1.22 1.87,-1.16 1.77,-1.1 1.7,-1.04 1.61,-1 1.54,-0.96 1.48,-0.91 1.42,-0.88 1.36,-0.85 1.32,-0.81 1.26,-0.78 1.23,-0.76 1.18,-0.74 1.14,-0.71 1.11,-0.69 1.07,-0.66 1.05,-0.65 1.01,-0.63 0.98,-0.62 0.96,-0.6 0.93,-0.58 0.91,-0.57 0.88,-0.55 0.87,-0.54 0.84,-0.53 0.82,-0.52 0.81,-0.51 0.79,-0.49 0.77,-0.49 0.75,-0.47 0.74,-0.47 0.72,-0.46 0.71,-0.45 0.69,-0.44 0.68,-0.43 0.67,-0.43 0.65,1.27 0.65,-0.47 0.63,-2.28 0.62,-0.4 0.61,-0.39 0.6,-0.39 0.59,-0.38 0.58,-0.38 0.57,-0.37 0.56,-0.36 0.55,-0.36 0.55,-0.36 0.53,-0.35 0.53,-0.35 0.52,-0.34 0.51,-0.34 0.51,-0.34 0.5,-0.33 3.26,-1.59"
           inkscape:connector-curvature="0"
           id="path234"
           style="fill:none;stroke:#e495a5;stroke-width:1.5;stroke-linecap:round;stroke-linejoin:round;stroke-miterlimit:10;stroke-opacity:1;stroke-dasharray:4.5, 7.5;stroke-dashoffset:0" /><path
           d="m 289.65,197.15 0.2,-0.47 0.2,0.47 0.19,-0.09 0.19,-0.24 0.2,0.14 0.19,0.07 0.19,-0.27 0.2,-0.14 0.2,-0.26 0.2,-0.18 0.21,0.1 0.2,-0.1 0.21,-0.34 0.21,0.3 0.21,-0.47 0.22,-0.19 0.22,-0.11 0.22,0.23 0.22,-0.1 0.22,-0.23 0.22,-0.24 0.23,-0.17 0.23,0.08 0.23,-0.1 0.23,-0.13 0.23,0.05 0.23,0.03 0.23,-0.26 0.23,-0.31 0.24,0.08 0.24,-0.04 0.24,-0.07 0.24,-0.36 0.25,0.1 0.24,-0.26 0.26,-0.14 0.25,-0.15 0.26,-0.27 0.27,0.01 0.26,-0.42 0.28,0.07 0.27,0.02 0.26,0.04 0.27,-0.3 0.28,-0.47 0.29,0.32 0.27,-0.07 0.28,-0.4 0.3,-0.15 0.3,-0.5 0.31,0.05 0.31,-0.33 0.31,0.18 0.31,-0.24 0.32,-0.19 0.32,-0.19 0.33,-0.16 0.32,0.03 0.34,-0.62 0.35,0.08 0.34,-0.21 0.36,-0.21 0.36,-0.1 0.36,-0.35 0.38,-0.3 0.38,-0.12 0.39,-0.32 0.41,-0.15 0.41,-0.39 0.42,-0.11 0.44,-0.84 0.46,0.2 0.46,-0.62 0.49,-0.32 0.49,0.09 0.5,-0.64 0.53,-0.24 0.54,-0.46 0.56,-0.26 0.6,-0.81 0.62,-0.08 0.62,-0.17 0.64,-0.38 0.69,-1.07 0.72,0.18 0.77,-1.5 0.84,-0.11 0.86,-0.68 0.93,-0.67 0.99,-0.73 1.1,-1.08 1.21,-0.93 1.33,-0.82 1.54,-1.88 1.82,-1.32 2.22,-2.26 2.9,-2.65 4.33,-4.26 10.09,-9.97 11.52,-16.07 8.67,-11.62 6.95,-12.37 5.81,-15.1 4.99,10.07 4.36,0 3.89,-5.04 3.5,-5.03"
           inkscape:connector-curvature="0"
           id="path236"
           style="fill:none;stroke:#abb065;stroke-width:1.5;stroke-linecap:round;stroke-linejoin:round;stroke-miterlimit:10;stroke-opacity:1;stroke-dasharray:none" /><path
           d="m 289.65,197.11 0.2,-0.08 0.2,-0.08 0.19,-0.08 0.19,-0.09 0.2,-0.08 0.19,-0.08 0.19,-0.08 0.2,-0.09 0.2,-0.08 0.2,-0.09 0.21,-0.09 0.2,-0.09 0.21,-0.1 0.21,-0.09 0.21,-0.09 0.22,-0.1 0.22,-0.1 0.22,-0.1 0.22,-0.1 0.22,-0.1 0.22,-0.1 0.23,-0.1 0.23,-0.11 0.23,-0.11 0.23,-0.11 0.23,-0.1 0.23,-0.11 0.23,-0.11 0.23,-0.12 0.24,-0.11 0.24,-0.12 0.24,-0.11 0.24,-0.12 0.25,-0.12 0.24,-0.12 0.26,-0.13 0.25,-0.13 0.26,-0.13 0.27,-0.13 0.26,-0.14 0.28,-0.14 0.27,-0.14 0.26,-0.14 0.27,-0.14 0.28,-0.14 0.29,-0.15 0.27,-0.15 0.28,-0.15 0.3,-0.16 0.3,-0.16 0.31,-0.17 0.31,-0.17 0.31,-0.17 0.31,-0.17 0.32,-0.18 0.32,-0.18 0.33,-0.19 0.32,-0.19 0.34,-0.19 0.35,-0.2 0.34,-0.21 0.36,-0.21 0.36,-0.21 0.36,-0.22 0.38,-0.22 0.38,-0.24 0.39,-0.24 0.41,-0.25 0.41,-0.25 0.42,-0.27 0.44,-0.28 0.46,-0.29 0.46,-0.3 0.49,-0.32 0.49,-0.32 0.5,-0.33 0.53,-0.36 0.54,-0.37 0.56,-0.38 0.6,-0.42 0.62,-0.43 0.62,-0.45 0.64,-0.45 0.69,-0.51 0.72,-0.53 0.77,-0.57 0.84,-0.64 0.86,-0.67 0.93,-0.73 0.99,-0.79 1.1,-0.9 1.21,-1.01 1.33,-1.12 1.54,-1.35 1.82,-1.63 2.22,-2.06 2.9,-2.82 4.33,-4.39 10.09,-10.39 11.52,-17.04 8.67,-13.76 6.95,-8.78 5.81,-4.95 4.99,-3.38 4.36,-2.77 3.89,-2.42 3.5,-2.17 3.19,-1.97 2.92,-1.81 2.7,-1.67 2.5,-1.55 2.34,-1.45 2.2,-1.35 2.06,-1.28 1.96,-1.21 L 468,67.73"
           inkscape:connector-curvature="0"
           id="path238"
           style="fill:none;stroke:#abb065;stroke-width:1.5;stroke-linecap:round;stroke-linejoin:round;stroke-miterlimit:10;stroke-opacity:1;stroke-dasharray:4.5, 7.5;stroke-dashoffset:0" /><path
           d="m 289.67,192.73 0.23,0.12 0.23,0.07 0.23,-0.22 0.23,-0.33 0.24,-0.14 0.24,0.16 0.23,0.32 0.23,-0.25 0.23,-0.5 0.24,0.22 0.24,-0.33 0.25,-0.16 0.25,-0.2 0.25,0.46 0.24,-0.41 0.25,0.04 0.24,-0.19 0.26,-0.35 0.25,0.27 0.26,-0.33 0.26,-0.13 0.26,-0.05 0.25,0.4 0.26,-0.46 0.27,-0.67 0.27,0.54 0.26,-0.07 0.26,0.04 0.27,-0.45 0.26,0.2 0.27,0.01 0.27,-0.78 0.28,0.29 0.29,-0.56 0.29,-0.03 0.3,-0.32 0.3,-0.03 0.3,-0.06 0.3,0.18 0.3,-0.53 0.31,0.09 0.31,-0.28 0.32,-0.23 0.31,0.29 0.32,-0.43 0.33,-0.36 0.33,-0.05 0.33,-0.01 0.35,-0.67 0.36,0.01 0.36,-0.07 0.36,-0.54 0.37,0.45 0.36,-0.29 0.37,-0.23 0.38,-0.48 0.39,-0.16 0.4,-0.2 0.4,0.11 0.41,-0.6 0.42,-0.01 0.42,-0.31 0.42,0.19 0.44,-0.85 0.45,0.42 0.44,-0.61 0.47,-0.36 0.48,-0.21 0.51,-0.66 0.52,-0.16 0.53,-0.2 0.54,-0.17 0.55,-0.31 0.56,-0.51 0.59,-0.24 0.62,-0.65 0.64,-0.12 0.66,-0.74 0.69,-0.01 0.71,-0.76 0.76,-0.56 0.79,-0.27 0.81,-0.38 0.83,-0.54 0.9,-0.69 0.95,-0.67 1.04,-0.91 1.09,-0.37 1.18,-1.11 1.26,-0.41 1.34,-1.04 1.53,-1.36 1.75,-1.35 1.99,-1.18 2.29,-1.79 2.71,-1.67 3.61,-3.45 5.54,-4.42 8.84,-7.65 9.17,-9.36 7.27,-8.25 6.03,-9.91 5.15,-2.09 4.49,-9.29 3.99,-11.69 3.58,7.98 3.25,-7.98 2.97,0 2.75,0"
           inkscape:connector-curvature="0"
           id="path240"
           style="fill:none;stroke:#39beb1;stroke-width:1.5;stroke-linecap:round;stroke-linejoin:round;stroke-miterlimit:10;stroke-opacity:1;stroke-dasharray:none" /><path
           d="M 432.16,98.17 468,73.6"
           inkscape:connector-curvature="0"
           id="path242"
           style="fill:none;stroke:#39beb1;stroke-width:1.5;stroke-linecap:round;stroke-linejoin:round;stroke-miterlimit:10;stroke-opacity:1;stroke-dasharray:none" /><path
           d="m 289.67,192.98 0.23,-0.09 0.23,-0.09 0.23,-0.09 0.23,-0.09 0.24,-0.1 0.24,-0.09 0.23,-0.09 0.23,-0.09 0.23,-0.1 0.24,-0.1 0.24,-0.1 0.25,-0.1 0.25,-0.1 0.25,-0.1 0.24,-0.1 0.25,-0.1 0.24,-0.11 0.26,-0.11 0.25,-0.1 0.26,-0.11 0.26,-0.11 0.26,-0.12 0.25,-0.11 0.26,-0.11 0.27,-0.12 0.27,-0.12 0.26,-0.11 0.26,-0.12 0.27,-0.12 0.26,-0.12 0.27,-0.11 0.27,-0.13 0.28,-0.13 0.29,-0.13 0.29,-0.13 0.3,-0.14 0.3,-0.14 0.3,-0.14 0.3,-0.15 0.3,-0.14 0.31,-0.15 0.31,-0.15 0.32,-0.15 0.31,-0.15 0.32,-0.15 0.33,-0.17 0.33,-0.16 0.33,-0.17 0.35,-0.17 0.36,-0.18 0.36,-0.18 0.36,-0.19 0.37,-0.19 0.36,-0.18 0.37,-0.19 0.38,-0.2 0.39,-0.21 0.4,-0.21 0.4,-0.21 0.41,-0.22 0.42,-0.23 0.42,-0.23 0.42,-0.23 0.44,-0.24 0.45,-0.25 0.44,-0.25 0.47,-0.26 0.48,-0.27 0.51,-0.29 0.52,-0.3 0.53,-0.31 0.54,-0.31 0.55,-0.32 0.56,-0.34 0.59,-0.35 0.62,-0.37 0.64,-0.39 0.66,-0.4 0.69,-0.43 0.71,-0.44 0.76,-0.48 0.79,-0.49 0.81,-0.52 0.83,-0.54 0.9,-0.58 0.95,-0.63 1.04,-0.68 1.09,-0.74 1.18,-0.79 1.26,-0.87 1.34,-0.94 1.53,-1.07 1.75,-1.26 1.99,-1.44 2.29,-1.71 2.71,-2.07 3.61,-2.81 5.54,-4.51 8.84,-7.74 9.17,-9.93 7.27,-8.97 6.03,-8.17 5.15,-7.27 4.49,-6.15 3.99,-4.88 3.58,-3.7 3.25,-2.84 2.97,-2.26 2.75,-1.91 2.54,-1.68 2.38,-1.53 2.22,-1.42 2.1,-1.32 1.97,-1.24 1.87,-1.17 1.78,-1.11 1.69,-1.06 1.62,-1 1.54,-0.97 1.48,-0.92 1.42,-0.88 1.37,-0.85 1.31,-0.82 1.27,-0.79 L 468,62.89"
           inkscape:connector-curvature="0"
           id="path244"
           style="fill:none;stroke:#39beb1;stroke-width:1.5;stroke-linecap:round;stroke-linejoin:round;stroke-miterlimit:10;stroke-opacity:1;stroke-dasharray:4.5, 7.5;stroke-dashoffset:0" /><path
           d="m 289.67,191.01 0.22,-0.19 0.23,-0.36 0.23,-0.1 0.24,-0.03 0.23,0.19 0.23,-0.4 0.24,0.19 0.23,0.09 0.23,-0.47 0.24,0.15 0.24,-0.57 0.25,0.07 0.24,0.1 0.25,-0.08 0.25,-0.46 0.25,0.35 0.24,-0.12 0.26,-0.47 0.26,-0.1 0.26,0.01 0.26,-0.21 0.26,0.08 0.28,-0.77 0.26,1.01 0.27,-0.85 0.27,0.12 0.27,-0.11 0.27,0.25 0.27,-0.49 0.28,-0.2 0.29,-0.29 0.29,-0.21 0.29,0.14 0.28,0.62 0.27,-0.52 0.3,-0.57 0.31,-0.42 0.3,0.61 0.29,-0.28 0.31,-0.4 0.32,-0.37 0.31,0.23 0.34,-0.89 0.33,0.59 0.32,-0.25 0.33,0.13 0.33,-0.71 0.35,-0.22 0.36,-0.14 0.36,-0.15 0.37,-0.18 0.37,-0.42 0.38,0.32 0.38,-0.82 0.4,0.24 0.38,0.03 0.39,-0.38 0.4,-0.01 0.41,-0.55 0.43,-0.46 0.44,-0.04 0.44,-0.24 0.44,-0.01 0.47,-0.89 0.48,0.35 0.47,-0.09 0.49,-0.88 0.52,-0.22 0.5,0.46 0.5,-0.59 0.54,-0.61 0.57,-0.47 0.59,-0.15 0.59,-0.24 0.6,-0.23 0.63,-0.83 0.67,-0.25 0.69,-0.4 0.72,-0.42 0.77,-1.02 0.83,-0.33 0.84,-0.26 0.88,-0.71 0.92,-0.3 1.03,-1.68 1.14,-0.33 1.17,-0.5 1.23,-0.71 1.35,-1.14 1.49,-0.93 1.66,-1.22 1.79,-0.67 2.02,-1.78 2.49,-2.09 3.11,-2.3 3.96,-2.6 5.95,-4.8 8.75,-6.15 8.69,-5.62 6.97,-3.05 5.81,-3.54 5,-2.6 4.37,-1.56 3.89,-1.76 3.51,-1.78 3.19,0.26 2.92,-1.43 2.7,-2.86 2.51,-3.95 2.34,2.95 2.2,-5.31 2.06,0.54 1.96,-2.44 1.85,1.32 1.76,-3.91 1.67,-1.12 1.6,-1.32 1.53,-11.69 1.47,14.13 1.4,-6.15 1.36,2.09 1.3,-2.09 1.26,-2.95 1.21,0 1.18,6.66 1.13,-3.71"
           inkscape:connector-curvature="0"
           id="path246"
           style="fill:none;stroke:#aca4e2;stroke-width:1.5;stroke-linecap:round;stroke-linejoin:round;stroke-miterlimit:10;stroke-opacity:1;stroke-dasharray:none" /><path
           d="m 439.15,98.17 1,0"
           inkscape:connector-curvature="0"
           id="path248"
           style="fill:none;stroke:#aca4e2;stroke-width:1.5;stroke-linecap:round;stroke-linejoin:round;stroke-miterlimit:10;stroke-opacity:1;stroke-dasharray:none" /><path
           d="m 443.01,98.17 0.91,0"
           inkscape:connector-curvature="0"
           id="path250"
           style="fill:none;stroke:#aca4e2;stroke-width:1.5;stroke-linecap:round;stroke-linejoin:round;stroke-miterlimit:10;stroke-opacity:1;stroke-dasharray:none" /><path
           d="m 445.66,98.17 0.84,5.03"
           inkscape:connector-curvature="0"
           id="path252"
           style="fill:none;stroke:#aca4e2;stroke-width:1.5;stroke-linecap:round;stroke-linejoin:round;stroke-miterlimit:10;stroke-opacity:1;stroke-dasharray:none" /><path
           d="m 289.67,190.82 0.22,-0.09 0.23,-0.09 0.23,-0.09 0.24,-0.09 0.23,-0.1 0.23,-0.09 0.24,-0.09 0.23,-0.1 0.23,-0.09 0.24,-0.1 0.24,-0.1 0.25,-0.1 0.24,-0.1 0.25,-0.1 0.25,-0.11 0.25,-0.1 0.24,-0.11 0.26,-0.1 0.26,-0.11 0.26,-0.12 0.26,-0.11 0.26,-0.11 0.28,-0.12 0.26,-0.12 0.27,-0.12 0.27,-0.12 0.27,-0.12 0.27,-0.12 0.27,-0.12 0.28,-0.13 0.29,-0.13 0.29,-0.14 0.29,-0.13 0.28,-0.13 0.27,-0.13 0.3,-0.13 0.31,-0.15 0.3,-0.14 0.29,-0.14 0.31,-0.15 0.32,-0.15 0.31,-0.16 0.34,-0.16 0.33,-0.17 0.32,-0.16 0.33,-0.16 0.33,-0.16 0.35,-0.18 0.36,-0.18 0.36,-0.19 0.37,-0.18 0.37,-0.2 0.38,-0.19 0.38,-0.21 0.4,-0.2 0.38,-0.21 0.39,-0.21 0.4,-0.21 0.41,-0.22 0.43,-0.23 0.44,-0.25 0.44,-0.24 0.44,-0.25 0.47,-0.26 0.48,-0.27 0.47,-0.27 0.49,-0.28 0.52,-0.3 0.5,-0.29 0.5,-0.3 0.54,-0.31 0.57,-0.34 0.59,-0.35 0.59,-0.36 0.6,-0.37 0.63,-0.39 0.67,-0.41 0.69,-0.43 0.72,-0.45 0.77,-0.49 0.83,-0.54 0.84,-0.54 0.88,-0.58 0.92,-0.6 1.03,-0.69 1.14,-0.77 1.17,-0.8 1.23,-0.85 1.35,-0.94 1.49,-1.05 1.66,-1.19 1.79,-1.3 2.02,-1.49 2.49,-1.85 3.11,-2.35 3.96,-3.02 5.95,-4.47 8.75,-6.26 8.69,-5.51 6.97,-3.42 5.81,-2.47 5,-2.07 4.37,-1.87 3.89,-1.77 3.51,-1.68 3.19,-1.62 2.92,-1.57 2.7,-1.51 2.51,-1.46 2.34,-1.42 2.2,-1.38 2.06,-1.34 1.96,-1.31 1.85,-1.27 1.76,-1.23 1.67,-1.21 1.6,-1.18 1.53,-1.15 1.47,-1.12 1.4,-1.11 1.36,-1.08 1.3,-1.05 1.26,-1.04 1.21,-1.02 1.18,-1 1.13,-0.99 1.1,-0.97 1.07,-0.95 1.04,-0.94 1,-0.92 0.98,-0.91 0.95,-0.9 0.93,-0.88 0.91,-0.88 0.88,-0.86 0.86,-0.85 0.84,-0.84 0.81,-0.83 0.81,-0.82 0.78,-0.81 0.77,-0.8 0.75,-0.79 17.58,-9.38"
           inkscape:connector-curvature="0"
           id="path254"
           style="fill:none;stroke:#aca4e2;stroke-width:1.5;stroke-linecap:round;stroke-linejoin:round;stroke-miterlimit:10;stroke-opacity:1;stroke-dasharray:4.5, 7.5;stroke-dashoffset:0" /><path
           d="m 407.08,202.8 47.72,0 0,-60 -47.72,0 0,60 z"
           inkscape:connector-curvature="0"
           id="path256"
           style="fill:none;stroke:#000000;stroke-width:0.75;stroke-linecap:round;stroke-linejoin:round;stroke-miterlimit:10;stroke-opacity:1;stroke-dasharray:none" /><path
           d="m 416.08,190.8 18,0"
           inkscape:connector-curvature="0"
           id="path258"
           style="fill:none;stroke:#e495a5;stroke-width:1.5;stroke-linecap:round;stroke-linejoin:round;stroke-miterlimit:10;stroke-opacity:1;stroke-dasharray:none" /><path
           d="m 416.08,178.8 18,0"
           inkscape:connector-curvature="0"
           id="path260"
           style="fill:none;stroke:#abb065;stroke-width:1.5;stroke-linecap:round;stroke-linejoin:round;stroke-miterlimit:10;stroke-opacity:1;stroke-dasharray:none" /><path
           d="m 416.08,166.8 18,0"
           inkscape:connector-curvature="0"
           id="path262"
           style="fill:none;stroke:#39beb1;stroke-width:1.5;stroke-linecap:round;stroke-linejoin:round;stroke-miterlimit:10;stroke-opacity:1;stroke-dasharray:none" /><path
           d="m 416.08,154.8 18,0"
           inkscape:connector-curvature="0"
           id="path264"
           style="fill:none;stroke:#aca4e2;stroke-width:1.5;stroke-linecap:round;stroke-linejoin:round;stroke-miterlimit:10;stroke-opacity:1;stroke-dasharray:none" /><text
           transform="matrix(1,0,0,-1,443.08,187.21)"
           id="text266"><tspan
             x="0"
             y="0"
             id="tspan268"
             style="font-size:10px;font-variant:normal;font-weight:normal;writing-mode:lr-tb;fill:#000000;fill-opacity:1;fill-rule:nonzero;stroke:none;font-family:Helvetica;-inkscape-font-specification:Helvetica">A</tspan></text>
<text
           transform="matrix(1,0,0,-1,443.08,175.21)"
           id="text270"><tspan
             x="0"
             y="0"
             id="tspan272"
             style="font-size:10px;font-variant:normal;font-weight:normal;writing-mode:lr-tb;fill:#000000;fill-opacity:1;fill-rule:nonzero;stroke:none;font-family:Helvetica;-inkscape-font-specification:Helvetica">B</tspan></text>
<text
           transform="matrix(1,0,0,-1,443.08,163.21)"
           id="text274"><tspan
             x="0"
             y="0"
             id="tspan276"
             style="font-size:10px;font-variant:normal;font-weight:normal;writing-mode:lr-tb;fill:#000000;fill-opacity:1;fill-rule:nonzero;stroke:none;font-family:Helvetica;-inkscape-font-specification:Helvetica">C</tspan></text>
<text
           transform="matrix(1,0,0,-1,443.08,151.21)"
           id="text278"><tspan
             x="0"
             y="0"
             id="tspan280"
             style="font-size:10px;font-variant:normal;font-weight:normal;writing-mode:lr-tb;fill:#000000;fill-opacity:1;fill-rule:nonzero;stroke:none;font-family:Helvetica;-inkscape-font-specification:Helvetica">D</tspan></text>
</g></g></g></svg>